<mxfile host="app.diagrams.net" modified="2023-07-12T13:57:34.429Z" agent="Mozilla/5.0 (Windows NT 10.0; Win64; x64) AppleWebKit/537.36 (KHTML, like Gecko) Chrome/114.0.0.0 Safari/537.36 Edg/114.0.1823.67" etag="2pZuZYvjPeL6nyD_s4Ec" version="21.3.8" type="github">
  <diagram name="第 1 页" id="RITIf6iPBL1IM4q-SdGh">
    <mxGraphModel dx="1166" dy="775" grid="1" gridSize="10" guides="1" tooltips="1" connect="1" arrows="1" fold="1" page="1" pageScale="1" pageWidth="827" pageHeight="1169" math="0" shadow="0">
      <root>
        <mxCell id="0" />
        <mxCell id="1" parent="0" />
        <mxCell id="3UcTS02MajumEh321Bra-1" value="" style="rounded=0;whiteSpace=wrap;html=1;" vertex="1" parent="1">
          <mxGeometry x="140" y="180" width="687" height="130" as="geometry" />
        </mxCell>
        <mxCell id="3UcTS02MajumEh321Bra-2" value="" style="rounded=0;whiteSpace=wrap;html=1;" vertex="1" parent="1">
          <mxGeometry x="140" y="370" width="687" height="130" as="geometry" />
        </mxCell>
        <mxCell id="3UcTS02MajumEh321Bra-3" value="" style="rounded=0;whiteSpace=wrap;html=1;" vertex="1" parent="1">
          <mxGeometry x="140" y="560" width="687" height="130" as="geometry" />
        </mxCell>
        <mxCell id="3UcTS02MajumEh321Bra-4" value="" style="shape=image;verticalLabelPosition=bottom;labelBackgroundColor=default;verticalAlign=top;aspect=fixed;imageAspect=0;image=data:image/png,iVBORw0KGgoAAAANSUhEUgAAANwAAADXCAYAAABxnT9CAAAAAXNSR0IArs4c6QAAAARnQU1BAACxjwv8YQUAAAAJcEhZcwAADsMAAA7DAcdvqGQAAFGtSURBVHhe7Z0FdFtH04YjGSRbZmYOo8PMzA0zY5syM/crpW2aNMzMzMzogMMxMzPIki1Lv1573T9xdXX3iizDc45PdlYOWZq7u7Mz7/Dq1VElCE3s7OzNAwKtTN09LE2dnUUmLq4iUxcXSxNHJ0sTZ+d6fBMTC56NXT0ejyfg29vxlQPyW8uQKLJzFEpK5VJJUWlOtkSenS0hv4plGRm5JXGxeSUJ8fgqKs3MJL+tjiqmzuH0CK8enw+nchW2bOUqbNHSzjwgyN7MP8BOEBCodCwH8m16p7i0UJwji4nOlL54liF99jRd8vRJhvTpk8zi8DC5oqSEfFsdBqDO4XSItZmHp6+oZy9Piw4d3QQtWrlYNGthzrexJi8bHTKFtDhNEvogsSjkVpL49q3Eols3s4ujIsnLdeiBOofTAhszTy8fUY+evpbde/qKuvewNw8MIi9VW8Sy9PTYwosXogrPn4kuOHsGW1PyUh06oM7hOMDnmZn5i3r1aWgzcpSvZa/eDsqtIXmpxpKl3HZGFZw7E5Z/+FBs4eWLdVtQ7ahzOBZMeAKBj2WXbvWthw5rbDNugpWZswt5qdYhkWVlR4svnA3PP370Rd7B/cXyggLyUh2U1DmcCkx45uaBVgMGNbYZNaa+9eBhAhM7W/JSHYRieV7+s7wDe0OzN2+IF1+7Wq+eQkFeqkMNdQ73EjZm3j6t7efMa2k/c7aVqasbma6DheziyIiHOVs24QvXEGS6DhXUeodD6N5P1LN3sMOceQ2shr9mwjczJS/VwRF5vVJ5ZN6p43eyli6JLrxwrm7V+y+11uGEJvb2wfaz5wXbz51vb+7nT6YNQqlCIs0tTkookCUk5JbEx+WVfSXE5yntIllWZrE8P1+q/FKekfLx/SVysbhUIZVijMCNOd/KCmMTnqmZgG9rKzCxsRHy7ewFJra21qbuHiJTV1drM08va1MPD3uzgEBbc29fHs/UBL/HUKQWhYbeyV7+95OcndtlComETNd6ap3DwdE6OL71bjuH19/S99kMT/xsSURYsvT+/VTJg3spRQ/u4+K5QJaSTL7FIOBMamfuH+AsaNyks+OHn7pbtm1LXtI7+L/ezFj8273stavw4CDTtZZa43AWJg4O7ZWO1tbx9beEfFsbMq1TCkvSUqMLz55JKrpzO1npYGmSh6HGFslzEjRqPD8o9CkxDUZBSXra7aw/F9/NWrW8Nkc3a7zDwdE6OL79XhvHhW/q2tGQqZFYePNaVOGZ01EFZ06lSEIfGPu5BSlmcwLvKP+dVUNhaUbGjfRffgrJWvlPqaK4mEzXGmqsw2Eb1c5x0dtdnD/5QpeOhif1i/x9eyMLTp+MLbx0oTo9rR3Mg+qP8z10zFH5K5mqMnKk0VEX0r/87Gnu3t21KbhSIx0u0Kr/wL5ui/9yEjRoSKa0QiYXF4XlHzn0KHfHVqxkcoVMRl6qNiAS+5r39j2GTJqmIano9u0zKR+/lyC+fo1M1WhqlMPZmHl593T57sfmdpOnkimNQcAjqfDWjYe52zY/zd29UyrPyyMvVTvqWw8eCmcz41kIyZSRIVc8ytmx9Wzqx+8jl5NM1khqhMOZ8S0tOzt99GkHp3c+0PZDVSTLznmQs25VSNaKf2rCJW5jmzHjRnhu3Kbp/WKJokgSW3DxXLLkbkhOcUw0Io2mfKFQZOrq5ipsGexr2b07qiTIt2sFzncXUj77KDRn88aaus2s9g7nbdml63CPdZvsBP4BZEojckriYkMyly65n71hLe7ByHS1BtvI8b6HT5jyBOZkipqowvNnH2StWxNZcOqE+p8Hj+dl2bFTa/s585vajJvI55ubkRc0Jl589cqRxHmzkMFCpmoM1dbhkFTcw+Wrbzs6vvOBNpe6yUV3797KXLL4Wd6+PdXxbMaEi7BZ82l+565wvWtETdyF1C8/Q0CITFFja+bj28f1p18b244dR6Y0pqS0oPBc2ucf3c1ataImrXbV0uHwYRrhsWGri0WLFmSKM4lFt29dVH6wYgovnidTNQacZWf4X7nBZauHwNCZ1I/fu5e1eiWZ0pgAq34Dhnmu26iLfNTognNnjibNm11TcjSrlcMh71F5Tnu/p8vX35vwhAIyzYksaVTkxbQvP8OKVhPPCQK+jc30gAvXnAXNmpEpVpD9ciBhyoQ0yeNHZEproNMy2mv7Hh9R9x5kSmNwrj6R/Ma88vesemPQ/DptsDJ1cx/ne+BosP2sOXyeKecAAA7kl5SOdjRp7sw06aOHZLrGMdRj5Vp/qz59ickK7hO3xw7ul1+SmECmdAKCK09yd21HBQY0Xci0RpjxLYSNbUePtTR1coopvHBeUa+0lLxU7agWDudu0brNZL8TZ1yFzTlvIZENojwH/LMvfvyo2MLLl6rzm8UGrkO6uXzxNTFZwd3i/viJY2WKoiIypVPws8bfAYUyT8v2Hcm0xnhYtGsfZD1gsNLpzklKs7PJdLXC6B0u2H723NHeO/ZamDg6kilqYgouX9wZN3TAk9yan7EOdbBxPvsOI5hEptTyMGfzxoOJM6YYQjIByQLWZu4eeHCSKY2xMnV3b2Y7eVq69PGjrOKIcDJdbTBah8O2sZfr9z/1dv3xF65bSMjCXUr/9kvlvn9+UWlWFpmuseDnM1653bY3D6TSWEGo/2DCtEkKheFWe/ydnpadOtuba3d9A7DFbGo7doJMUSytbhkqRulwiG5N8Dl8vKnd+IlkihqcSXbGDRsYWXDyeG3J0evu8uU3zWwnTiamWlIk9+/vih0x2NArvqKeXB6Rf+xIQ6vhI3EWI9Maw+Px+TirIiIbpXzPq8tRweiilM6Cps0m+h49yTV7AQI3CGtjq0SmagVISJ4XdPcRTdQ2rzgxYWN0lw75suQkMmVwICU4M+DKTU2OCEzEKc/me5Vn9OqwmzEqh4OA6jjfA8e4JthC0GZVROtmqJwmU6ygOlrIt7VDQSqfZ/KflV4ml0pLFGJxqVwiKVFIil6uujYmJvgePg7BI2IyUiovkW2J7ds9UXzzBpmqMhpYDxsx1mfvQWLqBFxt7IgdMiBPx9FWXWM0Dhdg1bf/GK9d+81MrERkipoCWWrKP2EN/LFN4imdx9bM2wdPfnzZm9dX/hoYJDJxdhWYONhbmNraCUzs7Pn1TPjkt1ODy2GxLDtTUpqZVVSanSmWZ2YWlCQn5cni4/NLkhKJXEJ8viwp0RDno4bWw0eO8dlzgJhquZT27VdX03/6nphVznDP9Zt1kWT+MkjP26l0ukxp2AsyZXQYhcM1thk9drjXhq2a5PxVgO0SdEAcBH4Bml6K6wpcReQUR0XgjYeQKjT80yVPHqdJHz+SyXUTgjflW1gsCAp9amvm60emGEFu4paY/r0MGSRhAzuLeYH3Hukq8bkCVBvsjBsxOLnobgiZMiqq3OGC7efMG+S+ZLmhRW6qAoVCVqp0vhfJkvv30yQPHySJQ24jC18TrY/uLl99283586+IyYi0NCd3dWTbFly224YCW+EJvgePIc5KpnQCjhg7YkcMMsYIZpU6XEendz9Asquuf+DVCbm8uCRZ+uBeovjWDXxA4sRXLhfK0tPIyyrxsuzcZarvqQs0mfmnkt95MyRrxTJiGh3DPddtam43ZRoxdYZEnpu3M3b4QGM4s75MlX3Q2zm8/mZ/9z//JmYd/yJXQBsluqC8mUa8+PrV/w/h83jN7CZO7u/2+180Ub4Uyb1766O6tjemrWRl0BBlYdDjMFO+pQWZ0hlY3XfEDhuARHUyVeVUicO1sp85e4jH8jW1eWWjBYGazOLIiCJZdqaLRdMWtBFcVKxvjurZ2Zg+bEygSr+L88efEVOnwOm2xw7pl1QUcodMVSkG/8A3tZ0waYTnus214cxWldzPXrfmeNLr84hp1KDC4fX6TyNQYUCmdAo6wG6K7tU1U/riOZmqMjiHxrUhyGrg4GEeazfVOZv+uZL+w7dkaPRAL4bLvxfZMqHZG9cTkxVsvyf6HjkBVWoyVWUYbIVzE7YKnuJ/9rKAb10m020s4HAtk0vEslKxWMGTy5Vvfr6QV14lbcIXCMx4QktTE5FImysLwyNX/P7czV5amptLJoweSLjPD3z4jKbn3tHEebNCczZt6OD4zvt93X75nUyzAvn1LbH9elTlz8UgDldWgRxw9aYhnzAoWswuCQ/LkkaEZRS/eI5OnhJZFi6ss9B4vuzX0uxsWlkF3HuVZ6bYKb8cHJDv+f86/h6etqa+vrYC/wBbUw8vY1jBr6X/8tPFtK8+J2a1oI3DgtcHui/5h5iMIH3vSOLcmRhzdbrYgksXdsQNHVhVIrR6dzjsz6GtoY0cAhu47EQ0DyH15KL7d7OKX7xgC63rCwjQ4jLaQRBU31nQpCm+nASNmzqaN2psbiKyJN9mEFA3djtz6ZKIgpPHjTlSWQHU195oEB4rMlGf3IxqkL/D/T0qVqouzp983tPl2x/KXqTgQfb6tceSFs4lpkHRq8NBEmGcz/7DQdaDhpApnYCLzfD8k8eVDnYxrvDK5Qzp82fGXhmAlDMnpdO5W7Rp62HRpp27Reu2boJWwbpQuWIDaWehORvXP8jesM7Ye3b3cPn6u67On31JTEaOJS2Yg/8PMev1cv3hf52dPvyEmKycSn57EeTWiWkw9Opw3Zy/+BqlI8TUCrR4iiw4c/Jxzs7t4QXHjugqRaoqwRPdw6JdBx/Lbt29Rd26ewrbddTnKoirgijlz/BO5rK/owrOnjbGh5TI1MX1jQZhMWz6oqgQ2BLTrycxyxjg/tfStg4LFxFTLUg42B43pD/6lpMpg6A3h0NEcqzv/iOaJAm/DGTs7mWvXfk878C+6lpWT4spTyj0FnXpFmjVf4C/Vb+BLoKmTclLOidT8uL5nex//n6Ys3VzibywkEwbBYM9lq9GpT8xVYKHxz9hDf1fTVnj8UZ4rt/czG7SFDKhFujcbIjs3C63JDaGTOkdvTgcyv1n+V+7IzR1sCdTnAnPO370ZuYfv+FcRqZqHcjCUDpefxRt+ln37qcPqfJypen1q29n/v2XofvWMYGayHlB91gVxKCfeT3j1/8RswycoSf5HjtNqxaGxIDN0b27GUJqAujc4fAfnhFw+aabMDiYTHEiuvDi+UupX30OQVIyVYcSdD1Fk5KGNsNfC7IaNETXzSSxZX+Ys23zzYw/fjMGrZBZAddDlOddtRoo6ZLnz1ZHtmxCzH9Bi7Jp/peu0zZzwf/5XOqnHxFTr+g8fN3L9bsfG9uMHkNMalDLdCxp3uwLqV98mi8z7iLCqgBhbBRZPs87uP925rK/UiUP7vPrmZnZCnz9TXja9yWHLgpEfto4LnjDRdi0GZyuUJaaQl42OGZ8C4tAqwEDiakSkamTc0TB8aMFsuRXVmaokEUVnDrR1Hb8RDO+iLW+0suyQ+ekoju3DCGtrtMVDsv4ZL+T57md2+SKu1lrViqfMB8a21miOoDK9SY2Y8Y1t506w1vUoZPu8lPliue5hw9cyfj+G10KxNIiMnV2eat+VAJbFPd25tK/zqR88C4xXwHBqEm+J87RNDJB3791UW1b6XtbrbMVDhfC2DvjVzLFCg6t++MnjLmTtWyJofbQNQ3IPqRI7t9D2P9x7s5tJYrCQmsTD0+hqb3G5+dyeDwnYaPGwQ5z5rsIGjdNV66u4tIMg7WSKpGLCz0s2rd3FNRvQKZUYmXq6Xk7a+lfxHwFXIHg5wHpdTLFiLmJSOQkaNQIkopkSi/ozOGGeKxY4y3q2o2YrCSJ79zZHjuor/LDcpdM1VEJtOAa5b1jT1vH199EQ3xcXkPGgUmhSlKanYXL7pCs5cvQZxwPPztBQBBPi1UPv9dZ2LRpa4e5CyFxlyK5d9dQvfLkyv8nFJeJqRKhiY1teP7Rw0wrU2LR7ZvOwsZNkIBAphhxUDo3IpapkoehZErn6GT70chm5KjR3rv2EZMVRCAPJE4er0mlc22BSa8EuZ9heYf2I0JHs/2xUzpJa/u581vYT5/FlsFBA/rF3c1csfRaxq//0/c1Da5J3moQk2xhaq9213Ql/cfvLqd9x6g4bc63tp7hf/WWs3LFJlOMQP1tdWTrZvpSNtN6hbNUvonjfA4fx5JMptTyKHf7toOJUycaowKWMdHH9effVG2nlB9CAbT6PSzatH2Ys4VVElBSmpMdXXjubEjm8qUIClibuXlYm3lqrCOCAI2XZacurexnzsX1cUrRg3vyevpp84U/11HYoCES38mUSpDjei97DWPXHwSc4ouuXm6lfOiwiQojZ9bBvH6DJ3m7dpApnaK1w/Vz/+1PX1G37sRUy7O8/XsPJc6YUh3y+qoSPJEHey5dqe7DYWvu7atcZX6CwCqZUgs+vNgqPcjesDai4MQxM77I2lnQqAkEVcm3cMKMb2kBpbUWdlOmod5Mn4GVprbjJpChSqzM3NyUD59NUnluDpn6D4WytLQSuaRIeZ7rT6YYcRQ0aJhZHPYiXfrkMZnSGVplgeBJ28puxmxiqgWpOIcSpk+uczZ2gqwHDmZTHiuQpaVoGmiCopXyvZi0MqJVE3xQoVlJXuIMuuNA8m6a34Wr2nbJUYVydT6DZGViMtLAZuhwMmTkdubff+Kel5hq6ev6y++4+ySmztDK4fq6/v4nTSkKDqL7EiaNraqSiOpGI+sRo8iQkfD8o0fIUGMg4Xckcc6MlZHNGtzPXrsa8n7kJc54izp1nh1wPQT5jFwi1WzgnB8jPn+GmIzUtx4+ggwZwW7gaOKs6TinkSlGUHJFk0TNFY0dDoESP6vurySPqgI5b4cTZk9HCQ2ZqkMNCBQEWrMrKeMCnAy1Bs3yjye9MX9FeJMgKHwhMEJe4gQevkgeXhD46HkLu6nTMUNe0oqwvCOHyJARX4vO3WhWJCgzn0n9SOW9XWXaOS56B9tLYuoEjRwOLZH6uPz8GzHVcj9r7aranA/JFT+rXn3M+TbWxFQJ8h816cHNBtr6QlZveVijgJuZS/6AgBF5iRMiMxfXYZ5rN071P3cZ7aHJtMaEFxw/Ck1PYqoEF+QI5hBTLUjYptlaosq/v+sfS4ipEzRyuA6Ob71rJ2BvO4RM7vOpn39MzDooYEtnAhEFx4/oc3uO64ZzKR+9vyKifKvJ9mFnwseyS9dZ/jfv9Xb98Wfk2JJpzmB3lFB08zoxGfET9exFhiwoFCeT3lhA80AJsO43AMEhYmoNZ4dDvVIn5w8/JaZalNuUBcXy/Hxi1kGBn6hPPzJk5EX+Iap+AtqC7Re2muujurTDhTqZ5gTSqjo5ffDxTP+rt9nC++oIzz9xjAwZ8RV1p3Q4nF8jwq9m/ExVJd7T5bufdLU95uxwXZw//VzIt7UhJiMv8g8fRBM+YtZBga2Zjy9bhjsKJ6MLzp8lpkFIkTy4vy1mYN9dsSOGpEmfPCHTnHC1aNlypv+VW6jo1mS1o9lCuwqCW0PSg5is3Mz483cEjojJCKoWGtuM4pyQrwpODofG9sF2M+YQUy03Mhb/SoZ1UBJg1Z815w9bq6raNUAbZW1E2xaHE2dP1yTJF+csRP5mBd6852HRth2ZpgL5osiyIaZKsJp6W3buSkxWsC0/l/LJh8RUS0/Xb3/g2olXFZwcDqsbjSR1nPjaVWPTdK8O+Fv17kuGjEQVQhqh6kBo/VHO1s3Lw5vUx0MVKy55iRpUsk/zu3gd4j/QvSHTaoG6WkLh9SvEZMTPqldvMqQiLP/oYZoACrJPdNEDgdrhUH0cbE+3uj3O2baZDOugBB88X1HPPsRkpFyLpOpBKdX51M8+Xhfdua0mxcJYjaC0Ndn35FnallWx4kus+iPeFl2osp5eBgEiXF8Rk5HOyrMo7QOCCerf3Nnp489o+q6hcvhZ3r49xKyDEmdh02ZsfQNQzpRSdP8eMY2CNMmjh5uienY5mfzW69DxJ9PU+Fr16DU78M6DBtbsmSJU5ziL5i24nhFTJaEPaBYJrHK4fyamRlA5HIoBW9hPKxPeZCNefOOqpDSHMaetDtV4W3ZhPXvEFJw/R5s7aUjwb7qbtWrFyoiWjZ/l7tlNpqlBFcNYnz0HkaWCi38y/R/QVQh3kMRUCRYFaKIQk5or6T99T7M97uj4nlZSDFQO19p+/kJaAZvognMGjaDVFLwtO7Je2iaIr18lQ6MEgZT9CVPG74wdPji7OCaaTFPC5yFLBZFMtIomk6+APNzEopusTRYhFUGG1OQUR0c9yt2+hZiMeFi2a+cn6sW69WeC1eGQVdJG6XDEZCVOfLUuq0QDPC27sDoc1KXJ0KjBddCayNbN72WtXolwB5mmAgrdU/0uXmW6s0O0kgwZUf7e1mTIiasZP/9Itco5vfcBGXKG1eHQABCpOsRkQa6oCv2L6g56L9iZ+fgSUyU4H6FHODGNHgRVTiS/uXB33Ojh0Ash01RYmTm7TPQ9ekpVMIXmDOsmDOa8wgHaVc7fqk9/FPYSkxOsDtfOYdE7ZMhKdnFcTF1mCXfQQpgMGUkounW9OpY2hecfP7o2Krg5qvzJFBXoFTfCa/P2yhkeyRQrnLNFs+boxkNMTtzI/OM3tlUZIlmt7edo1HtPrcPhg+AqbE6dfJpTwnXfXgfwsGjXngwZUW4nja5BPC1orLI7ftRwrHg0tW0V+Fp2697QetgrZTfIz0W0lpgqQbyBRsNEFWjaGFFwmjVDqrnt9JmaZMyodbiWdnSRyQrEsuQq0zGszrgK2HMME8Q3WJN3jRuFAme69dEdWyeLQ0LIJCudnD/4T/J7qvgB6yrnJ+rJ6QL8ZaBCTYaMYNvbUIMrAkaHg4BmE9vR44hJRYEsPZUM66CGx1PuIlgqpeWKVEnofWJUazKlYS82xvTsDLVjmoCKp0W7DkiYJ2YZKVL2bWUbh9cXaVqxjVzVdOljVnmFYPtZVIkgL8PocI1tRo9lq8uqTJ0wEHcgPcemSpUljYmqSXebkIaAtPj++MnjpPL8AjLNAJ/nJ3o1XSul6AHrw8fe3M//Ne9tuzQ7yykU0H4hBiPKLW9Prk1GGR0OCkdkSE2dXgl3aEpWUime6NURiEptiurekS1j30XY/JVmnpnF6AfIDjo4zQ2896h88eC22tGkcKHCvYnt2PHEpEJljQ/yJt9sEBGHpwuZoqI6trmtanq6fPdjF+ePPyOmSs6nfv7JjYzffyFmjQNy7SM8NmypbzNkGJl6BSQY74kb/W/wBNkoHzXOLODa2hmNPOVymayUJy8tkeWXVR6I5ekZuSXxsbnFcbG5JbHKr7hYqKb1c1+8hEbHM6no9u0NUd06EJMVlV7cyOa10VydDQhM6GuR6ijH1YJd6Yrmsrc6g9bBe+LHjLyc9v03qpKIHQWvCrjKFBIJrqCISQ2OSGihBkeCYgG+IKeOFbCj07sfILUMHXtHem3aRiuai99vbx4YRExW1DgcdwR8G522UKoNQMKcDBlJ06P0trGAfMwr6T98uzduzIjK+ZIOZn4BlXMss4pfPCfDKofLtvI/DociU09KMZbKiExcXMiwDgrQctjazMuHmCrBnRPusYhZY0EkEh9c9L6TKYpe6aKErWNl9axMI3K4+taDh5IhK/9xuIY2I1/TtE2wncDPnwzroMDRvEFDtp81esKRYY0CTRMhWzDAfcmy+UEPnrzTMD7lNa+tO1s7zFugKqXLqdJOIENqPA7nbtG2PTJjiKmW/7zZQdaDhpAhZ2zMfPx4PBOddeSp6VQ+m6giU0oXkasOINrY2enDT6b6n7/ybsP4tLLOQA4L3qjsTKqwM3/1YZ4lZdciMRR4aKI7LTHV8orDoTLA16IrVW9kVUDHz94sIJCYdbDgJGjYiAwZqc4rHBpj1LceMmyQx7KVi+pHxs0NDAnt5frD/yCfxzXCWPkMh4giGRoFQVYDBpOhWl5xOC/Ljp3NTKyouuAw4WYRrFFpRG2EZoXLkFQvh8O5FFvFkV5bdiq3iWmI+qFdlq25lzf5Fo3ILo6OIsMy8mVJidr0RNA1AaJ+A2h2d684HE1nETa00R6sbTiaBant7gmMKTjABC6VEfDAFvGdBgnp+LWp7bjxAr61TpphoEYtsuDkKwnFEBUqLE3h3MMNEVB9OCquG9wompm84nD+ot6sIqRseFtoFuGsjdiaq6+Bgz5Mfol+GgNqCyTjcN7HSobzGAIeWNnMTUSW5Ft0Rkj26uWFsrT/5Oly2VZCYm9NZJsWf7xws//5mZXZj08EvF+f2YtWRjRvtDWmf+/jSa/Pg0wEOvPSCAqpwtuyC2sH4H8vt3Hb/16j5CxNI5QV4Gm0+IWHY11dnHrQYeb9Rqlqu7gg5WlFeDOdNpPQFsgXNLOdPLWJzfiJyJgn03oDbc52xA4biMtuMvUvIzw3bGlmN2kKMdUSWXD65M7YYaxNUgA0fBpYDx/RxmHe667CVtQtuJ7nHty/L2G82jvsf53LQ9imnbbOBiD26SvqpnHgpbZga+brR4aM5EiNo74QCbqQK0f4flbAjZD2jove1rezYXWH7uX22KEDVDkbQBoWGbLibtGmfeWqAyZw73k/e92atZEdgvfFjx+dX5KUSF5Si48IK5x6SfR/HczTskNHMtQaXF6SYR0MQNacDBnJKYmuModDAABbxrE+ew++UT88Fg05aML32gARIrSkPpo4b9ZfL/zcoXuprgIluzgqkgxZgQThWJ99hxA5JVNUoC3Y+qhO7VIlj1jlLXAXxxZ5/n+Hs9CdwzW0Hvla3X2cetjObyCnJJZzvqC2QF+lu8uX37wRFBY93ufg0QbWw0ZAtJW8rFMQwEAPitPJ7761KqJV0yUvfD0OJ8ycEpqzaQNNw/7sklcjl2x4WrTvgCRprmKueBAoV7pRNNXqXpadOpOhSshfzOO5W7ZjzXg+m/LR+3vjxr7GVjgI0SFvC3adjtqMrZkf+5aSs9ScZuADiPsyONii+i+iuzl/8bW2YXwm0iXPn2GruDm6d7c/wzyd8Hm6k7V8qSb3jZo0+Wxk+9porNbEpCa7ODLiWd6encRkxFmgvh9emcPZmfv6sWVHIxiC7ph4IsWJb7DqazSzmzCZDOtQgY2pO6u8N+6ayFAvIFCGXn8Lgp6E4b4MW0iuF9JsIAQfW3DpAh7W6EewOrJlE2wV48XXrmpbPykuzdCoq25Hp/c+bGY7kfPnM1Z85RIZMuIkVK+lUuZwNIIrGdLnzyqaAD7N3bW9bFINjW3HToBMAzHrqITI1JX1AF8gS+bcoYYGJAIjh/HNBpEJfd1++8NBoNvsIDhZVP6ZU2VnsTBvl62x/XvfylzyB1YJ8i06oag0K0vTZpGD3P9ZzfXOmGZFdWHxpTKHc6JwuFTpo39LRJ7l7tvDJpiJHnKoMyJmHZUQmdA4HPeWUMzweIFWAwZN9Dl6ckFQ6DPkMOrqYhrgg48uNGjg+HeYn/uOuKEDac9imoIVsqg0O4uYnMB94Rif3fstTBwdyRQrZhQBF1TbqPszyQpHUZMlffSQDLGUZ0QVnmPt4tLGYS61YnNtQ2TqrNbhEFCQyYs06rH9MpByQ4P7uUF3H03wPXwcLXSVbzvn4mImUPF8KvntRUvC/D23xwzogxbF+HyQl/WOpttKgKuZ4V7rN7OF8iugiSwDddFcssI1Zl/hKhVBPsndtYMMGUE1LE2TitoGksSFpnZqhYPEsjStJAchE9DB8Z33Xw96HokG9+jJRl7SGqy8UN1CZBHyAiFZK/9RlQliCKTyPLVNGtmA7kkHx7ffI6ZaPCzasuqHAhchczORcoczZ89ah0AmGZaB4AlbJxPQ3uGtd8mwDgIyGdhWGU23k1amrm69XL//aVH98Li+br/8bmPu6UVe0oryNmT79+6KGzl0aVigD1S3jKGSobi0QOuMpp6u3/3E1pEVqWy+Vn1YG2YCdUc0Pi7r2CoEZAppcb7s1Zw+aMeH5mxklRJraDN0ROVq3dqOcp/vRoaMFJamcFoxsN0Z5L50xaIGYTGdnT76lE16j5bM4ojwsykff7DkRYDn/viJYyPyTxxD4jB5ucqRlmq3wgGUlY3w3LJDnbKXj2W3HrQ6J/bmzEEovq2Zt9oSf5BfkhCnKoQbkrV8GVvmNcLMXZw//ZKYdSixMHFgPahLSnOpdChRmDnYY/nqBfUfh6FamqZpJht4T5EXuD12cP+V4c0a3sr8a3FRaWYmedmoKFboJmcXkdo+rv/7jZj/obXD3PlkyIqVias7Gf4HpcNRZDwwXMAily2s4MhBYjLSzGbcBCeK2q/agjmfXd1MIs9RG91D95ahHqvWLQx89CLYfvZcPKXJSxqDnEEoZ/0TXt8XSbjRBefOIBZIXjZKpHLtt5QVtHaYM9/fqs9/KmZslItSQ6thI4nJisjUg9nh8IeRMSM5JTGMKUa3M5ey6rBjlevu/MU3xKz1CE1sWdXNihjC6ZBkG+a5ZsMCpaO1tJ8xC8ni5CWNQY/u/fGTxi0Lr+8H5azKxwdjprhUl1UpfN4Q99XrkBBAJsrootyic/k5W5o5OOHMR8xX4FubebOm8OSXJCaQ4X9IEF+/htAwMRlpbDt6rKdlx07ErNUITNjlBKUqtpTI0p8fGPqshd20GdrmN+LeDL3YN0b36LwxqnsnjI3pbEYLjbw+YhCpkgcPiKkWpLQNcl+2qiLf0lXYslULjirkqLphqkzgi0wcWQ+CbPv3S2nffUWGauDz+rn+spj2zqMmI6DZUlZa4SDA08/ttz+1dTQUYt7K/PvPf8KbBGFVSxTfvEFeqpZUZD+p41zKR++h1AYK1mRKLahWnxV4PWSM9+790/wuXNNku25l6q5yW8kX8u3tyZgRcWmm2ovMqIIzp2LFV1hbDWOFU/5nJhCz1kJ1hqvUvKO8/ZLmF9a4ZjiX+smHy14EeZ9N+fC93CqoRNAHpYoS1hbBWSSlDHeHceJrVG2b3YTBwQ1tRrymaQU7rmfI8BX4Fib2DmTMSJGMPUJ1KfVrqp4Cfdx++b3yHrm2IaTYUhZXCgbQrIqqyJFGR6ER4rKwBv43M/78XduLYmNDTrHCVQB156OJc2eWlBa8IjSrD5hXOFP2Fa6oNIvV4ZD9jWbqxGQE1cM9Xb79gZi1EisT1W/Gy5QoxK/UXnEtnEyTPnlyKHHm1BWRzRqiEWJNbSVWWk/GusK9DBKoz6d9QbW11AZzvpXKVm98oQm7w0nkdL3JLqZ+9TmNAEsb+7kL2W72azI0yeIl8koOV0mXkQmI4KDGbG1E2xaPc7ZvrY6BEC6g1xwZUnM3a9VyRGaJqReY2hHzTeuZs76RpXK6p2OK5MH9UIpGdrgmGOK5egPth6gmgXMsTboVMnnIsAxTvlDtCpdcdPcu0q42RHdtj7Q7bJ/ISzUahQb3hPjZnEhatEAfcnkVMDocj8/eIVJ5MKXeJ19I/eoztqbnAMm0PVy++Z6YtYYujup7wVVQIi96ZYUz46neUkJrY2/8uFHro7q0Q9oVma41cJVLqADJ+HeylrHeIWsKEtTJ8BX4NJ34ZRz2/7hCuJj65afEVEt7p7fe87bsyqrlV1No5/jGW/Vt6DqtVD7DVVauglTBgYQpE9ZFtm/1Iu/QAWPPCNEXmjocuJz+/Tc5HJS/uMC8paTogUxz1/Eyodkb19PskXFBOMxz3aaaH7Xk8bo4f/J5X7ff/iQTasFFbeWzFzJ6sJqlSO7dO5w4a9qaqNbNn+bu2VVbto5M8HiaOxy27dfTf/mJmDqF0eGwqyRjRuT1uB288SE4mfTW6zR7ZDQ/H+KxYg0xaxyOgoaNpvieOofILK3upyodRkhcrI1s22JdZKc2j3K2banrp16ONiscyCoO49SFB2lvtzOXLSEmIyY8MyaHY0eT4AYCKNczf/mRmGqBFAMy3YlZI0BTC/TvnhN4J9TXqkcvMk0FT1E7t4eawKvH08rh/ES9epMhFahuf0pRfM1n2DnysX0hY0aYDuxsXE3/+cdkcUgIMdXS1+3XP12FLVoSs1rTwHrocKgUo1m+LrL462BGuZKwHomYrkaUztank9N7HxGTiiIZ+500UPqVSrVovpwiIMIWkmYCdySHk2ZPk8nFrNocSqcWjvLatQ+dMclUtQOlTlD3xReNlHkd2kOTEKAqyo574LE+uw9wrR9sZT9jNo4JxGSkRF5QQIavwJfJVXviy5hquMIBnD3OpX5G9RRBEeBIz83bq5tqMw7IqLKeF/jgKVY3Ml2HATDjWbLmOla+HEdDkvG+h0+a821UZoOoo7ndlGnQiCEmI8XMDlfMusLRyIOpAyIz5aFrdqAqVZ1Sv9wt2rSdGXA9BDoi+mjVVId6TCg+m/J6/+9wkPSf6HP8LHoNkCm9wOhwTEvfy2izwpWjUBxNmj+b9s6js9P7H9O2IaoqEEhC+9zpfpduuAqbq5W3rkN/mPMsWB9yCkX51QmyfCb4HTmlK70XdRTLC1U7XKGcPSvEjG+ptYIy6rsOxk+ZwCYgWw6fN9RjxVofy27dyYRRgTduTsDt+2gQr49GF9rcLdU2aM5w3Z2//g5R8AnKbSQEism0XmFc4SQUlQA0KlM04DL8bNonHxBTLTjMjvHZtd/BvD5rW15DgVA/pMGn+5274ihkPzirAulXyOQnpkpM69W+HFNNwXtChowguweKZoZyNlA5F7YCPk2tm7WZbrQNwZ3Mf/5+lLN1MzHVAsno8T6Hj6Okh0xVGVht5waGhKL5hSYNL/KKExPQ3A8JxlBBI9MqgX4GkyZGHa9iWk/b445+YFJd47NVcwMbMy+dORw4nrxoAbLbiakWRC4n+Z04A/1MMmVQkIQKQdWp/qcvQsCHTFODbJubmUv+WBXZojGa+2GupPTVPElV1MZKCk0wN7U22KrFhbySOJUPVX6hLJVVcFSXKxyAZv7e+PGjCkrS08iUWqDVPtH3yCn0xSZTBgF/70z/K7cgGa78UXGWN4BeyIbozm3PpXz0/st7+sqJyargWnBaWxHy7VjrOWmRlubkYruvbdkOBJqYWo3xabQtbEw8dOpwIK8kPm5v/OgRNJfiABoTykPvCXXquLqDx2vrsHDR7IDrIa4WLTlnvyh3DVnHk16ftym6V9fKPRkAlcPxBHUrHAVCvm4ijjjmLAkL8FwT0brZ2qh2LXEEIC9xJl+WnMiU3aJ0OPZQvbW5t84dDiCIcjhxznSaKnGAO5Sx3geO6PPpD3mz8b4Hjw5w/2upKd+S898DxeLVEa2aoCk7Uya/TC5hfchofxVTOxCa2mq9wqESQ/k5nFER6EDPhBuZv3LuklpBDsN2EvBzitlXOEtTJxemgjptgR4irQAR8LPq3nOM9659NHV8XKlvPXjonIB7D9FRhUxRgzrAgwnTJkGxmK2TTGX5BFVom2xQG0CCsLY97iB8eyblg3cr1xOGa1HMq9w1Mi5ifHxQiuV5atVrUVbC1p1fG65n/PYzslGIyQoaC4722rlXVysdHiZY0cb57DtsZYbONtyApMHqiOBmNC28AN2Wsi5owoaFiTbnN7kCcoGQdicTr4CjVoY07AUxOaEuCl12wZotjY4qs9TgoudM/tPJ7771OHcn1QcW1LcZMmyS71GtAylIMp7md+4Kzmx4ZpJpKnBWO5QwYwpEewpkqdT93JTnVoqgiWYJ47UJAV+z9x5BkSOJ82dBEJdMqSSmEL0VuJNbEq/e4dKKnzwus9Sgb4fDeeeI8jwXWXD6JJliBfIMU/zOXtb0ng5N5GcF3rjrYdmOs4JYWP7RwzhgP87dsY1MUVNZr0QVdWc4dhw0uKaBJuXe+DEjHuZsZk1ATiy6fYsMOZEpff5KL8WXKXO4DMlTCodr3oIM9QayunE5HC++eoVMsYI8xukBl65xyUhBNQKKQ8f77D/CNYlVKs8vQF7onrjRIzRtmsiU9vMyFqb0vadrI2hkMtp7x15iUoGm+FtjB/aOKDh5nEypJbko5A4ZckCuSJU8ZOxjUL7CSR8/KrPU4CZobpDiUAQUdsaOHJJQeP0amWIF28Lp/heuInOfTDGCKORknxNnUBzKdQuJy/r1kZ3aQLOFTGlEYWka6/2jyIT7WbI2YMYXiYZ7rtuEVl1coshQoN4U3bNLUtEd1sYzFWRKw8PY4huVyZHGRleWqX+ZModLl7BvKZHpYagUq2J5fv7OuBGDuTSawL9vst+pC6r6e1WA9Kw5gXfuc5U8wFMLMuHKN6xzVnE4Jw0MVSiftOwOZ+qqtul+bcRZ0KTprIBrt1GTRqaoQPBjU0zPrlnFEeFkihKFIrs4KpIYVEBahAxVUuZwOORJZFlqGwACtO4hQ70DDfwdccMHcVHIRYh4os/hExAlKm9zXN6pB11C+7j9uniS74lzVqZurDLjL4Nt4/bYoQPQCIOrehkTNNk9TO2Oaist7KZOn+F/9Tayf8gUFTiz7YobPljT7X+2NIY1oPgyKVIKh4MnJ0pCWA+I3iLDakhKS3Nzt8cM7hddePE8mWIFicWt7GfNWRD06Pn7jVNzPmickf9G/RdRHR3ffo9rKQ0y+9dEtm1Z3glUdyB/le2yv26FKwfVAGhAiSprTQp8r2cu/iWnmD0Kz0SujJtuZWoRlcOV5/2RISN+lj37kKHBQIBhd+yIIeF5x46QKWpQjqHJxSiElc6kvP/OrrjXhuGgTaZ1BtJ+lDsKtVUaIlOnWn+GQ5vqGQFXb6MBJZniiFxxP3vtamJohFTNeUwVVFtKkFDE7nDuFsGtaZp/6BroNO5NGD/6Ue52ziF4riCHbmtM/57l2oP6k6srLFW/rRSZuNXqFa653eSps/yv3YEkPpniTFZxZDhb1g8bUnluLhmygm0r29b1X4dLKgq5zbbNwXbN17JbD2IalDIFsIRZU29kLP6VTOkcbF3XR3doY4iuoAWyDLWBEwtTR+eKM2htAlFIRCCHe67fbGZipZXSAASsyFBjiuVi6l5ysYUXLpAhI/86HM5L6UXs1wN+Vr0Nvq38fxSK86mffXwy+e03UAJBJnWAXHE949f/7Ygd3L+QIoKoCwplKWqfvNCztKiC3URV4mnRvsPswNv3ccdGprQii2OEURVcCoGjCy6cJUNG/nU4ECNm/w2+lr2q0OHKuZu1cjnq6XTRybJIlp2zJ27syAupX35mSPlwMcsKB2pLpBIf6m7OX3w91e/8VUfzoPpkWmtydOBwpjxz6qT96MKzrMG1VxwuquDMaTJkxFnYqLGNjgtSNQGpVZtiendFXR2Z4kxqUWgoCkTxZ5Epg1EgS2YNU+u68NcYQRX9NP/zV7q7fPmNrgWZsosjtXY4bHHJUC2ZkhfP80rYa+hecbg48bUrJYoiVmHYhjYjR5FhlZIqCX2wPqpze03PXJLSnCxd3a1xJac4JpoMGXEwr6+zp73xweNBSWt24K37qHMkkzpFm+uACqxNPTzJUC1RYrqro1ccDtIHCYXXWfMYG1uPHU+GVQ6iUFti+veiFSZ6GWSczAkIedjMduJkMmUw0GuaDBnRREOlOgBJ+Ml+J85ASUvbejYmUBGQQ6FmwIZyl0HlcDEF51iPY+AVhwORBadYs/W9RR064YdGzCoHDeMPJ86ejoAKbfV4BRAFHeG1cetIry07DdnXILuE/XzhYKa784xxoFzV7OfOnxd09xEaaZBJSuSKe1mrV/75wsvlTtbypWSSkTxZYrwm/b8r40BxpoTWamzh5YvEVMt/HK5cWUrOcv/E5zW2HTOOGEYDrgx2xQ4fpMlldVPbcePnBt59GGDVtz+Z0iuICrO1ZrYX1ByHwwN6ku+xU4M8lq3kqumPuy0ktJ9IfnMh3luaLP7MYu2vBJDl4mhevyExGYktun4FqYjEVMt/HA6VrslF9+8Rk5EmNmOqZFuJi/f2jove7uf2+5+QQ68cto0qOHt6XVSH1pqc66zNPDwn+h45iTQiaGKSab2Rw7KttDP39a9ujU0qg38/3q+5Qfceq0ssZ+JZ3v69qyNaN1fuvE6QqXrOgqbNyJCRdAn7FRcbyB2m0SCl6RdXwX8cDihXuX1kyIi7RZs2hj5j4AcwL+j+435ui/9q7/jmOyM8N2yZGXDlVuXtLaJFm2P69qDpVPlf+Dwkyi4ICn2m77NdFksUDXdxxrR15wr6/c3wu3QD7xfXsxok69BaeX/8xLGQASHTZbgK2Iuh06TsFTBs+Il6sjZrRBrgC6I3SgODwx1gdThgyGADCkyVW5LTlUuE3IStW88KuH7HTRjcmkyVgf078iH3x08ax7WmCaDcB2e7Cb5HTuir11tOcTT7OU6H91KGAlux3q4//TLT/3qIJtX0sQWXLqyObNsCrZXJ1CvgwUuGjNCUnLERIBowiAwZic4/e6qoNCuLmKyodDjUfKVKHjBWrVYQ7DBnHlNrVV1SttXzO36aSX0Z8695bd+tSlQIqmBrIzsEa3p1EGjVf+D8wHuPOzl98LGulcJoIpWayAhUJRB4mhdw71Enp/c/4nqvhiupsykfvb8tdmBfpvtVK1NXN5GZ+oQARCi1TetCGZeXZbsOxGTkSd7unWRIhUqHA6E5mzeQISNYbRrbjBpDTL2AyOEE36On7Fi2VpBE97Lo2JmYr4Aiws0xfbpfSvv2K01UdZHT19v1x5/nKrez0EEh01pDU9xoX03u4rALGOOz58AE38PH7QT+AWSamqSi27c3RHZueytzyR9Mep6ARlsnuyQiDJFrYmpEsP3suWznN2Q6hXNMmmB0uCc5u7bT9P9u5/D6m2Soc3DLP97nwFHajHF1nVRQEnM1/afvN8f06qJp1TbSjsb7HDyKL11s9WgqkMsLaY0XSAx2df70i3mB9580tB4+kkxTgw8tdCE3RvfsnC59qrarEKDbTj7WajuJQFyw/Zx5xGQkvODYERp9mpdhdDhxaUZGRN5x1ho09Eqj0RLhCraqo7137sWfT6bUgkN2ovgW67YRmhbKLWZrbeqksMoh6oZzisDE1pZMcwYhbrZyDlfBq2dTYwLbR+XP4VEPl2++16Q4NCr/7OnVUW2aQ/mYNo/VQ9iuPRkykiy5T9UohokG1sNG4BhDTEYe5+7aTobUMDocCM3dxLqtBPpY5Qa4/7kU5ydisiBXnEx5dxEeEmRCLZC0Pp70xvwdsUMG0PRWUAUiiDinLKz/NAJhb03Pd2wFixCmtTHz9iGmUQCZAwSTsH3UJNkYUccjiXNm7IgbMoAmxe1lvETsD2AuQkGqaOv4xltkyEhucUI8rfrXy6h1uKiCM6do2gQ3sR0zXmSqO5Up7J+RkUBMVs6lfv7x45ztW4lJDe7sVkUENyt/wmpW7iMycXJC2HtB4MNnTWzHTeBaw8ZWkg/QBJ4MqxRL5f91oPuSf+YE3Amlfxi+ypPc3btWRbRq+jBnyyYyRQ2uSNg0afA+JhfdCyEmZxrajHjNl6Lz7v2cNas0qS5R63A499zNWsEqQY5upR0c332fmFqBRNYB7n+wpu5UgDq2mxl//EZMzmC1wxliU3SvLulSzff+CBS85rVlB9pb0dzfVMC2wgF3oe637FzA6o2WXQuCHoe3cVjwuiZZ/aik3x03avjBhKkTNK3CpjlepEuePuF6rqoAUe4+rr8uJiYjiG2EZm9YR0xOqHU48CB7w1qaurM29gsWIWRLTI3A02u0Dxp1CKlqkJBbhzo2YmoFVHbXRXZqczntu69pKiaYwL3TZL9T56b5n7tMkyZG53BVs8Lx6vH5uGudH/ToOZpSatKMHnmGtzL/WrwqsmWT8HzuujQv42VBsZ2UhGi8ncSZ3N7cz5+YjOCemou0/cuwOhya4T/M3caaiY9Dc2fnTzT+8OMpOspr515a7Uv0IUDlNzF1Akp1rqT/+N3qiOCm2tbIQYZ9ou+xUzMCLt8ov0pQvdXEGQZFsMRUiatlsMEdDh2E5gTcuo/Lf5oPoSpiCi+cWxPVruXZlI8/gNYomdYYT4v2rA6XWHRHI3lybJHbOSxYREw1QKP0D41lPlgdDtzJ+udv/EXEZKS1/ax5mqYioeLXW9RJ5T1aZSBbhz4E6u5rtAF1VJAy3xk7fLC2wq/YIuMaYXbg9RCcD7BqkJcICkWq5JHaJAOcE/WV7VIZbNum+J+9NN730DEXixYaydsjoIAMn20xA/vqQlcECPg2Nm4UVwJJGvQDwBUPHixKd2A9f4fnnTiKOkxicobK4TKlL54/zz18gJiMYCvY1fmzL4lJjYdFu/YdHd/7iJhqQXbGgYQpE3RResEGEmaROHs+9fNP0FOATGsEUtDGeO/ePy8o9CnueF5uR5XKIh4K9B04wf3WOO/9h2f4X7pOEzRQRalCIr2W/stP6GeODB8yrRN8RN168PnmarOa0M0IZzhiUoEkdTTgpE1Wv5bx849kqBFUDgeuZfzvB5pVrrntlOlcGmvggzfUY+1GmoM4ciL3xI0ZySV3TVuwzbyR8fsvqyJaNArN2bRBW/EiJ0GDhoM9/ln1Rv2IWDycEPlLpTnH6cnhIB8+ynvHnjmBN++hBRiZ5gxC5Ksj2jS/mPbV5xWdRHWJv6hPXzJkJL7w6iUuux5UnqB3PO3nFTsrTTvqVEDtcDjch+WzX4TDcXq5/PA/YrKCS1PopBCTERSWHkqYNZUmG0Ef5JckJR5NnDdrTWT7VlBkJtMag/u1Hi5ff/dG/bDYprbjJ5JpRtwEunU4fMiGe23YOico5GF5eh63xiYVYMuN7feu2BFDuGv30+NrxS5CHCu+RFUECpAyOMn32BlUvZApVq5quboBaocDSI2iWeUa2Y4cRZNziPNNB8c33yWmWq6m/fhtWP6RQ8SsMtKlTx7vihs5dEtMv57aPu0Agk3I2CAmI3bmAYFkqBXoszDUc/V6pGI1t500Gd1tyUucKChJTzuV/PYi3GPqW4QJgTQXip4CsYWXWHUhAR420wOu3OTibGihFld4+RIxNYbTDzu56G4IDo3EVMtA9yXL1OU2gr6uP/9OU+AXU3D54tV0bGmNB/zwN0Z174R6LU1b03JBaGJtQ4YagQ8ZmpzMD3r4vKXd9JmaKmQVlxaKcU5bGdGkPtpEG+IsXa6Fqn4FRppcGkVJDqKRM/0v3+SaIXMh9SudXD9xfrqdT/v8E5qMe0TV1AVQkK/mJerchZiMSOS5eUeT5szUV0RSOxSKsorkyFZNoamSJdVeB5GJlKIHrFX4qkCeK85o8+uHPkOTE6SkkZc4gS09zrCrIps3xDmNVlJAFwRa9WPNaokVX1GuPszS9EiyhkrABN9Dx4WmDpwEdp/nHtgXL752lZhawdnhMqTPnobmbqS6Ze/o8Pb7OJQT819Qdt/D9Vuq/fDZ5A/f0TTf0VAgxQeqYYjOHUtaMIcmHY4L+LDfylqith91ZfxFvftO9DtxBsW5OKNpunUEUflnTq2L7BCMMyyN9qIuQRJ7IEUhqLrtnrdll664loFKANtKWRlklWCRIabWaPQmIBuDpooaYdyBHstWVr70bWE7ZRpNyQ3OBniqEtPowfbqQfaGdSvDmzY4mfzW67p4UOA64mTSWwuR10qmGMEdH5wLTTAmKZ0tQOl05CWNSJHcu7c9dnD/HXFDB6ZJHj0k0wbFx7Jrd5oVSVya8R/hKJz90C11mv/Zy86CZqw6KKq4l7V6OU2hMC0aCdQg7MtXnr1ocgZtzXx8JPKsrCSSAYCL8ZFe23eZm6hXtEV61a7YEYOVWxfq7iXGgqJeaSnOuyFZK/7Bm+UgCKwvMnXhlNyNsp07mcv+PpI0Z0ZsofroG+q3EOkc5bVtVxvH+a9bm3lo1akWuxgoZJ1J+fBdXciFa0N7p7ff9bRgr7yGGviz3H17UHiKRPruLt98N8Jz/Zby0jHNmqKgSem+hIljZIqiIjKlNRr9QwASPecH3H9MW90bX3jjurg0LdXfqldfGpk0SN5BZ5KY1Rwer4H1kGGdnT78RH0CrlwRU3jpPHJEX+QfOcQWkEBoW3kum9vGfuEbtuZe3mRaY3AGvZLx/TdPcnZuN44zM4/3RoOwaLZq/wpw8Q0lNBdBs+Zc+n8zAbkHVKATUydo7HAAER/URRFTZ+AHtyK8SaC65uTVFXSIaWTz2mhPy/YdrUy9vOT1ZLL8kvg4rGJPc/fupkklQ6PCdo6L3m5mM2mqJoWflcFl/umUD965l712lSGijrS4CVsFzw68pVGwSFtSJY8erY/q1EbXPw+tHA6M8tq6q7HtWJ2KwmJl02cfuOoIzmflCbZvvh1g3bsf18O/OpLFISHro7twVtfSN8je7+T0PlXKny5BkGpzVK8uXPrL06K1yGi8+Pq1YPuZc0z5/58bqA04u6Hxoi73zdUZpH61dVy4aLjH+k341V6AC3DdNmq0MnVxRR6sCc/MHDWQxnBuRlX5QI+lK00pS7V0SUjmiqUPctavJaZO0ckb18Zh/sKB7n8vJ6ZWPMndsf1gwgyD6V0aK16WnTq3sZ+3sLHtqLG09YG6ApHRLMmL5xnFz5+mS589zS2Ji80vSUzIlyUm5pckJ2mriKUaHg/1lAiy+Vn17tvB4Z0PNKm/0xbI8yF7RhflRKrQ0ZOSx5voc+REgHW/AWRCY1DSgToqYtYqkMgN+fa2DvPfcBW2Yi1FqSoKS9JSC0qTkgtLszLQdL5EXlBQLC9UfhUU4NyN3YlMLv1PES+aGwpM7OzwZcG3tUPysMjE2cXK3MvLxsTNg60aQP/IFbtiXxuqiVYJLTrbmkDlaE5gyENLE0eNO9DgknHxMxdbNNEnU7UAHs/TskNHVFY3tR07wRA9DepQzd2sVStwf0pMvaDTswBEdKDrQUzOJBfdvbs+qnOV6ncYChszL+8WdtNmtLSdNkMT4dQ6dEu65PmzDdGd2pbIxWIypRd06nBghNem7c1sJ7CWm6jiUe72bYcTZk4hZo0DARBcCTSxGTve26prD23SrerQHdhZbYrq3pFGX0ZbdO5wKIWfFXj9Dm1R38vUxIAJzimQVmhiPWacr6hnH02z9NWBn9v1jMW/mPDMzLwtu3RT/j29fCw6d+OapFtbOZf6yYc3M/78nZh6RecOB1yEzVtM97t0g+ulLOrdUNFNzGoLom1B1kOGQvrbz6p3P00z9GmAtN+aiHYtK2eG4N4O7aJ8Rd17+lr27OVl2blbVUT9DEG+LDmpUJacAhkLMkUNiokh32eozBq9OBzA+WSY5xpOiceoafo7LMCrqhrdawM+3EHWg4c2sB4y3M2iTVtDbRchrAqtR2IyggoNV0GLlj6irt09LNq0cxW2aYMcz+q4rS0Xe71/L1Z8+QKk9xLEN67DYab6nbnoI+reg3wbK8hzXR/VuZ0hM5r05nBgiMfKta3sZ84mJhWnU957+04mVMKMG+Qx+op69EKv6kDrQYNp8/10DUL0S8ODfDW5GytTwrJo1RoPC1w0O5s3aeokaNTEmLeiqMVcH92xdVqlDqe4Upnmf/4qbRU3tFY3xvToVPnP0Td6dTgU/U3xPXmOptC0Aig/7Y+fPE7fZftcQfU6zkdKB+vtpzyLuVq0CjaW1QE1eCgLIqbWQJDX3jww0M7cP8Be+WVn5udvY+7rZ8V3cbEy9/Di2s1UlzzPPbh/X8L40cQsA86GVllc5Neh/PY0d88uYhoMvTocQLPEmX5XbnILfcsVd7PWrDyf+tlHmspWawvuFaH062HZsZO3RYdOrhbBbfR5FqsAGftP8nZsSxLfvqU8d3Xp5PzBJ2yOnSZ98mRNRJvm6iqedQkePtamHp7CsktsWzsh386ufGxjy6tnYqJ0SGuUDPF55uY4SyofomX3qkWl2dkoXZKW5uchkwMhePxZ3Zw+/8pR2LBR2R/OwtaY/r1f1i7RxNmuZ/z284XULz4lpkHRu8MBbFdm+F+8LjCx49TaCS2oHuXu3Poge92aVMnDUDKtU/DBgBwExECRhe9u0ba9l0Xnzrood6EF3WTwtH2Uu2NrohgJs//vOBD8gQYJMRmBaO3LjeerE6jIVm4HrxCTEQSIIMVHzLL+geN89h3Ctp5MsfI0d9fOAwnTJxnq4VQZgzgcgM7+OO+DxzQNi0PLHW2DE4puXEf/5nxZUmKhLC2tUJaexvTDw9PV0tTRycLEyQl3YBhbmbp72Jr7+zua1W/gKKzfwM7U178qUoqQpB2Rf/wIuv5EFpw+yRQowkNgftD9J2zVAUiHQ1ocMasV9a2HDBvns5/1CHEiadGCe9lrVmGMFRWfJ1q1bgDlrW0xg/vpJxeUDoM5HGhuN3nqUM81G3V59sEhuoQh0VRoamenyzIWbYGTRRecO/0i79CBF/mHDkhLc6my8lFzSLNlWhvZPlgbGe6qgcdD/wXUCZIJleBsv/i5uwO2oXh4TvQ7corLNUCm5MXzTTE9uxhSRFgVBv8wonljf/c/jT4KqSuwLQ4vOHk8LO/QfqxkmpxJaQt9w/OOHdkdP2o4MasFTWzHjn/NaytrY3o8WDfFdO8olmVkoBEkjinkJVYg4rs5plc3rs0f9UGVPP0hnwfVYWLWOBCqDys4fAgrWUzhxfPa3yvyeMpt5WOaDxkEanUhWGoIEMWeH/TwmabdeWjAUWRrTN+emQbQDqWhyrZbfdx+XdzR8e33iFmtwVYxXnzjakzB2TPoqloe4NHtoRzVBOUdXtSTJL5zZ0N0N+X2rGqCAlxAk0f0nSOmzkEixdaY/r2qSh5fFVV4vuHx+rr9/Bt+6GSiWgHNi5jCc6eVDnYmTnz1skyu3wp1ZIpgNaBRDD6QMHXi09zdrNu0qgTXRQsDH77Q1yU7dHG2xwzqY2xn2ioPKPR0+faHLs6ffE5MowRdPFOkD+4niG/fSBBfvwYVXsjYkZcNBm26XI40OmplZIvGxpwi95rX5h1NbMezpqRpAla2HbHDBqZI7leJAJE6qtzhABwOjkfMKgf3YgmFt8quIBLEN64lS+6G6LtOigbcGaK/HM0qdznt+2+upP/wLTGNCiR147KamDoFzSB3xA3uj56GZMqoMAqHA5Ch7uP2y2JDpkth5UovfvEcwqfp0scPMyTPnqZJHz/KLo6OMtYzEOrpRnvv3EtMRvB/w1nOEDVeXEAO6ryg+4+RPkamdEZmcUT4jphB/aDBQqaMDqNxONDYZvTYYV7rNpvxLLRWAMO9TX5xcqJEkZ2DX/NLk5IKSpKTcGGu/DU5pyQ2Bv3MjEmHkQ4eb5rfhas0F744Z26I6tKuKi96KwPp8eZ2U6YRU2ekSh48wDayUJaWSqaMEqNyOIA0n7E+ew5qo+2B89WaiDYtxKUZGWSqRgFFr+n+56/SXOqjtRS63RCzStGkZIsG1LQhUKQvpS1dYnS1UAhIbIru2QUHfzLFmQJZckpNdTaA+q+HOds2E1Mt6J2OhxgxqwwPi7btBnr8vYKYOuN25tK/dsePHlEdnA1oLQSrDxC0eJK7c7urRXBrlIeQaWqsTN3d8fvii25cM4Zghz5IUP7fWtlPn8XW9JLPM+HXtx487Hn+gX2S0pxsMm1Q0Fxjku+pc5amulMkQ+bJqZR33riW/r8fq8OdYwVG6XCgRCEWw+lMeQKBt2XHLji7kJeoQFFlsN2MOSWKwoLksvBw9XlTaMCDRFyamYHGlmSKEWTVB1j16fc4d8c2Q5/nUD4z1nf/YVdh8xZkSmuQybMnYczI53n7WYNHxobROlw5CkV04fmz6dKnj4Os+w9CKhB5gQp0+AmyHjQYsgdpyj8jryQ+nrxUI8ClLmr2yuXP1YOLZjdBcOunebt3Gkq/A+/XWJ+9B/1FaBmsG5Dxvz12UD9Ek8lUtcLIHa6cDOnzZ2H5Rw76WHTpJjJzdSXT1FiZurm1sp82E1XMaNBQVUWt+iC28ML5ZvZTppuzbC0BHNPezD8grADV9Ppd8eFsY7x37QuyHjiYTGmJXHEz46/FhxNnTauOPQMrqBYOBxAECc3ZvAHbIy/Ldh25bjHx/dhmtraft9BCeZZIk4SGorEkebHaonx45EMMB1n3ZEotUFRzMm/QCBIWqL4m0zoF58pRXtt317cZPJRMaUVBSXraocTpk0Oyli8z1OqsL6qNwwF8QNB6N6Ho5nV/qz59zflWrI0dK2PCNzfzsuzYqbX9/NctTR0ckGhc3R0PWRV4iNB0CgXOwqZNvUXdekTkHz+KszKZ1gnQI53oe+y0j6hrNzKlFZBO3BU3bHCK5IHRpWlpgtHdw9GCIsSBHn8vx2U5mdKI4tJC8f2cNStuZCz+zdgvTdWB5vOTfY+f4SITh+b/hxNmTMFVDJnSCgjeosBYyLe1IVMaI5Hn5p1N/vCd6tTjnYZq63AVIEo3wG3JMhtzTy8ypREyubjoad7eXXezVq9IKrpzm0xXK8oEmwKu3+Ei2QeNx1tZ/yy5mv7jd7QV6JURmbq49nH9+bfmdhOn0FzGs4HuNSeT3nzdmFO0NKXaOxyAvmJP1+9/au0wd6EucjHREfSuctVDiUt1u8dzFDRsNM3v3GU4H5miAuek21l//XEve81KWseDwnQ7x0VvtXVYsIimbzsbUFA+k/ze28+qYbiflhrhcBUg5WmA+5/L3ITBwWRKKySyrOyHuds2heZsXG9owVBtcLdo03aS34lzmmztsMWOLDx5DIrGSUUhd7KLoyIr8k1NeObmOKN5W3buEmQ1aEiAVf9BuuiVgFU2JGvVP5fSvvlSKs/LI9M1khrlcABKXS3sp81AuY8uM9IzpGEvnuft24PLVn1J9ukSpHON99l/lKs0oSrw4MGvAhMbGx7PVKeBtuiCc2fQTKM6/Ex1QY1zuArM+VZWnZ0+/KSD41vvmfItLci0TsgqDg97lrtvD7Y+xqyS5SZsFTze5+hJKzNnFzJlNKCS4ULqZx9BWIlM1QpqrMNVYGPm7dPV+dMvWtpOnaEP/UmkGcWJL12KFV+5GFN48YKxFT46Cho0nO53+aaxdM5BZPRa+k/fh+Zs3qhQ6Oce0Jip8Q5XAdSVuzp/8nkL2ynT9Sn8itIgpeNdjBdfu5xa9OA+BGyqOrNllPf23dpen2hLdnFM9I2MX//3MGfLpurYHUlX1BqHq8DO3M+/i9PHnzW3mzTVhCfklJupCfJ6pfIcaWx0uvTRQ+T/pUuUX0onzC2JjzPEhTu2lRN9j57iGrXUFciCuaZ0tEc527ZUv2Jf3VPrHK4ClIy0tp+/sI3yS2Tmwjk/UxcUy/Pyc4uTEgpLk5PySxITK6rRZYpiqUwhkUAJDKsBHFNeTyZDGpeAj4YZfL7AxLbsV0h+l0u6O7uITF1crEzc3C2V/x+RqaurjYmbh5mJlYj8dQYluvDi+ZDMZX8j2lnd07F0Sa11uAqQZNvMdsKkdo6vv+UqbNWKTNehAUgeeJy7c9udrOVL0ySPHpLpOl6i1jvcyzgLmjRF/4MW9jNmi0ycnMh0HSwkF929+zh3+5ZHOTu2oniYTNehgjqHUwGKJhvajBzVwnbqdF9Rj976aIRf3ckrTkxAbR1yHaF6RqbrYKHO4ViArBt6dze2Hj02wLp3P0MEWoyVvJL4uBd5hw8+y9u3p6KvNnmpDkrqHI4DCFQgpSnIasAgP6s+fZFLSF6qkUA3JLnozq2owrOnIwpOHEsuuneXvFSHhtQ5nMbweC7CZs3RaNLfsk9fD1H7TrooS6lKcIWB6vr4wquXowvOno4RX7qgaQVBHaqpczgdgdA82kl5Wnbo6GXRoZO7ZbsOzuYNG+k691CXIEsmRXr/HtocQ3oiUbma1TmYfqlzOD2CKwe0DIYjugibNsOv6CVua+rta6j7MUie58qSEnKL42KzS8LCUPWAi/d0yZNHNVm701ipc7gqAsrSNmZe3rZm3j7WZp6eQhM7ewRohHw7e6Gpg4MZ38rKvJ7QwoQvKJN95/NMTAQ8WxuJIidXoZDL5YqSYqlCXKj0KLlYnpEpKc3OREgeHUKLSrMy80oSE3JLYmNxmV4bcxaNk3r1/g/r7dWMm6I1CAAAAABJRU5ErkJggg==;" vertex="1" parent="1">
          <mxGeometry x="147" y="604.1999999999999" width="42.58" height="41.61" as="geometry" />
        </mxCell>
        <mxCell id="3UcTS02MajumEh321Bra-5" value="Celestia" style="text;html=1;align=center;verticalAlign=middle;resizable=0;points=[];autosize=1;strokeColor=none;fillColor=none;fontSize=27;fontStyle=1" vertex="1" parent="1">
          <mxGeometry x="181" y="600" width="130" height="50" as="geometry" />
        </mxCell>
        <mxCell id="3UcTS02MajumEh321Bra-7" value="" style="shape=image;verticalLabelPosition=bottom;labelBackgroundColor=default;verticalAlign=top;aspect=fixed;imageAspect=0;image=data:image/png,iVBORw0KGgoAAAANSUhEUgAAAfQAAAI8CAMAAAAwW6n8AAABvFBMVEVMaXEaDG0aC20aC20qDGQaDG0aC20aC2waC20aDGwaC2wZDG0aC20aC20bC20ZDGwZDGwZDGwZC20aDG0bDG0ZC2wZC20aDGwaDG0aDG0aDG0aDGwaC20aDG0aC20QAHsZC20ZC20fDGoaDGwaDG0aC20YDGwaDGwbDG0bDG0aC20ZDGwZDGwaDG0ZDGwaC20aC2waC20bC20aDGwZDGwaC20aC20ZDGwaC20aC20ZC2wZDGwaC20aC2wZC2waC2waDGwZC20ZC2waDG0ZDGwZC2waDG0bC20aC2wZDGwbC20qC2QaDGwaC2waDGwgDGkaC20bC20aDGwQAHoaC20aC2waDGwbC20aC2waDG0WDG4ZC2waDG0bDG0aDG0aC2wZC20aC20aC2wbC2wZC20ZDGwbDG0aC20bDG0aC20bDG0bDG0aC20aCWwuIW0aC2waDGwVCm4qGWwaDG0aDGwaDGwaC20aC2waC20aC20aDG0aC2waC20aC2wZC20ZC20aC2wbC20dC2sbC20aC2wbDGwaDGwaC2waDGwaDGwaC20ZDG0aDG0ZDG0ZDGwaC20aDGwZC20aC2wZC2zuFtIAAAAAjHRSTlMA/gL+Avx8/PrL/v77RlkD/LhpAjP++gPDuAEkBPuVAtX8CNb2OwP+Aih5/rn9/QP7AVb8AnMjJn74Afs9Ais6/f4EtNID0Qz9tFgCBMjMBZRbwQJly/la39ACm/geBEbSep065QYreCpJUzQRAQEF+gIBt8P7BUFHPMY0Y5VnlfYoDB2XKvPU4wVy/U4GomUAAAAJcEhZcwAAFiUAABYlAUlSJPAAAAsSSURBVHic7dzllpzXEYXhb44iy5GcWHZSSZzYYTazHWZmZmZmZobdao36hnMFXb3WnO6dmq73uYJpvWvX+ZZ/eFEhl1ZPfcqyJy944fUXqYST1cVnLs+Y/0XPXm6//qy9/EWLCiF6hug7sfTtWPrBcd5TnPcM530nzvt2nPeD47ynOO8ZzvtOnPftOO8Hx3lPcd4znPedOO/bcd4PjvOe4rxnOO87cd6347wfHOc9xXnPcN534rxvx3k/OM57ivOe4bzvxHnfjvN+cJz3FOc9w3nfifO+Hef94DjvKc57hvO+E+d9O877wXHeU5z3DOd9J877dpz3g+O8pzjvGc77Tpz37TjvB8d5T3HeM5z3nTjv23HeD47znuK8ZzjvO3Het+O8HxznPcV5z3Ded+K8b8d5PzjOe4rznuG878R5347zfnCc9xTnPcN534nzvh3n/eA47ynOe4bzvhPnfTvO+8Fx3lOc9wznfSfO+3ac94PjvKc47xnO+06c9+047wfHeU9x3jOc950479tx3g+O857ivGc47ztx3rfjvB8c5z3Fec9w3nfivG/HeT84znuK857hvO/Eee943r90/cmbZz2wuXJ5+ldx3m3RP/q1a/NWJzdWRD8/0ZePPfHNV8/58qNf2Zyw9PMUfR++eoPzfq6iv3za15dvr+++MP2reNN90eeN5Ys3rhC9W/SnrTnvRD8LznuKpWf4L3IOg/NuwNIzLN1hsHSWfkZ8yKU47xnOu8PgvBuw9AxLdxgsnaWfER9yKc57hvPuMDjvBiw9w9IdBktn6WfEh1yK857hvDsMzrsBS8+wdIfB0ln6GfEhl+K8ZzjvDoPzbsDSMyzdYbB0ln5GfMilOO8ZzrvD4LwbsPQMS3cYLJ2lnxEfcinOe4bz7jA47wYsPcPSHQZLZ+lnxIdcivOe4bw7DM67AUvPsHSHwdJZ+hnxIZfivGc47w6D827A0jMs3WGwdJZ+RnzIpTjvGc67w+C8G7D0DEt3GCydpZ8RH3IpznuG8+4wOO8GLD3D0h0GS2fpZ8SHXIrznuG8OwzOuwFLz7B0h8HSWfoZ8SGX4rxnOO8Og/NuwNIzLP0cLf3C6uJ3ly+8ctb493L79Scv7cOiQo526d/Yzx/0h9Xpah+Iboh+73c+/61Xzfrz3//6n3/98yX7QPSDR7+iK5976bw//WP9t+UvL94Hoh88ukLXNpvpm3z6380flx8ve6FCjvRN15tPTk5eMevyj9a/X364n1+mQo4z+p5cuGv9/OXO/fwyFUL0BNEtBks3YOkJls7Sp6gQlp5g6RaDN92ApSdYOkufokJYeoKlWwzedAOWnmDpLH2KCmHpCZZuMXjTDVh6gqWz9CkqhKUnWLrF4E03YOkJls7Sp6gQlp5g6RaDN92ApSdYOkufokJYeoKlWwzedAOWnmDpLH2KCmHpCZZuMXjTDVh6gqWz9CkqhKUnWLrF4E03YOkJls7Sp6gQlp5g6RaDN92ApSdYOkufokJYeoKlWwzedAOWnmDpLH2KCmHpCZZuMXjTDVh6gqWz9CkqhKUnWLrF4E1n6f9fLJ2lT1EhvOkJlm4xeNMNWHqCpbP0KSqEpSdYusXgTTdg6QmWztKnqBCWnmDpFoM33YClJ1g6S5+iQlh6gqVbDN50A5aeYOksfYoKYekJlm4xeNMNWHqCpbP0KSqEpSdYusXgTTdg6QmWztKnqBCWnmDpFoM33YClJ1g6S5+iQlh6gqVbDN50A5aeYOksfYoKYekJlm4xeNMNWHqCpbP0KSqEpSdYusXgTTdg6QmWztKnqBCWnmDpFoM33YClJ1g6S5+iQlh6gqVbDN50A5aeYOksfYoKYekJlm4xeNMNWHqCpbP0KSqEpSdYusXgTTdg6QmWztKnqBCWnmDpFoM33YClJ1g6S5+iQlh6gqVbDN50A5aeYOksfYoKYekJlm4xeNMNWHqCpbP0KSqEpSdYusXgTTdg6QmWztKnqBCWnmDpFoM33YClJ1g6S5+iQlh6gqVbDN50A5aeYOksfYoKYekJlm4xeNMNWHqCpbP0KTrKpb9mvH5M+8Xyq/XPL5bxifWHljv388+jQoqd92X55eZ0c1rE5nTz2eUt+/ldOsrob3jdG1827de//d1vfvacMj7y6UeX+/fzz6OjjH7b+oEL0265ccfykx8sR0hHGf2e9X2raVdPb1uOk4506a+dX/pdN366fH85RjrS6Ffn/5yLN+5YjpMKIbqJCiG6iQohuokKIbqJCiG6iQohuokKIbqJCiG6iQohuokKIbqJCiG6iQohuokKIbqJCiG6iQohuokKIbqJCiG6iQohuokKIbqJCiG6iQohuokKIbqJCiG6iQohuokKIbqJCiG6iQohuokKIbqJCiG6iQohuokKIbqJCiG6iQohuokKIbqJCiG6iQohuokKITrRJ/B/l0qpEJZuokKIbqJCiG6iQohuokKIbqJCiG6iQohuokKIbqJCiG6iQohuokKIbqJCiG6iQohuokKIbqJCiG6iQohuokKIbqJCiG6iQohuokKIbqJCiG6iQohuokKIbqJCiG6iQohuokKIbqJCiG6iQohuokKIbqJCiG6iQohuokKIbqJCiG6iQohuokKIbqJCiG6iQohuokKIbqJCiG6iQohuokKIbqJCiG6iQohuokKIbqJCiG6iQohuokKIbqJCiG6iQohuokKIbqJCiG6iQohuokKIbqJCiG6iQohuokKIbqJCiG6iQohuokKIbqJCiG6iQohuokKIbqJCiG6iQohuokKIbqJCiG6iQohuokKIbqJCiG6iQohuokKIbqJCiG6iQohuokKIbqJCiG6iQohuokKIbqJCiG6iQohuokKIbqJCiG6iQohuokKIbqJCiG6iQohuokKIbqJCiG6iQohuokKIbqJCiG6iQohuokKIbqJCiG6iQohuokKIbqJCiG6iQohuokIurT7+3v38qtvWV+f/nIdP71iOkwp5+PQDH/zM+26ddv9yzz6iX13fs7z91kKOMvql1fv39KvevY/oFzdvXY6TCnnX6lMffs/T9+Cht52+af7PuXfzjoeeXsgn33mM0VeXV9f2Y333ev7P2ZxsrpXy+PLI8UW/vLp8y37ct757/s852dx7SyE3X3hsefD4oiMRJ3re8lyitxJE7yeI3k8QvZ8gej9B9H6C6P0E0fsJovcTRO8niN5PEL2fIHo/QfR+guj9BNH7CaL3E0TvJ4jeTxC9nyB6P0H0foLo/QTR+wmi9xNE7yeI3k8QvZ8gej9B9H6C6P0E0fsJovcTRO8niN5PEL2fIHo/QfR+guj9BNH7CaL3E0TvJ4jeTxC9nyB6P0H0foLo/QTR+wmi9xNE7yeI3k8QvZ8gej9B9H6C6P0E0fsJovcTRO8niN5PEL2fIHo/QfR+guj9BNH7CaL3E0TvJ4jeTxC9nyB6P0H0foLo/QTR+wmi9xNE7yeI3k8QvZ8gej9B9H6C6P0E0fsJovcTRO8niN5PEL2fIHo/QfR+guj9BNH7CaL3E0TvJ4jeD9EbCpbeTxC9nyB6P0H0foLo/QTR+wmi9xNE7yeI3k8QvZ8gej9B9H6C6P0E0fsJovcTRO8niN5PEL2fIHo/QfR+guj9BNH7CaL3E0TvJ4jeTxC9nyB6P0H0foLo/QTR+wmi9xNE7yeI3k8QvZ8gej9B9H6C6P0E0fsJovcTRO8niN5PEL2fIHo/QfR+guj9xB6j34zz4sJjy4P7iX4N58bjyyP7iX4TbjonnvjefpIv/wMCg8IJcNkeXQAAAABJRU5ErkJggg==;" vertex="1" parent="1">
          <mxGeometry x="313" y="605.5500000000001" width="34" height="38.9" as="geometry" />
        </mxCell>
        <mxCell id="3UcTS02MajumEh321Bra-9" value="EigenLayer" style="text;html=1;align=center;verticalAlign=middle;resizable=0;points=[];autosize=1;strokeColor=none;fillColor=none;fontSize=27;fontStyle=1" vertex="1" parent="1">
          <mxGeometry x="347" y="600" width="170" height="50" as="geometry" />
        </mxCell>
        <mxCell id="3UcTS02MajumEh321Bra-10" value="" style="shape=image;verticalLabelPosition=bottom;labelBackgroundColor=default;verticalAlign=top;aspect=fixed;imageAspect=0;image=data:image/png,iVBORw0KGgoAAAANSUhEUgAAAIQAAACCCAYAAACHHWC6AAAAAXNSR0IArs4c6QAAAARnQU1BAACxjwv8YQUAAAAJcEhZcwAAITgAACE4AUWWMWAAABB6SURBVHhe7Z1LVBRXGselq3kjT4GGgDYQ8cmIJ2aic07GkNk4q+hyVuIuWUmWs1J3szOuZmlczWSlWWVmMWOcl8lJZoQgGjXyEALNq9sGGmigydS/uEWqb1dVV1ffqrq36N85OX1vQQCr/vV93/3uvd/dV6BAgQKGFJFPXxMMFteWllaES8vKw5LclqTiWlwLBoM1klRSS74tjWRydYJ8jqe2Nl9vbW29Xk3EB7fktvINPsVXgsBDrqis6a2orO6trKw5VVG1v7e0pDwcLNZ/6HbY2tx4vbq6PJhcT4wnEstDq4mlwaX4wpfky8IjvCCqaw68V13TcF7+772Kiv29LB9+LizFF7+MLkY+X5Y/E7IlIZeFQ0hBwArUN4Q+aGx6o7+0rDJMLnMDrAcEEpkevyWaOIQRBNzBgab2fggB1oBc5h6IY2ryxQ0IJLm+Ok4ucwv3goAQQq2dV0Mt4QGv3AELEHvEopF7EAfPwuBWEH4Rgh7zs68+5VUY3AnCz0KgmXr1/PrUq2c3SJcLuBIERgxdh39xm8dA0SnUGGN+dvJTcslTuBBEaVlFuOtw722RgkXW8OJGPBcE3ENb++HrfncPVoC1ePniuyteJrok8uk6iBXe7H7rTy1vdA4EJKmMXN7TBIMltY3N7f14T+Vh6gNy2VU8EQRihaMnfvnF/ur6s+RSAQ07Wdea3pWV119jHoVcdgXXXQZcRLjzxCekW8AEuJAnj7/qczOucFUQ4c6TN0OtHQOkW8ACbovCFUEgXjjWc+5+ZWVNL7lUIAeQ5Xz6+GFfIrHk+LyI44LAkPL4ybP391JuwQncEoWjgiiIgS1uiMIxQWCK+sixt+4WxMAWiGJ46J+nnYopHBEExADLUEg2OYOTgSZzQRTcRO5sbW6+TqU20vINWOsZLC42fKGw8Obp8MM+1ms8mQqiIAZz8OCxUGZpafHBRnJ1HLGA2VuO0VlJaUW4rKw8jGTV/poD5ysrq3dHapj/ePli6ArpMoGZIApi0EcRQHzhwc7nYt5zFLjPEEdbe/c1tCdGRz6emR5lluhjIohCniEdWILIzOit+bmpT51MKEEYoZbOq5GZsVusJsSYCKKQgdwBFgALXnK1BHjTlU/ZPeDz570g1uID/P+shJe3INoOdl9rO3jkOunuSawKAZZU3TdSXd1wvhL7RkxcLIaY6h6QWHT2c/x8pzcK5SWI+obQxe5jb98l3T0H3sqXLwavmAkBIqiT71NjU/tlFvtGoguRewvzk3eii5F75BJTbAtiLweRiBF+nHx2Y2Z6zDCYwxR/fUPzBwca2/qdyMfAajix9M62IHpO//rRXgwi8YaO/jB4xch0Qwhwo24tB2SdpLIliL0YN8AqQAhGptptIdCwWsGd84opuIojx952xH/xCmKEke/+dc5oUgmx1NET73yhjha8AELEzvZ4bP6v5JItcrYQp8+8P7aX4oaJ0ccfm8UKKqfP/Ea+L94JQiXflHZOFgImsb6h5SLp+hr45CfyjcX2O3LJlFRqKw5LQbqeUVJSFqqpa7wQXZj+bHt7e51ctoxlCwH14y0gXV8DF/H86TeXcn3LzrxzIWY2IeUm+Dc8Gf5PH+laxrKF6Hqz93Z5RdVR0vUtkenRWy+e/e93dt6ugBQoR3BJup6CF9hOTBEgn6Zgr0D9Ae/NodPIkfqN8dER2yn4iIVYw01aWjsHcnVjlgTR1n74Gmn6EgwpkXGUh215DaXhYsyyll7Q+eap28iWkm5WsgoC1sHPowqI4cnjh32sMn4oK0SaXIAs6aGO4zdJNytZBeFn66CKAdXlyKW8sToqcZPG5oP9VmMbU0FgmOlX64Bh5fDQP06zFAPAz0U6mXS5Ac+SNE0xFURjU1s/afoKJccgWwZW+X+apaWYJxt1zUAm00osYSgIv8YOqptwSgwgscJn5bmQPOogTUMMBeHH2MENMQDWbogVoZbw1WxWQlcQfrUOmK1042Ghui1pcgVGHPuzzMbqC6Kp/TJp+gZMUjm1yogG+QhYI9LlipbWzqukqUuGIJDy9GpO3ymQgbQyY8kSeuMNL2QLLjME4bfYAXMT+WYg7ZBMrnM39FTBGk/SzCBDEH6yDggesZKIdF0lmVxTjlfgEbOQIE0QEINfgkk112B3oYifUVZ/G7iNNEE0NrX5JpjEZJXTw0szUlt8xhAAow3sDyHdNDIsBGkKDYJIr2cdcQIPaXKJ0bPeFYRf3AWE4EUQKRry8z5PmmnsCoKH9YD5AhcBV0G6BUxAHEGaaewKQvYpp0hTWKYmn3Nz5AAPK7DNQByht9FKEQQiTtHjBxTP4KWivChUVP1cfERFEQR2Iys9QVHyDZMvuDp3QgoEa0iTW7TVaFQUQfCyUtguPLkKFV6W45tRWlqe4daIIPQjThHg1VVgCTxpcovsGTLixh2XUSGuy+DNVajgAFnS5BakGeiMZQAXRDBveiABxZurACLdU9qSBUQNKCGECMPqayxRa0WJAP38ZUGIWfQDgSSvE1c4dJ40uUfXZZC2MMA68JxzEOklo61ZQA4ohctQwjqQJpeIdE+DwSBlIQQLKHm3DqC0XJwYQpJK0hJoARHGy1p4tw5wwXoZQF4JBqU60lQIBCVJGEGIYB1EG7VJQcpCiLQGIjI9dos0uUX0aQAlUykKUQ53VtOINg2QkZgin9yDOQses5I0oi0joEMGYQQRmR53xV3A5GP1mJ0FLqKvKQFCCAIFQ1F/kXQdAaOD4z2/un+859x9FHRHxb3uo2/f3TmL2xoQkQhWzAwp1ML/YeyTE09/7/QG2o6unj/SNThRdQ/WAnUyMJTcSK5PbG4mI+TLGeBvROArfw5t/7SdFKEW+GpieXB+bvIO6e4rEqEy7aNv/9bh9Jtn9T6oVeixujvb36Tuk8VOKV7dCV3PknuX4UYwmUv5A3xf1+He23ApcDFmLgV/N/ImuOEQNd5E3l1KgOdNqSAanXW8qpvd8gd463fE8f5Y1+FTt81yEBDCy+eD/RAGBKI10zwhVdce6OM11YojhkYZH0NIA7Me7jyR17qKYLCktrKqphfWYqcuV1ERYg2cm0W+JY1kcm08thi5h3hjbW3lGQJar5btL8WjX8aiP5dSlGpklVftrztL+lyxuPDjn3HWFOk6Qrjj+E08TNLNG4ijtq7pAqrIKhajaF+RUUCM8sn4GqzF/NzUnSJZScXFpSE3lyTg96cJorikLMTrri1MZK2vrXxPuszBW9nVfdqxuRH8fNzbUEvHAEYsqVQqjhP3yJfTgDV5HZv/C6yGHOg9gJDcGKVADNp9sJL8e/c1txz6kPS5wQ13wdo6GIFhvdalwIqgfkQ2lwJhIE5x0mLIv+fzleXYV6SLoJLPqHd5SX5LHARvLyq8kq5rYJTSdrD7unaUYvTAlSGhw1Xz1qnnH8C6RB4rr8qjC0cnsngonaSOUs6cvRAzGqVADErhE4eKmKWosgVKHoLHyqtav8Yar6yDGfh7kDbfSZCljzggCpRUJF2m0B5CEQRvlVdxA5w0kzhvlDS5Ay6l59S7j+hUAEoqOvGS0PdZEcSyg2+jHVgdbK5HLllJr8BW/e5jZ+7SsYV8X5hacr1QYcdCJOKDPBXadCo7CVMsStlFiLaxKT0tztpC6GWpd+cyYjHnU8RWMUrk5AvEwLt10FJdU58WZGI4SppMWE3Eh0hzl11BYBKJND3FqfhByQFwFkhmg14Ay5rkeqbAdgWBt5IHt6Gn2nwRyVWYoVfPIR/0TireFQTyETy4jURimbm7wKhCJFehQr8crLcI6p0MsCsIwIPbYL1ULtx58qaIYgBxKoisrma3ohtTA3qbpdMEgSjWa7exoePX7IJzpkKtHbbP4fQaOh1QWaVfStAOq6v6ljhNECAyM+rpZhhWFgKzjG0HjwhbwFR5OTVvMOIglpbOKFbLFMT02CdeWQm9IMcO8LU4wJR0hQSzkKSpwHpNJu2OVDIEAVV6ZSWMpoNzAWJAEIlsH7kkJHQSqq4u9AFpMsEo15MhCDA/N+VJcJnvkNMvYkAehnadLC2EWa5HVxD4Zi8WgeZTQR4xgx/EALRL2gD+bSzreJi9eLqCAF6cRGN3sU6otfMqdlv5QQyAPh+srr6ZqbvAwlrSzMBQELASU6+euVqcQy+VagZmA7GwJN9V0zyB2IE253X16TvK8sVsksxQEMDLEUc2sLqop/fdR6LNT2SDdtXKEjuG7gJiMxvamwoCI44fOSvhA6uA7CNWF4magTRCid2oCjmsz1DNFribCgLMTI9+wio/kA2zGAJCaDt45FrvW++PiZx9NINeGIRkFOv8Q7a1qlkFAXAqLmm6jlYIWK3sl8BRD7putxMztGbxA7AkCPwQHIhKuq6B+gxYkex3IQB6UzOsA+v4CJaeDlhpLAkCYBjqtOsISunBE8vJHN6hrYMTR2bS6XA9LAsCAebzp99ccnLUQRfA2kqluBzhsIau6q9YB2XTMFuwG4w0DbEsCIA/2slRh0SV2U2umZs3P6CMLObokUXbZdYjKPweKzPJOQkCYNThVDxBLztPbW/FSdO30MdDwTpgczDpMoNOhxuRsyDA+OjIgBPxBF2ZXXuj/IhiHai8A4aZqRT7U4HnZ61NWNoSBEA8wfqByYI4RJoKvG5EZgX2bJLmLkoJIvk6pg1Y3V/8HKsLj2wLAr+E9c5k+hzJbGNmkTE7HgrXMapD+SEWh9qj5gRpZsW2IIAqClYjj9KSsgyXwetcSj5EFyL3rJ5PDouRrzByKQmdlyAAS1Eg+URXTVlddSdt7ha4XxPjIzlnfu0Kw8wS6SGRz7zY3ExGFhenP6uvD12kRwq5sr628kxb0UQKFtehZhPpCg1empHhf5+z+6YDLH2DC0AFGuwQN7vfmHKYnvrhD6RrCSaCAFgPiQJh+YoiEJDKtFPAEBsKeJGu0IyNDn/EKi7SCgP3W5KKa1G6CDu6F+am7oz+MPyRPNTMuehKEflkBsbRx09iatpemT1sIBn87987tEvQUXqH9ayf28B0W40bvISZhVCBpYBCA4FAuZ1yh1D55kZyVus2UJGN10p5VhBFDIC5IADqL6LEntwsMqvuagTtNjaSa+NNzYc+5L1Iux4iiQE4IggV+EsU5Mw1roC7WYpHH6iJKQjsp5+2k6IFlxgR8Hr6sBGOCgLYdSEQhdZKwIXA2tiNTdxEGYoPP+yLx+ZgJYXCcUEA1YXIkfEQRGHFWtBWAiTk/5/HIqtaYBWff//tJScr8DqJK4JQWZNvEkmjWootaCuBIWhqayvOo+tAjgEHvYy9HP6IxZZEr3BVECpqbCFbijqzes4QBASgHXGQtq1g1Snw7/n+yde/JYG00HgiCKAkshYj97IJo6qq9uzi4sxn2reOJHc8FwViBcz6YiQhslXQ4pkgVLIJA0PN+vrmiwhMEYuQy56KAkKYGBv5WJlXYFwZzmuYZyrzBW4CWcm29u5r2hEF5vOfypG7NoMJ8L2oF639XqeACLFaDFVlySXfwZ0gtOBhYytbdXXDeTxwI1Hgay2tHQPY9EsuMQPB4sL85B2nSgvzBteC0AJxIH1dUlJxCNPHejOGEAb2cKgCIpdzBiKIRWdlN/bqjlKu0SfxQXb27fs/0RzRUEGj9hEAAAAASUVORK5CYII=;" vertex="1" parent="1">
          <mxGeometry x="517" y="603" width="42" height="41.36" as="geometry" />
        </mxCell>
        <mxCell id="3UcTS02MajumEh321Bra-11" value="Avail" style="text;html=1;align=center;verticalAlign=middle;resizable=0;points=[];autosize=1;strokeColor=none;fillColor=none;fontSize=27;fontStyle=1" vertex="1" parent="1">
          <mxGeometry x="559" y="600.13" width="90" height="50" as="geometry" />
        </mxCell>
        <mxCell id="3UcTS02MajumEh321Bra-12" value="&amp;amp; Others" style="text;html=1;align=center;verticalAlign=middle;resizable=0;points=[];autosize=1;strokeColor=none;fillColor=none;fontSize=27;fontStyle=1" vertex="1" parent="1">
          <mxGeometry x="682" y="600" width="140" height="50" as="geometry" />
        </mxCell>
        <mxCell id="3UcTS02MajumEh321Bra-13" value="DA" style="text;html=1;align=center;verticalAlign=middle;resizable=0;points=[];autosize=1;strokeColor=none;fillColor=none;fontSize=27;fontStyle=1" vertex="1" parent="1">
          <mxGeometry x="40" y="605.55" width="60" height="50" as="geometry" />
        </mxCell>
        <mxCell id="3UcTS02MajumEh321Bra-15" value="" style="shape=image;verticalLabelPosition=bottom;labelBackgroundColor=default;verticalAlign=top;aspect=fixed;imageAspect=0;image=data:image/png,iVBORw0KGgoAAAANSUhEUgAAAFAAAABQCAMAAAC5zwKfAAABs1BMVEVHcEwAAAAAAAAAAAAAAAAAAAAAAAAAAAAAAAAAAAAAAAAAAAAAAAAAAAAAAAAAAAAAAAAAAAAAAAAAAAAAAAAAAAAAAAAAAAAAAAAAAAAAAAAAAAAAAAAAAAAAAAAAAAAAAAAAAAAAAAAAAAAAAAAAAAAAAAAAAAAAAAAAAAAAAAAAAAAAAAAAAAAAAAAAAAAAAAAAAAAAAAAAAAAAAAAAAAAAAAAAAAAAAAAAAAAAAAAAAAAAAAAAAAAAAAAAAAAAAAAAAAAAAAAAAAAAAAAAAAAAAAAAAAAAAAAAAAAAAAAAAAAAAAAAAAAAAAAAAAAAAAAAAAAAAAAAAAAAAAAAAAAAAAAAAAAAAAAAAAAAAAAAAAAAAAAAAAAAAAAAAAAAAAAAAAAAAAAAAAAAAAAAAAAAAAAAAAAAAAAAAAAAAAAAAAAAAAAAAAAAAAAAAAAAAAAAAAAAAAAAAAAAAAAAAAAAAAAAAAAAAAAAAAAAAAAAAAAAAAAAAAAAAAAAAAAAAAAAAAAAAAAAAAAAAAAAAAAAAAAAAAAAAAAAAAAAAAAAAAAAAAAAAAAAAAAAAAAAAACFrUzHAAAAkHRSTlMABKsVy2V0V4OE1LIHHYccf8lzsNEBggUI5gvV/qX9WNzHM2Tx++1B9KFWGAaL4hHMtK/FlPicpx787JvSFG2a40p1omnusdnnKiDE2/YaEvlEVN2ss0a+ScE1NJ1cJ3YjIhN5eyj12omkDS4Kn/OVwGsQXfDGjxk7NyExbpiMZ4W3RRap0J7ltb1fJQ8+36pry34PAAADUklEQVR42q3ZZ1siMRAA4KyLwqGgVEHsvbdTz957b6fXe++933m9l/nJ9yAgy0x2kyzOx9nlfQJJZjMsY8IINfQEa0vL633eanYYMbFUDsnoDZzKmis5A8YYKMrS048CirLirDwHkMjRDtfLRuR79kUzz65o7tkTrTw7orWnLoo8VVHsqYkynoqodwJsfS6arsk1i4fv87/Ji3oQundKRHd1NC9Bt5Sou9t3SPL5i5drJPlz5biEqMd2O3BuZGwGIBpuxflfy12aeHy7pD55golZmI3gKy1bojHqwb+/iedOzWt+Ab62sG79O+qd0IBzhe70SqHitOVc6w74Zz4+rqh9sRDj6/mPpccR98zXY9yLtZp/X77oeWIm7u+3r9bj44lPTXZhYv/6BePjiHf5+zpZD86KxkdFL7dSpOpLs4SHxDCv9hzUK6fo+1LRxalm6frnlBgfEl20PhrqqVNmfJmii1TcEsP5xSk1vgwxDcJUItMHBBR7adEAQl48cQIIWOiWeaYkRSPYeI6x0EkCeqS8lGgEYYyxhlIMynoA+REMDvazHkCgPgzSEdAQCDVsGINNoBDnMVjGahG42KgCzkUQ2MlKEfhRxYOVCwisZOUI3FACr11E4HVWj0BPrQoYa0VgFfPhSXmrAo7iSRlK1kcD+Mgn7x0LYbCCVffihS13mNsvL8V4YbdfYixAtp6smChXGaCXMXa6jhQHpQOnEYy2xDNFtHypHIld9ONltMAqHNoNYKpVLc6hjwD5tiINHkmfeHLoQ0q68XFRzyA61VuzMMdLi83qzWOY5x2Ij9Xb2xtcLyVOqjfgTXwvKU6p/0XgM/ES4lxEJGJv8Z6ZlxA3BG0fOQiOmnv7YsC6kSReQczCY0zbhgkrkR5U/ZYeY9rs/CdzkXrVdV5Ba6Z1+Ugjqlcl6zPxXo23CZtH7btjFedutUUH6ir9IZx/3f5Oor3Vuuo3aXd8e+EOufHNehuTCS0APzbXRHet1gTBy+RC2waIfnh22Z9nEv4r9x/MgGB+ebXHOuQ9OVHFkxHVPLGo6olEdc9atONZifY8c9GuZyba9/hiNh5jGmkysv2rnU1mtBnzFdm/XLjaN5jixr0th/K+oj/3pqNyuWqoYkTi5v9LoZw3jLl/rwAAAABJRU5ErkJggg==;" vertex="1" parent="1">
          <mxGeometry x="180" y="445.71" width="40" height="40" as="geometry" />
        </mxCell>
        <mxCell id="3UcTS02MajumEh321Bra-16" value="Saga" style="text;html=1;align=center;verticalAlign=middle;resizable=0;points=[];autosize=1;strokeColor=none;fillColor=none;fontSize=27;fontStyle=1" vertex="1" parent="1">
          <mxGeometry x="211.42000000000002" y="440.71" width="90" height="50" as="geometry" />
        </mxCell>
        <mxCell id="3UcTS02MajumEh321Bra-17" value="" style="shape=image;verticalLabelPosition=bottom;labelBackgroundColor=default;verticalAlign=top;aspect=fixed;imageAspect=0;image=data:image/png,iVBORw0KGgoAAAANSUhEUgAAAs0AAAIACAYAAAB5OVHrAAAAAXNSR0IArs4c6QAAAARnQU1BAACxjwv8YQUAAAAJcEhZcwAALEoAACxKAXd6dE0AAC9JSURBVHhe7d3Zk1znfd9hggRAYtOAOymSEldwkUiAlGVL1C7KWihukix5iw2wkou4YltOtNkuyRYJp8op2zHtJGVLtgWkkj9AVc5tUsPklqlUcpPKUomV2OWbXKTiLfEFkfd09+w/zHL6fbvf95znmfqMPeMyBt0YnvPtg+7BoWsAYOROHr/h9Geeed/PzT5s2r//T/9t9T/85/++OvsQyMRoBmDUusH8a1/6W6v3333n2dmnmvbP/8W/euWf/eG//ObsQyCTa2f/EwBGZ2iDGSjHaAZglDYG8x1pMF9JnxlSQG5GMwCjs3UwT3XPVxxCQBlGMwCj0g3mX0+D+YE0mBczNqMrwSUDSjCaARiN6WD+m6v33337Ap+SAQyB0QzAKGwM5o2nZADsl9EMwOBNB/PLC77CvMyA3IxmAAbvp77w7GtD+bFym5+HfbWA/IxmAAbtKxc+e/nj7z13PhqXZbtSpPjK8uaAEoxmAAbrKxc+kwbz2fPxuCwdMCRGMwCDNB3M59JgBpif0QzA4HzlwktLvMJcQ0BuRjMAgzIdzK4wA3kZzQAMxlfTYP7EUl70t7n4BXyLCijDaAZgELrBXMdTMoAhMpoBaN7GYAYow2gGoGlfvfBCGsxPjPhFf1FAbkYzAM2aDmYv+gPKM5oBaNLX0mBe/ov+Nhe/MG/xASUYzQA0pxvM9f0cZmDIjGYAmrIxmAEWx2gGoBmfePrsBS/6209AbkYzAE3oBvNXzz9/afYhwEIZzQBUr+7BHF3pnb/4RX57B5RhNANQtU8+/cSFr51/7lI0EOso+kka8wfUxWgGoFrdYPaUDKAGRjMAVZoO5ufSYN751AXtFZCb0QxAdTYGM0AdjGYAqtLOYI6u8NYQUILRDEA1pi/6+3TFL/rbXPwCvhoC8jOaAajC2mCefQhQFaMZgKX75NOPp8H8rBf9ZQvIzWgGYKmmg9kVZqBuRjMAS2MwbxddNT5oQAlGMwBLsfaUjPhFdmMtfmHfQQLKMJoBWLgH77nt3M984ZnXjDygFUYzAAvVDebf+tKPrJ44dnQlfnqB5g/IzWgGYGE2BvMNaTADtMNoBmAhDObdRFeL+waUYDQDUNx0MP9wGszXe0rGtnK9AHBzQH5GMwBFdYP5t9NgPnnshpVo4I09oA1GMwDFTAfzF1xhXnhAbkYzAEVsDGbPYQbaZzQDkJ3BvF/RVeJ5A0owmgHIajqYP+8pGfsKaIXRDEA2D6XB/I/SYPaiv+UFlGE0A5DFQ/fceu63v/RDrjBXEZCb0QzA3KaDuXtKhucwA8NkNAMwF4O5j+jqcK6AEoxmAHo7efz60z9/4eOXPSXjoAGtMZoB6KUbzL/1pR9afeju287OPrWr6EVrKhOQn9EMwIF1g7l70d+Zu289e+iaK2mo7V18xVVlAnIzmgE4kLXB/FAazLNPAQye0QzAvhnM84quCucOKMFoBmBfNgbzLWkwR2NNewe0ymgGYE9bB/OwRS+saymgDKMZgF11g/kff+lzq2fuvnnfL/prufgKcWsBuRnNAFzV2mB+cARXmAF2YzQDEDKYc4quBpcKKMFoBmCH6WD+bBrMN3vRX5aA1hnNAGyxMZhdYQZYYzQDsK4bzP/kSy+tPjSSF/0NNSA/oxmAibXB/KB/uARgB6MZgImf+8IHXjOYc9v+3OZFBJRgNANwzdcvPHP5U+99+Hw8wtQ/YCiMZoCRmw7mR9JgBuBqjGaAEfv6y89cfvbpR84fOnTNNfm6oiXmCjeUYTQDjNRkMBd5SgbA8BjNACO0MZhpT/RAZXNACUYzwMh8/eWPpsF8xov+mg1YBqMZYESmg9kVZoCDMpoBRqL8YI6uitZb9C/pDSUgP6MZYAS+8fJHLn/6vWfORwMrX9c0FcBBGM0AA9cNZk/JGIKdV8vjgBKMZoABmw5mL/obRsAyGc0AA7UxmAGYl9EMMECLHczRVVEtNyA3oxlgYD799JkLn37vQ4Vf9Le5+IV2Wk5AGUYzwIB0g/kbFz58afYhgxBdSd4toASjGWAgpoP5Q2kwR0NK7QbUwGgGGICNwQxACUYzQOOWN5ijq6KqIyA3oxmgYdPB/MFdn5IRv3gvR/EL0bT8gPyMZoBGPZcG8y+lwRyNps3RqvhB0N4BJRjNAA167umHLnzjwge86G/QATUxmgEaMx3M3VMyAFgUoxmgIXUM5uiqqOoKyM1oBmhEPU/JaEv0PO8hB5RhNAM0oBvMv5QGczSStHvtiR6oHCSgBKMZoHLTwfx+L/obTUCNjGaAim0MZgCWyWgGqNSZe24693d/+N2vzT6sRHRlVPUF5GY0A1SoG8y/8+VPrJ46dnQlHkXLipKi52T3CcjPaAaoTDeYfzcN5rccu34lGkQaatGDlD4BJRjNABWZDuaPV3iFWeUDamY0A1RiYzBfnwYzADUxmgEqUP9gjq6Mqt6A3IxmgCVr4ykZAONmNAMs0dbBPJ/4xWWqvytZA8owmgGWpBvM306D+S3HjqxE4+egxVeIVX9AC4xmgCVYG8wn02CefQqAihnNAAtmMHeiK67KF5Cb0QywQGfuuTEN5h9Mg/lwxS/6W0QAbTGaARZkOpg9JSN+MZxyBuRnNAMswMNpMP/el39w9dSxw1le9Ndy8ZVn5QsowWgGKOzU8aOnf/nl91z2oj+AdhnNAAV1g/lbX35m9eG7bzo7+9TIRVdGlT8gN6MZoJCNwXxjGszRsBljAG0ymgEK2DqYYavoxXt58sAESjGaATLrBvO302B+5O7TZ7e/CE7qiq/C5wgoxWgGyGhtMD+cBvPsUwAMgNEMkInBvJvoqqjKBeRmNANkMB3MH02DecWL/sIA2mY0A8xpYzC7wsyyeIACpRnNAHM4dfxIGswfWegV5uiFZRp7W3+KBpCf0QzQUzeYf//LH539lIyto6VkACye0QzQw9pgPuMpGXuIr5ardEBuRjPAAU0H84fTYPaiv70DGAajGeAANgazf+mPGnigAotiNAMcwFd++Nxr06dkRGNFm4tfsKa8ec47LIrRDLBPF19+9+UX3nvv+WioaGcAQ2I0A+xDN5ifT4N59iF7iq8+a1EBuRnNAHuYDua3p8EcjRPFAQyL0Qywi43BDDWJHqisBZRgNANcxcWX35UG89tcYVbv4hfv5Sh+HvlaQH5GM0CgG8xe9Kd5A4bDaAbYZm0wzz7kwOKrrlpkQG5GM8Am08HsRX/zBTA8RjPAzMZghlpFD1K2B5RgNAMk08HsRX+qPWBZjGZg9DYGcz/RC8CkZQWUYTQDo/YraTC/mAZzND72G2uiK6NaTkBuRjMwWr/y8lOXX3jvPZ6SkS2A4TKagVF68em3XZjnKRm0Lhr9QwkowWgGRqcbzBcvPHkpHhwH6IraLf4jHURAEUYzMCqTwXw+DeZobBw0GhX9YQ4tIDejGRiNF5++Jw3mc/NfYdZiCq8Q5yj+coMKyM5oBkbhxfemwfyTma4wazEVE32xIQWUYDQDgzcZzK4waz2AgzOagUHbGMwZRTtMjZTeDb3JDQVyM5qBwZo+JePspXBYzNPOJaZmAujHaAYGaX0w055o62YpvRtF6bYC2RnNwOC8+J67L1z8iSfyX2HWYtq5djMF0J/RDAzKZDC7wswO0YgeckBuRjMwGNPB/ES5n5IRXRVVI8V/pIMMKMJoBgZh4ykZ6YNS0bDoD3SoASUYzUDzXnzPXWkwP+7nMCtubFeau4DsjGagaY/c/ZZzX/vsY6+Fw0HqCj859IDcjGagWd1g/s7Pfv/qyePXrcTDQeoCmJ/RDDRpYzAfToO5YdHGG2XpnfIEFGE0A8155O5T577zM+9ePXnsupVwNLRUvCBHGEDdjGagKdPBPIArzGwSjegMRQ9SxhKQndEMNOORu9Jg/umBXGHWptIfbokAMjKagSZMBnP3lAxXmAcmWruaL6AEoxmo3nQwf9+wfkpGeMV1jMV3j+YIKMJoBqq2PpiPHV4JB0KrMRPdOZo/IDejGajWdDC/a/oc5nAYqP0KiL7M2AKyM5qBKq0P5hsGdoVZm0rvShR/sREFlGA0A9WZDuYn02B2hXnYAbTDaAaqsjGYj/gpGQcRbdKqS+9UpskdDORmNAPVeOSuk+e+89PnVk9e3z0lY9sQ0O7tXKVVF39WOQLKMJqBKpw6dvj0qz/22OUTNxxZiYaAhlT82aqLHqhUW/otA9kZzcDSdYP5D/7OudWH7zxxNh4BGlbpD721gNEzmoGlWh/Mbz11dvYpqhGtR7URkJvRDCzNdDCfTYP5ZBrM0YlfexZeyc1V/CVVeUARRjOwFJPB/FNpMN956mx44tf+Kib6YmojoASjGVi49cF8lyvM9cZEdNe0EJCd0Qws1GQw/+3ZUzKik70qKL3TtPgOaiAgN6MZWJj1wXzXCVeYqw6A7YxmYCG2DmbmFm3dLKV3ajugCKMZKG46mJ9Yffitx/0c5lzFizdDAESMZqCojcHsCnMboiGtbEUPgEoEZGc0A8VMB/Pj0yvM0YA4aNE4UObiu16ZApplNANFrA/myT+NnT6RIwqL7nS1F1CC0QxkNx3M70iDOdMVZi2m4FNqMKAIoxnI7qvP3/vaw3f4OcxtFX5SzQbkZjQDWV38woOXX3jXbefjE7nqjaKiu7xkQHZGM5DNxmDOLBoFylh6p7LFd3yhgBKMZiCLi59Pg/mpW8+Hg2HewmGgfAGwF6MZmNtkML8rDWYKiwZvhqIHKmq3yZ8rkJvRDMzl4ucfuPzCU7eUucKsbaU7vEQA7MloBnqbDmZXmBcjWruqvvDBT+nSlwayM5qBXtavMG8fCTkLB8FYi+8iVR4wGEYzcGAXP5cG85PdUzLSByVjJrpzpN0CcjOagQO5+Ln7L7/wrpv9HOaF1pjoJmhxAUUYzcC+TQbz5EV/6QMtqPSuteIbooUFlGA0A/ty8XP3pcHsCvPig22ib5PtAdkZzcCepoO5e9Ff46JxUX3pnbS5+BtlW0BuRjOwq8lgfvLmYfwc5nBc1B4ANTCagat68albLkwGM0sSjeiKix6oaPEBRRjNQOjFJ2++8Opn3n4pPClrQaU/iJYCGDCjGdhhMpg/e++l2YcsRbRKNerCB1ZXCcjOaAa2mA7mt6fB3J14B1I0KqovvikaccBSGc3Auo2nZKQPhlRzohsh7TegBKMZmHjxyZvSYH7bsK4wN1tjopug5QUUYTQD08H80gCvMBctvdO0+A7SUgNyM5ph5KaD2RXmgwfAmFw3+5/ACG0MZg5scoUV6vPGH/3F62/80Z+vzj4EMnGlGUbqxXNpML94j5/D3DcARsVohhGaDOaX0mCmp240q1jRgxTtv8n9CORmNMPIvHjuxguvvni3K8xzle5IlQugQkYzjMh0MLvCPJ9o5Uk1BZRgNMNIrF9hDk+y2nfBp6TqArIzmmEEHr7jhnNf/cQdr4UnVx2g8JNShQG5Gc0wcN1g/s75e1dPXn/dSnxy1f6jqOgu18EDivBzmmHAJoP5J7vBfDgNZuZnkVC/N773l6+/8b2/8HOaITNXmmGgNgazK8z5AmCsXGmGAdo6mMli8nxmqN8b3/uL19/43l+60gyZudIMA/Pw7Wkw/0QazEevXdn6s4U1VwCMmtEMAzIZzJMrzGkwk1E3mtVk0QOgoQcUYTTDQEwH89vTYD6U7znM0Ql5lMV3jxqoOdGN6BOQm9EMAzB9SkYazJOnZKRP5Kop0Q2QWguoldEMjZsO5rflvcLcZI2JboJGXnqXpfRrAdkZzdCwyWD+G2kw577C3GTpXUvFN0KjDqiZ0QyNevj269NgvscV5vVgk+hbpOrSu1xNfkEgNz+nGRo0HczdUzIK/ZSM5s65RgJty/kd/Mb/+KvXU35OM2TmSjM0ZjKYf/ye1ZNHD5X7OczTS19NNH2L/i9SK8Wf7R9QgivN0JBTN1x7+rUfuuu7d64cefvsU7Q2EmwaCnOlGcpwpRka0Q3mP/ixu1bP3Hr0bHh1eLSlO6elYIfoG2XegNyMZmjA+mC+7Yazs08xEY0FjbrwgVXtxTeld0ARRjNUbmMwX58Gc3SGzFh4Qq+5+GZoxDUnuhHzBpRgNEPFTl2fBvOPdE/JSIM5OjfmrjnRjZBaCmiF0QyVmgzmH02D+faj5a8wNxsT0V2jBkrvSgVk56dnQIXWrzBPBjMxwwAib/zP//t6yk/PgMxcaYbKTAfzW9NgPuIK867BAkRXcWsPKMKVZqjIxmAeyBVmJ3BYOFeaoQxXmqES08F85+qZ244M5+cwQ9O67+FWA3JzpRkqsDGYh/QcZifu4tzFBFxphjJcaYYlmw7m21fP3DqgK8yT0o1T2SgsutNbCCjBaIYl2hjM3T9cMjTRyVxqpJYf+AFFGM2wJNPBfFsazAP8OcyuNKv1wk+2FJCb0QxL8tWP3PjamVsW9C/9Lbrwk1JLAWxlNMMSXPzkzZeff8eJ8/HJeghRVHSXK2PpXdOl2wBk56dnwIJNBvNj3WAeKmdsWKY3/vj/vZ7y0zMgM1eaYYEufvKmNJiPD/gKcxe0LPqezlR4VbhAk68H5OZKMyzIdDAP+Qpzp9DJ2gaAfXOlGcpwpRkW4OIn0mB+9Pj58KrQoEo3tkSwMNE3YGsBJRjNUNhkME+ekjEG0Qlc1Rc+ABpr8V3UXEB2RjMUdPHjN15+/tFjI7jCvFa60WovZqI7p9WA3IxmKGQymEdzhbkTnbilliok+lIlA4rwQkAo4OLHT49sMBdiALCDb4q9vPEnf/36G3/8114ICJm50gyZTQbz5EV/6YPqSu9aKr4RGnUAy2E0Q0bTwXys4p/DDJtE3yJVl95pfwHZeXoGZHLxY2uDuVZOpDAGk6dn/ImnZ0BurjRDBl/54Ftee/6xGyq+wtwFAPRlNMOcXnj02IUfP3f8i7MPYeQOqYqA3IxmmEM3mF/9wZVLsw8ziE5+GnVXWiv9trXcgCKMZuhpMpg/dvpSPBz6ln5haXMAVMFohh7WBzMAMApGMxyQwUz7DmnQASUYzXAALzx6PA3mG9Ngjk5UUisBcFBGM+zTdDC7wkzjoudNa3gB2RnNsA/rgzk6OUktBUAvRjPsYTKYn5kNZtgieuqDVENAbkYz7GI6mD2HWVcLgLEwmuEqNgYzADB2RjMEDGYGZ/tzm9VIhw4eUITRDNuEgzk8man+gkEx1sKnl6j+gFoYzbDJR+4/9tKrH71p5z+NHZ7MVH+UFD5O0dIDyjCaYebhW46cu/jM6cuzD4uLTnZSSwGMidEMSTeYf/8zt6yeOHrdSjQOSgQsWvS3EUMNyM1oZvTWBvPJNJhnnyIUnZg12rY/hamJ0m99LAHZGc2M2nQw35oG8+E0mNNJdVGFJ/TaS791aS2AkTGaGa3JYH4pDeYj162Eo6BkAEBTjGZGaX0we0oG9HBIVQeUYDQzOssfzNFJTmopgPExmhmVh285mgbzbYt/DvOWgB2ipzGpX0ARRjOjMR3MA31KRnTilFoKoHJGM6MwGcwvLulFf4sItoj+hkPjCsjNaGbw1gfzvq8wRycgqaUAyM1oZtCmg/mgz2EGANjKaGawNgazHysHoxQ9lWksAdkZzQzSW08dvtdgnkN0Eh5th9Rq4d8kjSGgBKOZwTl1/bWnf/OTt3735JHDK+GJVHsXnojHGgAYzQxMN5h//4XbV8/cfP3Z2acAAOZmNDMYBjPQpuhvOOYNyM1oZhAM5jGLBoNUoOipTFlKv3zOgCKMZpo3Hcx3psF8QxrM6QSkOgvHQo7SLy8tImDUjGaadupoGszPpcF809Gz4UlO9QQADTOaadZkMD+fBvMtaTADTBwSUITRTJMM5hKik6/UWgBlGM00ZzqY35oGc/eiv+ikqX4BCxU9jSlXQHZGM03ZGMyuMI9eNBSklgKaYjTTjOmL/tJgvtmL/pSisOhvI9ROQG5GM01YH8zNXGGOTmJSSwGwmdFM9aaD+a7GnsMMAAyJ0Uz1poPZc5gBduWpS1CU0UzVXv3wbZcNZhZi8/Olm+iQtKUr16wFlHDd7H9CdV790G2Xnz9z6vzsw8zSSUbaVDc2os/XG8T+7Z/+1eup1dmHQCauNFOlVz50++Xnzrzl/MaVk9xdI20JAHZjNFOdbjCXu8IMMET+JgJKM5qpisHMcmwfHFJrAaUZzVRjOpjfkgZzdEKQSlZA9BwQaVEB2RnNVGFjMM9EJwGppQAYFKOZpZsM5ofSYDY4gMGK/oajVEAJRjNLtT6YYVfRMJBaCmid0czSvPKhO9JgXvEcZu0jAFguo5mlmA5mV5gZoM1PM5KWEVCE0czC7TqYoxOA1FIUFv1NhHYG5GY0s1CvfCAN5ge3vehvcxQWnVyllgJYDqOZhfnye2597fkznsO83ACAPoxmFuKFh1Yu/Ng7bvri7EMAgKYYzRTXDeZvfvCOS7MPgYOKnsqUpUMaZOnPFsjOaKaopQ/mHSMhZ9HJSipQ+FSbHAGwX0YzxUwG8wfuvBSOgEUVDoVcAQBj4cxPEeuDeQD+8L/873/6h//1/1yefQhQtZ/9vlt/9Z23HvuB2YdLZmZQn6e+8x97fWP6bia7IQ3mzrf+3f96JfXN2YcAVfv2s29f/b47jn9o9uEwdU+Rg56eutRvNHt6BlnVNZi7/yZyBdCIN1M7XoMxsGAJjGaymQ7mt6bBHI3OZQQA1CM6Vy+jfoxmspgM5venwRxdEWg9gKZEI0GqobYZzcxtfTADAAyU0cxcXnjodBrMd1X0lIwSATBo0d8yarj1ZDTT23Qwu8IMUJ1oKOjqMRNdOBpi/RjN9GIwA9QsGgrSXrEbo5kD+8jbTr30zfcN9EV/VwsAGDWjmQN5+KYbzr3yvrsux49QhxwAMGZGM/vWDebf+8S9qyevv25l9ikAYJsrVw6p4voymtkXgxmgHdFQ0OJimIxm9mQwAwBjZzSzq24wf/vj966eOHp4JXo0PYYAAIxmrmptMJ+8/rArzAAsydoLsqVc9WM0EzKYAVrVndqjodBqTEQ/DlX96sloZgeDeY2DNtCgaCSo/Vg6o5ktpoP5vjSYj6TBvHk0jjEAgCmjmXXrg/no4ZXwUe6YA+AqoosOUs31YzQzsWUwA9CwaCSUDMbBaKbxwRwdwHMHAAMT/a3qWOrJaB65h286lgbz/Wkwt/ocZgC2eDMVDQVpc8VE5+ra6sdoHrG3njx6r6dkAAxRNBSkRTRcRvNInTp63elf//C93z15xIv+9gwAGD2jeYS6wfytjz+w+vCNN5ydfSqJHi1qIwBgzIzmkdkYzMfSYDYKAaBOm8/RDXSloXoymkdk62AGYLCioaDG6v4cG2oEjOaRMJgBAPozmkdgYzAf3/aUjFnhI1xtlO4mAGDUjOaBmwzmj6XBfDoN5u1/lbIWAHBAh9Rs/RjNA7Y+mG/qrjADMA7dqT0aCsobE9HFuNrryWgeKIMZYMSioSCVaESM5gGaDuaH0mA+ET+HWT0CAMbMaB6YjcG8j5+SET1i1M4AKCy6WCGVqh+jeUAmg/mZNJi7HysXjb/tATBA0UioPaif0TwQ64N5P1eY2SQ6eG8PAFiY6EJfznoymgfiW8+cmb3oLxp9unoAAxONBKmlipj/3G80D8Ar73n7ZVeYAShn8+CQWmx+RnPjusH83AM3n599uFzRo8WhBNCUaDTME2A0N2wymO9PgzkaecuomOgAvugAgBblmitGc6Neec+9aTDfcj4eeEMLgGXZPjikK+nc3FLXXNlWT0Zzg6aDuZKnZABQnWg49G3H4JDiJV1vmRjNjRnbYI6+95cRQDPeTEUHsr4BE0ZzQ76ZBvOn02COjmn7K76KUG3ho9slBACMntHciG++577Lz913y/lw1O279Au1FAAMWjo3awn1YzQ3YDqYPYcZgP3oTu3RUFB90RKjuXIGMwCDEv3NorTIejKaK7b+lIzw0akWG0BDoqFQS9Aoo7lSG4OZbKKD934DYISiiyhqv36M5gp98wfSYL63e9Ff+kD5AhiFaCSoX7DBaK7Ml55622uuMAMA1MVorsjz991y4UfP3PHF+NGulhcA1Yr+ZlHarZ6M5kp0g/mXf+D+S7MPAaC/aCgsvUNlCi92SLvVj9FcAYMZgLyiobDsoG1G85JNBvP3p8EcPipXntLBep4c7AFg9IzmJXr+vlvTYH7g0s5H48obADB80QaI6sdoXpLpYPaUDABqEY2LERb9jaMaKf0R7qeejOYlMJgBKGYyDKJBsVdr/78jD67CaF4wg/lq0gG72gCAsTOaF+j5e9NgfvcDl+JH+GMv3UE1BwCjkc7Lg64fo3lBJoN58qI/ACipO7VHQ0Hab0SM5gUwmAFgpKK/vdRy68loLmzxgzl6xKj5A2hENBK0vBgMo7mg6WB+MA3maISVCgCoR3Su1nLrx2gu5MN33fTSL787DeboUafaCqAp0UjQ8mIojOYCzpw+ce6b737w8uxDAAAaZzRn1g3mb3/4nasnjxxeiR9xqr0AoCLR34pq//VkNGe0MZivS4MZAJbgzVQ0FHSVDrVXeIFH+68fozkTgxmAekRDQXGwP0ZzBvsezOEjXDURAFQgOkXpYPVlNM9pMpg/+PjqycOHV8K/Qtlc+AhXbQTQhmgkaDixPEbzHNYH81FPyQBg7KILDspadEFOB68no7mngw7m6NGi2gigOdFQKF73dVU0lspo7qEbzL+bBvOJNJij7+koSksH7GIBAGNnNB/Q2mA+dfQAP4c5fESuvKW7ulQAQCXSOX/u+jGaD2AymD+QBnP3D5dE4+pqAUAVogEhtdTyGM37tD6YJ1eYAaBW3ak9GhtdsEl0oW8M9WQ074PBnEN08G4pgIZEQ0HaHgdiNO/hzuM33DsdzEf2/xxmBQEA9YjO1WOpH6N5F6eOHD79G08/9t3pYK5M9IhR5QJoRjQSpO1xUEbzVXSD+VsffGL1obecOBuOqGUHAMDCGM2B9cG8kgZzlaJHjCoXALCn6CJfjfVkNG8zHcxn02A+mQZzNKBqCACuIhoJKlw6NyvdEa3Uj9G8ycZgrvUKMwDsRzQUVC7GwGieGf1gDh85axIAMHpGczIZzO9Pg/ktJ8+Gf90whsJHztoIABYouogzwq4UqK/Rj+b1wXy6ew4zADTuzVQ3DLYNhXF3pb28Td7Sn16B+hn1aDaYARia6WYuOThaDOY32tFcbDBH/62OsPQgeVABMNMdE6UFFJ2Pc9TXKEdzN5h/931nVx9cOXE2/CuRefI2eUvflgMLoCHpsJVOSWWa/vJS8WozutG8NpgfOu3HyjUp+q+qdACNcehas/2A3kDhIxVlradRjeb1wdz9WLnuPlORou/PbMVfsmgAbUlHrvAAOsamd0dTMRHdNbnqa1Sj+XfWnpKR/neVC4Dlio7NUjOFn8xYT6MZzd946szlh1aOn43vvQzteHSr4ZT+iAFa0R2zpJar1ChG8zeePHP5ubtvPx/+weSKieiuGUIAlBIddTXWFvHW1+BHczeYP33P7ed3/rGoROEnWw+gIVeueTPV0tvOw27VpXcqV3ynZ66nQY/mb5xLg7n0FWZtrTnRjYgCaMSmfxFQBWK0BjuaJ4P5ntvOx9/xKlGbb9Et2RoAsEl0ssxQdOU5T+l8v6m+Bjmau8H8bBrM3d2y3uROU8k2f+MPLoBGTC40p+NWvrYODqnUW/puK1QegxvNk8F89207n5IBAKOx/SQ4T0BnUKN5fTBzddHxMEPpgWeh0mPPZZduIgCN6A7aaq50ul1YfQ1mNH/9iQcvf+quW8+Ho0cbFXpL34aFAuCg0uF+vHW3X81VTr6vNojR3A3mZ++53RVmAMgqGhwabeGjlNoLbkpPzY/myWD2Y+WWWvg9OqAmtxOgFZPj1qaD2Fyt/XpSqpDoS5Wsr6ZH8+QpGWkwR3eIFlcZ0VdaZgDtiI5iUq21otnRPB3Mfg7zvguvINRcfDOWEgD5RMdZjbj0btH11ORo/uKj9732qbuCHyunq1dI9KWGGEAz3kxHrWgo1FJ4lNVYiz9btr6aG83P3nXbhc/fe+cXoztBi68p0Q3YbwCNiA5hGknpXWvFN6RwPTU1mrvB/IuPP3gpvAO0hNK7lopvxD4CaEx0KNPwo6hmRvOzd92aBvMDl+LvEi260j+duaYAYNyis2O9hf9Oxab6amI0fyoN5l94/MFLO++WAZXetVR8IwYaQFPeTEUHs/0VjQyNvfSd0VClVD+au8H8i+8cwVMyACCDyWRO55W+AbGqR/P6YKan7ujXTvGj2zoCgLntPPUpc90pe6/6qnY0f+qtt174hXc8cCkaMNpv8TdLrQGQQXc87Vl0bFbG4ru94tp7i27FzvqpcjRPBvM7uxf9AQAHtXlEHORt57jQuCsk+lKLrKfqRnO1gzm605Wt8BF5JQE0Zb7XAUrlKyT6UlF9VTWau8H885OnZKQbVVvp99dWbb1Ft6CeAIYvOvpJLVVaNaN5Opjv93OYs1VA9GXGEkBDosPYXpFEd0z1pXc6WD1VMZong/mxNJi726F6KyT6UrUF0JRoKGjvwjNA7dGJ7pmr1dfSR/Mn02D+WhrM0Y3SOAJgeaLjslSk9K5U8Re8Sj0tdTS//9YbX5pcYc4hulOqLr1TG03+wADaMDlqbTqE7dXWc5NUsMYtbTQ/eOr4uV949P7L4X/BfQr/dGqOTnTP1BYA9BedWZSrPm99LWU0d4P5tScfXT1+5LqVnTdfVZbelSj+YhUG0IzoIBbX3Fs6cbRXuqdVrPRtcfB6WvhofvBkGsznHl09cfi6lfCGqM4AaMKb6ZgdjYuo8Hhfc7BECx3Nk8H8ZBrMR9JgbkL0X6xy1c4bAIzAzlN11UUPBPdTXwsbzd1g/s1zj6weP3ztSvzXFzUW39nKU/QfQJUBtGSf/yJgdFxW7qJtUXGNvaV7uGf9LGQ0rw3mdq4wA0Cr3kyzYO+3eEwobwxJ8dFsMC9I9N9qxaUHtM00+T0DsD9rx02pYNH5er/1VXQ0d4P5H57tnpJx3Ur0m6639Bi8tRp7S/dyYwE0JDqMbSqdNsoVf0kpa8tQbDRPB/PDqyeOXLsS39yao0nRH2WOABoTHco2x5ro3qm48FGKDlxPRUbzZDA/kQazHyunoOj7N0vxl8sSQFPCg6R21t1XDcVEdNccpL6yj+YH0mD+jTSY/cMluloALE90XJZaalmyjuZuME+uMBd/0V90F1Ze+AhXbZT+CAEa0R2ydquY6ItJNdZTttE8GcyPn1k9cfjalXh45Cx9wdZiIrprag+gKdGBbBEVEX0hjbkcb31lGc2333D03t9Ig9lTMrRXRURfKGcAzYkOZptnQytv0a2ouPROZYvv+APW09yj+eTh606/+tiD3/WiPy2tYhbyRQCyevPNdNRKh62oLYc15Y9Bm2s0d4O5e9Hf/SeOnZ19apPou0ljrc23jVsAACzZ5hPzPPXUezR3g/nXnzizet+JG85unhkbb/Hvs9rSO5UrvtMbCqB10bEtQ9ExP09pS0iby/TWV6/RPBnMj59Zvf/4sbOTrz2EAGAQ0iwoODi2v+08oeYK6nLg0bw+mMOnZEAgOhZmKJ0DCpZOBbMAGIjukC71dKDR3A3mX3vHmdX7jh87uzEutrcxNqRJhd7Sd1vBABoWHdYKlA7xbRXfDI2svvY9mqeD+aHV+0/ecDb+LawFACxTdHbOX/xZjbjwkUqF9bSv0bwxmJf4lIzuNkqzov8GSgbQjCu7/My5rHVfS9rUwO05mrvB/A8ee2j1vhO7PSVjAaXfi7RW/NmSAbBZdKSUWqivXUfzdDA/sPrAnk/JUNOFj1JqL74pRQJoSHQYK1FTohugRkrvctfTVUfz+mA+cXw4P1ZOcY2JbkLJAJryZmr9IJbeafMdouaqRziaT6TB/KtpMN+fBnP025eWGQB7KXfE3Hw8VmOld0p3RE87RnM3mNevMNegu3FqsPRuMKXbA9CIyYXm7YexjO083quZmMuO0TwZzJN/6S/duzUU/qmr/sqIvtIiAgAWKTobz9/0RyX2s2U0/70H7rnc/dPYO7+Ellp6p2nxHVQ4gOZEB7P5K/aWDvDS1tJ3XIHSt1tv66O5G8wfu+Wm85NfTHUFAAcQjYUcheeoHEEDJqN5fTBDFtERcf6KvaUzwW6ld+nrA0BhW097yty8p/RrX7zjlp975pYbz6d50O9tNiykjTa+MXOWvt3KBDAk0XEuQ9FxWZmL7/qKa+tt43fez7Unr7vu9JZf56ABABXZPBPyve0cAFJj5vxt7/jpGfSw+ftHRQofkS+q9FsAGLXuQCg13Nr5vKuvaye/wNovpn5192FTtfcW3YrFBdCQLf8iYJ6CT0lNlcPsSnP0y2u4NSa6CYsOoBHRIWzeKCy606suvWu5nq6N7wypnoJPLTSAtryZDl7p6KV2Cs8+NdeWXL/7yZXm7b+YVFMALE90XJaKlN6VaMcX6skLAecV/WFUXXqngzW54wDaMHlK87bD2DztPI9IhapcGs3pdxn9V6L9teNPvPbaEt2CZQQAbYnOZuMreutr+tMzpHlK70oVf8ElBNCU6EB28LzN3tIJqb3Sn6DSu6CevBBQ8wdAPdJxORoPfdpxvB9rkHhOc3Wi/1rHV01vAECy83TdZj3NfnrGgN/SQ+W2Sn8eSu8qCqAlBf5xk5xFx/xxFm2AyhvIW1/TK83d//9QA4CR2TwQanvbeaIea7TG0zPGIPpvdYSlB8m9A6Bi3XFa2m897fuFgNGQGG/psXJLeZu8pT+5OQJoSHQYq6B0SipT/OWksL6u3TwqdnuLv+xYA4A6RWetWmJNdO9UXPhIpeF6Wv7TM7rfu1S46L+Z/QbQluBApsqa/jE1ExP7eiFg+Oedq/hLSlkDYLmiY7O0jPqa/ci53WNNdO9UXPgoRQcv3Z0AjajyJ86Fn5SWVE+zFwKmd9pH3X3VUExEd81BA2hGdBBbds2JboSGUz97Pqc5+lJSS4WfPEgATanrWnObb9Etqbj0Tvuvr2u7/9/dCj8ptRTAmKTNHA2FZRUel5U3FmLvFwI2JboBGnM53qa/FgBQra2n/93rKY3m6Feb1t5bdCsqLr1T2eI7vkcAQxYd9zIUHZfzlM750uYO8NbX5IWA6WuFTX5dlQsACghHxW4Vett54ssVLN6eLwSE4qLjYYbSeSBP6ZcDgN66E4nqqaerPqc5HA9ZSo89pc0VekvfbZkCaEx0KFtw6fCuteK7SEuqr9lPz9j5tvNL5AoAKCU68y6jcqKvpuoLH00sqZ48PWM33f2qJov+G+nb5NcEaMXkuLXpIDa41m6jmmoAZv8i4NbC79ExtvOuUSMBsDzRcVmqpb4mV5pz/WK72/5V1EzhI4oRNbkfANqwdtRaZs2JboSGW0/Tn9McDYXspa+mNmtMdBPmDaAZS/9XtNO71opviAZbPzue0xz90lJLAYxbdGRcXPFnNdrSu9rqa/bTMzZqyvbfvBT91zF36dcFaMTkQvP2w9gC23lc1qgbkG0vBEzvWmrrb14KPjN/AEBtojP2futn9vSM8j+dWQ2W3rVWfEPmDGBwooNdvYX/MJZGXvrO6Flf05+e0f0C0vYAaNCb6bwejYzNpcN8Q0ENdrwQEMrqjn5t1Z1gAGCwdp76hl1P0x85V6idj2yl9J3RWABN6Y5bAyo6Litz8V1fafO/9XVteOdlCgBYvO4UHNfeW3QrNOaWx9MzWhZ9LylbHvwB7dp0MNtSIdGXkmqtp+lojn7BOdt8xVmFiu/6imvrbeN3DtCQZfyLgIVEX0qat76mPz2jwNvO36JUSPSlcgfQiOgQ1mrMRHdO1aV3NdfTtn/cRGqwAhbwJQDKiYaC2m3HWan2hqnIc5qju09qKQCWJzouS7nq69roF5s3ZqI7p+rSO+1scucAtGGhT2lO70oUfzEpUz1Nf05z9B2r+dvxp1R7dNwrQPO2H8hKRaOiP8wx1U/2p2dEvzWpSOldicIvBtCM6CDWTk2+pZNHW6V7esT1NXkhYPQL9q379aSFBMBO6fgYnZ9bacexvoUYhSIvBKSk6L9W5Sp+AwDG7tAHT5288IFTpy7MPh4Xa4h9+Dd/9meX//Wf//nl2YcAVfuJm29+7W1Hj56bfQhs8/f/9E8/PPtfD+Caa/4/RNURxmTgJXAAAAAASUVORK5CYII=;" vertex="1" parent="1">
          <mxGeometry x="175.21000000000004" y="385.36999999999995" width="48.42" height="34.57" as="geometry" />
        </mxCell>
        <mxCell id="3UcTS02MajumEh321Bra-18" value="Astria" style="text;html=1;align=center;verticalAlign=middle;resizable=0;points=[];autosize=1;strokeColor=none;fillColor=none;fontSize=27;fontStyle=1" vertex="1" parent="1">
          <mxGeometry x="216.79000000000008" y="379.33" width="100" height="50" as="geometry" />
        </mxCell>
        <mxCell id="3UcTS02MajumEh321Bra-20" value="" style="shape=image;verticalLabelPosition=bottom;labelBackgroundColor=default;verticalAlign=top;aspect=fixed;imageAspect=0;image=data:image/png,iVBORw0KGgoAAAANSUhEUgAAAMgAAADICAIAAAAiOjnJAAALXUlEQVR4nOzdeVAW9x3H8Q9KUEE8QCAaBYUUSQyReObSxLYxmprETFvHXBLbtGnuaDKZHjbSmXbSaXRSO7G1trGDmqhRa6yJ2kTF+8QjeOABIngjBgQknA+dLR2mo+zzfHd5vs+zi5/X+Ff2x2+XmXf2enYfQhtD+4LI39oFewOobWJYpIJhkQqGRSoYFqlgWKSCYZEKhkUqGBapYFikgmGRCoZFKhgWqWBYpIJhkQqGRSoYFqlgWKSCYZEKhkUqGBapYFikgmGRCoZFKhgWqWBYpIJhkQqGRSoYFqlgWKSCYZEKhkUqGBapYFikgmGRCoZFKhgWqWBYpIJhkQqGRSoYFqlgWKSCYZEKhkUqGBapYFikgmGRCoZFKhgWqWBYpIJhkQqGRSoYFqlgWKSCYZEKhkUqGBapYFikgmGRCoZFKhgWqWBYpIJhkQqGRSoYFqlgWKSCYZEKhkUqGBapYFikgmGRitBgb4CyLpFIjEfvmxHdHZGdEfrf37e+HlcqcKEYBadRUIQGT7C3sg1qi2GlpuChEbh/KAal4pabfQyursH+w9i8E6s3YMc+NDb6YQNGDMeLz6JTx1ZNUlNj1F9cgsKzOHICObmovOqHbQuUkMbQvsHeBj+Ji8GPJ+Lp8UhOtDlD4RnMW4I5C/F1mf3NGJCM3Z8h7Cb7M7SovgH7D2FNFhatRN4pP0+uoE2E1TMWv34d6T9AWJgfZquoxKx5eO8vqKq28+O/ehUZU/2wGWY8HmRtx7uzsWmn4lpazeVhtWuH1yZj+hR0jvDzzCdO4ZlXse+Q5R9c+SEe+bafN6ZFK9bi9ek4XxyIdVnn5rB6xmLhnzByuNb8Vd9g0htY+YW1nzqXjZhorU26xsUSTHwJW/cEaHVWuPZ2Q2oKdqxUrApAeCd8/AEe/a6FH+nbO3BVGaeVPfB5Jh64O3BrFHNnWGkDsG6R7yu+1gu7CQtmIbW/dPywNN3tuV54JyybYwTtMC4M69a+WD0fUd0CtLqIcGT+UXqVN+RO9e25XreumP27IKzXK7eFFRmBFX9HTFRAV5qagpcmiUYGfo/VZPRI3DM4OKs24bawZv0GKUlBWO9bL6BjBx9jQtsj7Y4Abc/1Jk8I2qpb4qo772NH4dnvW/6pU6exYTtyT+DSZXga0a0LbrsVYx5Ev3gLk8TF4LHR+GSVtzF39EdEJ9FsJwpQcNp0aaeOSLgF8bdY2DwADz9gbbwy94TVIczYXVny5Ra8+wG27G5hUUgIJowzJozuLp3tiYd9hDV0oHSqjPd9TAUgKQHvvIGnxkvn7BWH2GgUX5aOV+aeQ+ELT6NfH+ngq1WY/CYemdRyVQAaG7FkFUY/japvpHOOGOZjwBBxWLsP+B6TX4j0KZi/XDongD4Wd3KaXBJWhzC89TPp4MqreHQyFv7T98icXMycK502LgY9vF40DJeduV+6bBydhTJmSkcaF7CyA3FAuCSsJx9Hz1jp4OffNt1RXe8fn1jYjPheposiOyPlVtEke76ysMbT53H2gnRwfYOFmZW5JKyfPiUduWQVlq+2MPPpczhzXjq4WxfTRXcNQPv2okkshdX0yZLQJaecYLkkrP5JGCo7ytTXY9ofLM8v3yWEhJgukt/BshqW9+Nvs/oG438Sx3BDWBPGSUcu/Rynzliev65OOrLC/FE7+SXhbithxfZA966ikcfyUF1jYWZlbghrnPhj4MylduaXP3JzscR0kXCPlXcKpVaeIhzzoHTkjn0WptXn+LBiopF2u2hk6RVstPXsW6840bC6Opw1ORvrGYvePUWTWD0O/uRJ6ch1W63NrMzxYY0cjnayjdywDQ3WL4uiuxuHG4n8ItPLLgvHQcEdrGZPjcfdg0Qja2vx5RYLM+tzfFj3DZGO3LDdzvx3iB+JOXzMdJHGmfs9gzH7t9LBq7NQXiEdHBCOD+tecVhZtsK68zbpyJxc00XCPVZtHb46Ihr53ASsmW/h5G/eYunIQHH2Z4UR4RgoO8E6ewEnCuysIm2AdOTBoy3/95AQDE6VzZDr48KtRxTGPICXn7P2XNeR41i7ycL4gHB2WEMHIlTnrmOzweIHXcxerOifhK7mN07/X3IiDq83Xdq1C+JkZ3vXyHjfP69D+pWzwxKeuhoX23vtzB8RLv0cprjE9D6q/Mw9srPxz7+ytuPTf/t5Tn9w9jmW8GNdADv325l/cKr0cxgv74ENE4fld+UVeOHnDtxdOT4s6Sc5DdKT4mvIr+ayzQ+1wo30O48Hz0319sBgUDk4rITe0nOOQ0dxtcrOKuTPie8yuf/UsQNSU+ysupU8HrwyDavWBWHVMg4+xxJeagE4YGt3ZYQlO4fzeLDL5FCbNsD/X9PgU02tcQT8aEWg12uFg8MaJL5ey86xM39yovTl0mP5KL3S8iL5mbu/HMtH+lTstfUrB5CTwxLvsXJs7bHuHyoduS3bdFEgw6qoxMy5xj8nPcVgxsFhDZTdE/d4kGNy69I7n8+wN/PyPGpgXiQ8WYR5SzD3I9Mdp/M4NayYaOlnw4Vn7Jy5h4Rg1L3SwWZfGBTVDUkJllctVFaOfQeNptdutHmsDyqnhiV/IafI1mOTQ+6UfvXDkeN+uDW696CPpw/q6ox/5ZUoKcW5C8gvxLmL0skdyalhyb/wo9LWjYb0H0pHermklx8HFyzH7Ezp4DbBqfexhM/jAmhv/VeIjcYzT0gHLzN/NUO+xzK7W9F2OTUs4cN9TU9vWjV9CiLCRSMPH8OBw6ZLpU/L1Jo+GdF2OTUs+RX1bd+y9j2Ro0fiefHzvn9bZLqoXx/p+zM5uaipla6xrXBqWMXmry1cI+wmPPmYdHBqChbMku4Oy8qRucx0qYXPGd13Tdd6Tg0rv9DC4Iyp6CN4l2HsKGxYYuEb2+Ys8PbV6krPubcVTg3rZJFx4S0U2wPrF3t7eKtfPD6cgX/N8/Yq8zVKSjHjr94GyMO6IfdYTr3d0NiIdVswUXyM6xePTUuxLRtrsnA0D1+XGce7mCjcnoxR9+K+IdLnrppNew9XzF9PCA3FXbKPMssrcDTf2qrbBKeGBWDxSgthNV1Ijhhm4YMaLzbv8vF6QmqK9C+a7DvkzAfxtDn1UAhgzUbk5gVhvZdLkT7FRw3ylx1uyBMsZ4fl8eCXvw/0Suvq8Mxrvr9/hpeEvjg4LACfrccCK19p10oeD55/W/Suuvw5d+6xHOqVadgZkK+7qKvD5Dfx8ae+R3YRf8fahUsWviOpbXF8WFXVePRHxtm0quISjJ0kqqrpCUThLdY9N+juyg1hASi7gjHP4s+ZxqFKw4q1GDTWwl9p4x0sATeE1XScej0D35lo/72JFmXn4HvpmPCity++ut7wu6Qjb9QTLPeE1WTrHgwbZ3SweVer9l7VNVi+2tgL3vM4vths+ceFz4qVlgXo7NCRXPv3CpMSMP5hPDTC2H9Inm5oaMDxk9ix17joW7sJFZX2V/34aPziZXTw+hdQzhfjnRk38qHQtWE1a98OiQlITkSfXoiJQmTn/73oV12Dq1UoKcX5izhZhLwCm3+Kl2xxf1jkSK46xyL3YFikgmGRCoZFKhgWqWBYpIJhkQqGRSoYFqlgWKSCYZEKhkUqGBapYFikgmGRCoZFKhgWqWBYpIJhkQqGRSoYFqlgWKSCYZEKhkUqGBapYFikgmGRCoZFKhgWqWBYpIJhkQqGRSoYFqlgWKSCYZEKhkUqGBapYFikgmGRCoZFKhgWqWBYpIJhkQqGRSoYFqlgWKSCYZEKhkUqGBapYFikgmGRCoZFKhgWqWBYpIJhkQqGRSoYFqlgWKSCYZEKhkUqGBapYFikgmGRCoZFKhgWqWBYpIJhkQqGRSoYFqlgWKSCYZEKhkUq/hMAAP//rRGYXXFATjoAAAAASUVORK5CYII=;" vertex="1" parent="1">
          <mxGeometry x="369.71000000000004" y="380.44999999999993" width="44.42" height="44.42" as="geometry" />
        </mxCell>
        <mxCell id="3UcTS02MajumEh321Bra-21" value="OP Stack" style="text;html=1;align=center;verticalAlign=middle;resizable=0;points=[];autosize=1;strokeColor=none;fillColor=none;fontSize=27;fontStyle=1" vertex="1" parent="1">
          <mxGeometry x="414.13" y="379.33" width="140" height="50" as="geometry" />
        </mxCell>
        <mxCell id="3UcTS02MajumEh321Bra-22" value="" style="shape=image;verticalLabelPosition=bottom;labelBackgroundColor=default;verticalAlign=top;aspect=fixed;imageAspect=0;image=data:image/png,iVBORw0KGgoAAAANSUhEUgAAADcAAAAwCAYAAAC13uL+AAAACXBIWXMAAA7DAAAOwwHHb6hkAAAFc0lEQVR4XmNkoBO4+fUr8/dPn6Q3rVwZu3Xt2lygtSxqWlpHvUNC5hpbWBxjZmZ+q8TF9Z9OzqGeNV1z5iTau7ufBZoIcjwGlpKR+Z9aUDBn/eHDjjffv2ehns00MmnS0qWa7gEBq4ExgtVDuDyqpKb2ObeiomPzsWPqNHIaecbOXr9eLiAqagEfPz9JHsLlUW0Dg/+ljY3NW06cGBiPLtm5kz8yJaVdQkbmIS5HUkPc2MrqS3l7ewV5wU6irpTCwgxlDY2LQG3/qOF4UsywcnQ8XtnRkU+ikwkr1zMx2QxU9ZcUx9BSra2r6wZcrmYk7B24ip9AFhsJ6ump9C3QMhF0C5nwuQBY0j1ASnaD1WOgwsuSqJAElnQHBlOyw5Ok/wFL071ZFRUCRHkMqOgHLfMHNcwG1oMfkgsKGhdt305ySho0BQVyQAiJiPyPz86eMW/TJj1iYwmbukHjOUZGxv9RaWkLpq9e7UGJh5D10r3OQk+qXiEhx4BNtxhqeWjAPQeslB9PWrgw+dLLlzy08BTMTLrFnLa+/v/2adOKzz5+LHX782dS6luy/U9Tz0lKS/8vqqubfeTmTdW7X7/irWPJ9gEejVT3HCewA5qSn39976VL1sC+GjctHE2smVT1XE5V1T9gD1wciLHG0uIdO2yJdRg56midNM4Di/TX6tzcoEBDAR6BgWtjPTwOiUtJ/QdWyos3nzpld+vbNw5yPEGsHqrGXG519XZcFpvZ2h5GrwbUtLX/Fzc1Ldtx4YIVMLZZiXU0Ueqk5eWp2uEEem4uHs9dwNccM7W2/t8wcWLHwVu3VIlyPCFFExcvjrZ2dj6Ez1JS5ICea8fjuc/EmuXs4/OoY9asHELuJ0p+y5kzJsDk0WRkaXmPWAdgUwf0XAMez5E8zsLKxvbfPzJyQ/+iRX5EeYSQojWHDllklpd3a+jpfSTVo8DSspqankO2X1Rc/F9YUtL0qcuXixPyA1HyS3fvtojLzpghq6hIVKgDPVdEK88he1ROSekyUR4gVtGCrVtdwhITF4iIieH0KNBzidjMu/bpE4eZjQ1RAURsagGWvqCxHRRAdj2X4O29Z9X8+QlvXr1inL1+gyVwvHIJFzf3V6hjYJaAxjYwAHD4gpmBkerNSV6qeQ7ZoNTAgBMbli2L/fb1K8/kZcsUvYKDZwLl//0HAhwpgRaVNdkRRWxqJagOWDlzrjtypAuYjKidLEFVGAqg26TD9nPn9JbPmdNsICrq9/3bN4KBQIYCqqdzvG44cPUqU2pR0QRRCQmqxhK2QgbanCMjTEjUkl1R0aSoqvqU2JKOGupo6jlgiyZd19j4DDUcSo4ZQM8dJTEO8Cuv6uoKAY5/7AKVjOQ4iJp6gJ47QbHn2mfM0Hb181vGwsoKmjugeV4i1g6g586R5Tlg3aUcHBMzWUBI6PVgiCUcBcoFoj03b/NmpbisrFYZBYU7g9VDyJ4ENudO4/UcsKujBpxYaNHQ1R2QSUVikyCyOmCT7z9wRcTamWvWWOD1nKG5+SlyLBgIPcDVEY8aJ03KO3T7NjNRydEjKGj9QDiUWDuBnef/pS0tHcDWDnlDDzNWrw4OTUhYKCwq+opYS2mpTkFF5X9GWdn0lfv3U3cYsHP27Cg3f/8NzCwsdC3yeXh5/0enp8+au2kT1WZ48Cbd6u7uAgt7+8e0jCX3wMB1wEGqYKLyEC0UbTtzhj+7srJTU0+PKrFpYm19pGny5FhauJViMxNzc9ulZGVJilFgo/pWfl0dzsEjih1FbQOAYyqSIfHxC7h5ebHOzvIJCPwD5aPVBw8aUNtuXObRpIM3dcWKwC2rVsW9ff1aRFhM7LVfWNjKzPDwlfTyFMweADGQ7XVMItOUAAAAAElFTkSuQmCC;" vertex="1" parent="1">
          <mxGeometry x="600" y="383.15" width="44.71" height="39.02" as="geometry" />
        </mxCell>
        <mxCell id="3UcTS02MajumEh321Bra-23" value="Espresso" style="text;html=1;align=center;verticalAlign=middle;resizable=0;points=[];autosize=1;strokeColor=none;fillColor=none;fontSize=27;fontStyle=1" vertex="1" parent="1">
          <mxGeometry x="644.71" y="377.65999999999997" width="150" height="50" as="geometry" />
        </mxCell>
        <mxCell id="3UcTS02MajumEh321Bra-24" value="" style="shape=image;verticalLabelPosition=bottom;labelBackgroundColor=default;verticalAlign=top;aspect=fixed;imageAspect=0;image=data:image/png,iVBORw0KGgoAAAANSUhEUgAAAfQAAAI8CAMAAAAwW6n8AAABvFBMVEVMaXEaDG0aC20aC20qDGQaDG0aC20aC2waC20aDGwaC2wZDG0aC20aC20bC20ZDGwZDGwZDGwZC20aDG0bDG0ZC2wZC20aDGwaDG0aDG0aDG0aDGwaC20aDG0aC20QAHsZC20ZC20fDGoaDGwaDG0aC20YDGwaDGwbDG0bDG0aC20ZDGwZDGwaDG0ZDGwaC20aC2waC20bC20aDGwZDGwaC20aC20ZDGwaC20aC20ZC2wZDGwaC20aC2wZC2waC2waDGwZC20ZC2waDG0ZDGwZC2waDG0bC20aC2wZDGwbC20qC2QaDGwaC2waDGwgDGkaC20bC20aDGwQAHoaC20aC2waDGwbC20aC2waDG0WDG4ZC2waDG0bDG0aDG0aC2wZC20aC20aC2wbC2wZC20ZDGwbDG0aC20bDG0aC20bDG0bDG0aC20aCWwuIW0aC2waDGwVCm4qGWwaDG0aDGwaDGwaC20aC2waC20aC20aDG0aC2waC20aC2wZC20ZC20aC2wbC20dC2sbC20aC2wbDGwaDGwaC2waDGwaDGwaC20ZDG0aDG0ZDG0ZDGwaC20aDGwZC20aC2wZC2zuFtIAAAAAjHRSTlMA/gL+Avx8/PrL/v77RlkD/LhpAjP++gPDuAEkBPuVAtX8CNb2OwP+Aih5/rn9/QP7AVb8AnMjJn74Afs9Ais6/f4EtNID0Qz9tFgCBMjMBZRbwQJly/la39ACm/geBEbSep065QYreCpJUzQRAQEF+gIBt8P7BUFHPMY0Y5VnlfYoDB2XKvPU4wVy/U4GomUAAAAJcEhZcwAAFiUAABYlAUlSJPAAAAsSSURBVHic7dzllpzXEYXhb44iy5GcWHZSSZzYYTazHWZmZmZmZobdao36hnMFXb3WnO6dmq73uYJpvWvX+ZZ/eFEhl1ZPfcqyJy944fUXqYST1cVnLs+Y/0XPXm6//qy9/EWLCiF6hug7sfTtWPrBcd5TnPcM530nzvt2nPeD47ynOO8ZzvtOnPftOO8Hx3lPcd4znPedOO/bcd4PjvOe4rxnOO87cd6347wfHOc9xXnPcN534rxvx3k/OM57ivOe4bzvxHnfjvN+cJz3FOc9w3nfifO+Hef94DjvKc57hvO+E+d9O877wXHeU5z3DOd9J877dpz3g+O8pzjvGc77Tpz37TjvB8d5T3HeM5z3nTjv23HeD47znuK8ZzjvO3Het+O8HxznPcV5z3Ded+K8b8d5PzjOe4rznuG878R5347zfnCc9xTnPcN534nzvh3n/eA47ynOe4bzvhPnfTvO+8Fx3lOc9wznfSfO+3ac94PjvKc47xnO+06c9+047wfHeU9x3jOc950479tx3g+O857ivGc47ztx3rfjvB8c5z3Fec9w3nfivG/HeT84znuK857hvO/Eee943r90/cmbZz2wuXJ5+ldx3m3RP/q1a/NWJzdWRD8/0ZePPfHNV8/58qNf2Zyw9PMUfR++eoPzfq6iv3za15dvr+++MP2reNN90eeN5Ys3rhC9W/SnrTnvRD8LznuKpWf4L3IOg/NuwNIzLN1hsHSWfkZ8yKU47xnOu8PgvBuw9AxLdxgsnaWfER9yKc57hvPuMDjvBiw9w9IdBktn6WfEh1yK857hvDsMzrsBS8+wdIfB0ln6GfEhl+K8ZzjvDoPzbsDSMyzdYbB0ln5GfMilOO8ZzrvD4LwbsPQMS3cYLJ2lnxEfcinOe4bz7jA47wYsPcPSHQZLZ+lnxIdcivOe4bw7DM67AUvPsHSHwdJZ+hnxIZfivGc47w6D827A0jMs3WGwdJZ+RnzIpTjvGc67w+C8G7D0DEt3GCydpZ8RH3IpznuG8+4wOO8GLD3D0h0GS2fpZ8SHXIrznuG8OwzOuwFLz7B0h8HSWfoZ8SGX4rxnOO8Og/NuwNIzLP0cLf3C6uJ3ly+8ctb493L79Scv7cOiQo526d/Yzx/0h9Xpah+Iboh+73c+/61Xzfrz3//6n3/98yX7QPSDR7+iK5976bw//WP9t+UvL94Hoh88ukLXNpvpm3z6380flx8ve6FCjvRN15tPTk5eMevyj9a/X364n1+mQo4z+p5cuGv9/OXO/fwyFUL0BNEtBks3YOkJls7Sp6gQlp5g6RaDN92ApSdYOkufokJYeoKlWwzedAOWnmDpLH2KCmHpCZZuMXjTDVh6gqWz9CkqhKUnWLrF4E03YOkJls7Sp6gQlp5g6RaDN92ApSdYOkufokJYeoKlWwzedAOWnmDpLH2KCmHpCZZuMXjTDVh6gqWz9CkqhKUnWLrF4E03YOkJls7Sp6gQlp5g6RaDN92ApSdYOkufokJYeoKlWwzedAOWnmDpLH2KCmHpCZZuMXjTDVh6gqWz9CkqhKUnWLrF4E1n6f9fLJ2lT1EhvOkJlm4xeNMNWHqCpbP0KSqEpSdYusXgTTdg6QmWztKnqBCWnmDpFoM33YClJ1g6S5+iQlh6gqVbDN50A5aeYOksfYoKYekJlm4xeNMNWHqCpbP0KSqEpSdYusXgTTdg6QmWztKnqBCWnmDpFoM33YClJ1g6S5+iQlh6gqVbDN50A5aeYOksfYoKYekJlm4xeNMNWHqCpbP0KSqEpSdYusXgTTdg6QmWztKnqBCWnmDpFoM33YClJ1g6S5+iQlh6gqVbDN50A5aeYOksfYoKYekJlm4xeNMNWHqCpbP0KSqEpSdYusXgTTdg6QmWztKnqBCWnmDpFoM33YClJ1g6S5+iQlh6gqVbDN50A5aeYOksfYoKYekJlm4xeNMNWHqCpbP0KSqEpSdYusXgTTdg6QmWztKnqBCWnmDpFoM33YClJ1g6S5+iQlh6gqVbDN50A5aeYOksfYoKYekJlm4xeNMNWHqCpbP0KTrKpb9mvH5M+8Xyq/XPL5bxifWHljv388+jQoqd92X55eZ0c1rE5nTz2eUt+/ldOsrob3jdG1827de//d1vfvacMj7y6UeX+/fzz6OjjH7b+oEL0265ccfykx8sR0hHGf2e9X2raVdPb1uOk4506a+dX/pdN366fH85RjrS6Ffn/5yLN+5YjpMKIbqJCiG6iQohuokKIbqJCiG6iQohuokKIbqJCiG6iQohuokKIbqJCiG6iQohuokKIbqJCiG6iQohuokKIbqJCiG6iQohuokKIbqJCiG6iQohuokKIbqJCiG6iQohuokKIbqJCiG6iQohuokKIbqJCiG6iQohuokKIbqJCiG6iQohuokKIbqJCiG6iQohuokKITrRJ/B/l0qpEJZuokKIbqJCiG6iQohuokKIbqJCiG6iQohuokKIbqJCiG6iQohuokKIbqJCiG6iQohuokKIbqJCiG6iQohuokKIbqJCiG6iQohuokKIbqJCiG6iQohuokKIbqJCiG6iQohuokKIbqJCiG6iQohuokKIbqJCiG6iQohuokKIbqJCiG6iQohuokKIbqJCiG6iQohuokKIbqJCiG6iQohuokKIbqJCiG6iQohuokKIbqJCiG6iQohuokKIbqJCiG6iQohuokKIbqJCiG6iQohuokKIbqJCiG6iQohuokKIbqJCiG6iQohuokKIbqJCiG6iQohuokKIbqJCiG6iQohuokKIbqJCiG6iQohuokKIbqJCiG6iQohuokKIbqJCiG6iQohuokKIbqJCiG6iQohuokKIbqJCiG6iQohuokKIbqJCiG6iQohuokKIbqJCiG6iQohuokKIbqJCiG6iQohuokKIbqJCiG6iQohuokKIbqJCiG6iQohuokKIbqJCiG6iQohuokIurT7+3v38qtvWV+f/nIdP71iOkwp5+PQDH/zM+26ddv9yzz6iX13fs7z91kKOMvql1fv39KvevY/oFzdvXY6TCnnX6lMffs/T9+Cht52+af7PuXfzjoeeXsgn33mM0VeXV9f2Y333ev7P2ZxsrpXy+PLI8UW/vLp8y37ct757/s852dx7SyE3X3hsefD4oiMRJ3re8lyitxJE7yeI3k8QvZ8gej9B9H6C6P0E0fsJovcTRO8niN5PEL2fIHo/QfR+guj9BNH7CaL3E0TvJ4jeTxC9nyB6P0H0foLo/QTR+wmi9xNE7yeI3k8QvZ8gej9B9H6C6P0E0fsJovcTRO8niN5PEL2fIHo/QfR+guj9BNH7CaL3E0TvJ4jeTxC9nyB6P0H0foLo/QTR+wmi9xNE7yeI3k8QvZ8gej9B9H6C6P0E0fsJovcTRO8niN5PEL2fIHo/QfR+guj9BNH7CaL3E0TvJ4jeTxC9nyB6P0H0foLo/QTR+wmi9xNE7yeI3k8QvZ8gej9B9H6C6P0E0fsJovcTRO8niN5PEL2fIHo/QfR+guj9BNH7CaL3E0TvJ4jeD9EbCpbeTxC9nyB6P0H0foLo/QTR+wmi9xNE7yeI3k8QvZ8gej9B9H6C6P0E0fsJovcTRO8niN5PEL2fIHo/QfR+guj9BNH7CaL3E0TvJ4jeTxC9nyB6P0H0foLo/QTR+wmi9xNE7yeI3k8QvZ8gej9B9H6C6P0E0fsJovcTRO8niN5PEL2fIHo/QfR+guj9xB6j34zz4sJjy4P7iX4N58bjyyP7iX4TbjonnvjefpIv/wMCg8IJcNkeXQAAAABJRU5ErkJggg==;" vertex="1" parent="1">
          <mxGeometry x="600" y="446.97" width="34" height="38.9" as="geometry" />
        </mxCell>
        <mxCell id="3UcTS02MajumEh321Bra-25" value="EigenLayer" style="text;html=1;align=center;verticalAlign=middle;resizable=0;points=[];autosize=1;strokeColor=none;fillColor=none;fontSize=27;fontStyle=1" vertex="1" parent="1">
          <mxGeometry x="634" y="441.41999999999996" width="170" height="50" as="geometry" />
        </mxCell>
        <mxCell id="3UcTS02MajumEh321Bra-27" value="" style="shape=image;verticalLabelPosition=bottom;labelBackgroundColor=default;verticalAlign=top;aspect=fixed;imageAspect=0;image=data:image/png,iVBORw0KGgoAAAANSUhEUgAAAlgAAAJYCAYAAAC+ZpjcAAD4JUlEQVR42uydCXiU5bn+v+whQAiEBBL2XfY9+wIiCopaUVFxQ5HV9Xis9rRWPf7bWmp7elpte06X0721LtWqxaXuGyCgsouIS60bbiBbQkie/3W/M8/w5stMZvuSTJJ7uO5rJpOQTCbf+7y/91kdEXEoiqIoiqIo78Q3gaIoiqIoioBFURRFURRFwKIoiqIoiiJgURRFURRFUQQsiqIoiqIoAhZFURRFURQBi6IoiqIoiiJgURRFURRFEbAoiqIoiqIIWBRFURRFURQBi6IoiqIoioBFURRFURRFwKIoiqIoiiJgURRFURRFUQQsiqIoiqIoAhZFURRFURQBi6IoiqIoiiJgURRFURRFEbAoiqIoiqIIWBRFURRFURQBi6IoiqIoioBFURRFURRFwKIoiqIoiqIIWBRFURRFUQQsiqIoiqIoAhZFURRFURQBi6IoiqIoiiJgURRFURRFEbAoiqIoiqIIWBRFURRFURQBi6IoiqIoioBFURRFURRFwKIoiqIoiqIIWBRFURRFUQQsiqIoiqIoAhZFURRFURRFwKIoiqIoiiJgURRFURRFEbAoiqIoiqIIWBRFURRFURQBi6IoiqIoioBFURRFURRFwKIoimpfhs1xkh3H6e04ToHjOCl8TyiKImBRFEVFD1Q5juPMcxznu47jvOg4jrj0kuM4qxzHOdVxnJ58zyiKImBRFEWFBqsKx3G2BAGqcNrqOE4l30OKoghYFEVRjeHq+hjAyq0b+F5SFEXAoiiK8sHV3zyAK9WDfE8piiJgURRFuPIOrujJoiiKgEVRFOGqBeBKxZwsiqIIWBRFEa481la+zxRFEbAoiiJceS+2cKAoioBFURThymOdyvecoigCFkVRhCtvtYrvO0VRBCyKojoyXF3fynBlOr7zvacoioBFUVRHhauKeGEpJTlJUlOSYvm/nF1IURQBi6KoDglYW+KBq4y0JOmXly49uqUQsCiKImBRFEU5jrMhPrhKlpNKesq1F/aT7l1TGCKkKIqARVFUp4erjfHAVXpakswp6SkfPV4iX72onyQnMcmdoigCFkVRnRuuXo0LrlKTZNa0HPnnUyXy2boyGTssi20aKIoiYFEU1WnBKslxnNfiDQtWT+khWx8qFvlstvzg+iEmD4uNRimKImBRFNVZ4WpLvGHBqknZsuPBIpGPTpBD6yvk9IpeHJVDURQBi6KoTgtYm+P1XJWNz5Y3AVfvzhDZWSXP/WqCDOybwWHPFEURsCiKYs5VLJ4rwNW7fy8WeaNaZGul1G+pllsvHyxd0qMOD+7j34SiKAIWRVHtHa5ejjehvXhsd3njgekiO6pFXikT2VYpn68pk1PKe0pS9NWDC/l3oSiKgEVRVHuGq/XxNhGtmJAtOwFX26tFNpSJrC8T2Vkta38/SQbFFh4cyL8NRVEELIqi2itcxd3nasbkHvLWQyUir88Q2VAu8lKpyKsVUr+9WlZdOViyMpKj/b7v8m9DURQBi6KoTglX8FzNnJojbyDn6u3jRTaWi6wpE1lXZjxZe9aUyZzSnrE0F72Qfx+KoghYFEV1Srg6YXqObEefq39acLW2zOfFeqNa1v1ukgzIjyk8OIR/I4qiCFgURXUquMpMT5aZU3vItr8VHYMrhAXX+QHr1Qo5ur1abr8qpvDgv/g3oiiKgEVRVHuDq/gGN6cnyfFT4blCn6uZvmT2l/xhQQWsLZXy0UsID+bEEh68mH8niqIIWBRFdaJqwWSpnJQtb68uFtk90++5suAKerlMZEeVrP/jFBnYJ6bw4DD+rSiKImBRFNVe4GpNPHCVlpIkpeOy5Y0Hi0Xe9MPVmtLGcGXyryqk/vUZ8pPrh0tWZtThwQ/4t6IoioBFUVR7gasX420iWj4efa6miWxFE9EKH0ytK2sKWJsrZc+6SvlKVS9JTYm6e/t3+feiKIqARVFUh/dcoVqwelIPn+dqa5WvQjAYXGl4cHuVvHzPFBncNz2WnzePfzOKoghYFEUlOlyti9dzNWtaT3kTOVdvzDgGV6G8VxvKpWFntfzs68NNvlYMPzOHfzeKoghYFEV1aLiqmpQtO0y1oL8VQyjPlQLWpkr5bEOlnDEjN5bZg1v4d6MoioBFUVQiw9XaeOFqxpQe8up900TentG4Q3sorfd1b99491QZEFv14On821EURcCiKKrDwlX15B6y5f5pvvE3G6wmos3p1XJp2FYtP7thuJlPGMPPzuXfj6IoAhZFUYkIVy/F1YrBHxbcct/0Y7MFXyoLD1fQpgr5Yk2ZzI8tPLidfz+KoghY7UBJSUlGhYWFzimnnIKNx0lJSXFa6JYahTy7paWlmd9Rb2PHjnXOP//8wO/upfCzevXq1SLfm/JGjuO8EA9coaVC6fjusuXeqb6EdrRiWFMaGVyhenBzlWy6e4oMLogtPMi/YccRbEWXLl1a5HvDxsHW6U3tUxvZ9Ra56V41b948s4fp7869nYCVMICVn59v4AqLLyMjI7AYPVx4K/3aF0QNfrmf1/8T8yJVsAoGjMOHD3cuvfTSFjFsLWUwKU/g6vl44ap4THfZ8KcpItuqI8u5soUw4mtV8rtbRsYcHuTfseOopWwFbBtsXDAgiQO0UiO06ftawp67b7pHZWZmOunp6QaysJcRsAhYCaPs7Gxn7ty5jS5chSyPgEoBKtZNrcG1SKNenFh8aly6du0aeH7YsGHOhRde2CIGThc61XHgytehvbu8etdUkS3Vzfe5CqXXKuWLF8rl4jn5sbyG7fw7dhy1lI1YuHBhI7iCzdNDptrCNrLpDV7Y8+b2qpNPPtnsadzbCVgJofnz5wcuTpym9GSTmpoa7SJ0L0BpAdkLdGW4hZmcnBzyd9HfEy70OXPmELA6PlzFnXNVPiFbNt07zTQIbbbPVbPhwUpZ96fJMqxfZiyv4zT+LTuO7JCWV0IkYty4cY1sXCND7beFahsjsOn7WsGmR2TPQ/0u+D2zsrICz5955pnc2wlYiSE90eACjSH3KrUVoCrmhWmfboKFPPX3nTJlijFKLZGPxY0kIeAq7tmClRN7yCYktO9CzlUMcBUID1bKz/5juAG2GF5LL/49O4ZawjaMGDHCmTRpUshDpW0Dm4lStJVNjxm09PfV6ARChtzbCVgJIV1otusYF2gUbuPWBquoF6a10QbyzHCCs4Hy+OOPZy5Wx4SrdXGHBcd3l433TPMNbn41SqgKyAdXnz5bKgtm9Y7ltWzj35O5V83ppJNOagQcsHGwderJsu1ggh2WYwYte6/SvYyARcBKpHL1Ru5VLPxQ7uUgC1ESSA3BFiUMTTDPnBoaPenha5YtW+a5EaUXq03ham28Ce3lE3rI2j9PEXkTCe0Y3FwaO2BtrZJnfjVRBsXWXLSKf9OO473yGrCQ1K6woTYtlNc+iHcrUQ7LwUArZI6W7lG6Z2m+GW7c2wlYCVNF6F6MzeRfJeJCDLUom7iQ7dMOTnf6e6r3DiXTK1eu9BSw6MVqn2HBlOQkqZyQLRv+MlVk94zw42/CaWO5HN1UJd+7aqgBtyhfz9v8m3Ys75WXdmH58uVO9+7dm+Ql2XlWsH0h7HpqAnitmlOz3iz7d9LfF/fc2wlYCePBiiLfqslCTEpKkuTk4MNq8Tw+H+xzoZ53f8+UlBRJTU095lVITTXPxbMo7QVph0bxeOjQoZ7mYxGy2gSuXowLruC5GpctG+G5snOu1sWhzVXy0bOlclplbiyv6Uz+Xem9CqbRo0cbm2XbMXffv3giEc3Z31B2P5z9x3Oh7H9aWlow+94QbW4W93YCVnsCrNRgCzE9PT0kNAVbfO6FhYXU3CK1v7/7a5sDtGggCycg2zjB+F1wwQWeGUCUDLPxaKvC1XPxeq5KxnaXNb+bYuYFYqxN3HCF2YOvV8uzv54kQwtjCg/24d+24zQWhU3w6vvBVtkhMtiyCCrAI4Irtz23wcdt+92HYzckhQKtkOF5C+rCRScIWASs9gxYqZHkW+HkATW3aHThKSzpYywmLNiMjAxzb38PfE88b4MWPo7Ai2VDVkgPFmSf9vAYOWnoJePViZUtG9oPXKGJ6PO/nmQ8TiYsuC5OuAKcvVImdTuq5fv/PlQy05OjfV1v8G/bsXpfeZWXiR5+NlypTUOeVZiK8IhyaIPZWnwMm2xDEuw3ntfPqZcLNl4VLmKB/xNu/7BseioBi4DVEQCrWbjSheH2QtneJnwNPu7atasUFhbKxIkTZfbs2XLmmWfK+eefL+eee66cddZZcuqpp8qsWbNk2rRpMnToUMnPzw8KVjHG8FNDjVmwuwHbkFVZWenpqZWbS2KPvwFcVUzIlnV/mCoNaCKK8Tfxeq5UWyrl8xfL5YwZMVUPzufft2N5sLz6XhUVFY0Ohwpbdn5prAdmt4KBFmz0kCFDZOrUqcZ2n3baaXL22WfLeeedZ2z7/Pnz5YQTTpAJEyZIQUGBdOvWzUCUAlcwT5c7JBkrZHFvJ2AlOmClRhKfb+7z8EYNGjTILL5LLrlE/u3f/k2uu+46ufbaa83jr371q0Y33HCDfP3rX5cbb7xRvva1r8nVV18tK1askK985SsGyHJycpqcbsLF/6NdkHZfGLjZ8fEVV1zBasJOkNCe6u/QvuGuKSKv+2cLrvMIrvzhwXW/myzDY2sums+/ccfJv/LKDsA26YiYKCZwRAVX7pQM2GDYYthk2GbYaNjq66+/Xr7xjW8YwX7jY9j1a665xth52Hs8vvTSS83hevDgwWEPy2Hse9icLO7tBKxEBqyoqwWxYHRRdO/eXUaNGmVOMpdddplZYP/xH/9hBJjCIgRQYRECuP793//d3GNh4vO6QPH1uL/gggtk0qRJ0qNHj4ALOgJXcsQL0m7VYLvap02b5plB9DLvgvK2FQOqBdcjoR2Dm1/1EK781YO126vl9quGSNfMqMODO/k37jjy0gbANtn2Sh83ExqM2qbboTvYXthg2GLbNsNWq72GDVfhY9h4teew+fg/sPVLliwxe8Nxxx1nvFp6WM/MzPTMpnNvJ2AlMmBFFKOHh8p25wKw+vfvL3PmzJHLL788AE1YXFhoClMKVPq8vTjtRYvTEeAMCxVfe84558jIkSMb5QDEsCCb9FGxT4BqoABY+PyVV15JwEpcuFofL1yVjcuW9XdN81ULbiz3LiwYmD1YIZ+vLZdTK3vF8hoX8O9MwArmvdJGogpVbu9VkD6GMbXXga2FzYXt1YMxbLJ6rty2Ww/QED6GrcfX4/P4HCAL/w/PX3nllXLiiSea1BE7GoLHoZLoI41McG8nYCUqYEXtRtaTzujRo2XRokXGVRzsZKPP6fMaMlTPle29sk9AWKBYkFicWJQzZswwrmov87FsV7vdeBWDsNnVPSHhamPccDU+W9b9earPc/VKC8CVaS5aLZv/MlkGF8SUP1jIvzW7twebN+jOuwozyDmmvCvYWNha2Fz1PsEWa0qH2mk9FNsHadh2t73XvUAfq1froosukjFjxgSgKsroRFCbzr2dgJWogNXopGP3JcF9VlZW4Hk7JFhVVSXLli0LnF7sHKtYhe+hHi9IIWzlypXGxdy7d+8m/Vb0PkR+WENzVYXBbugM7AVkIbmVkJU4nqvy8ci5miqya2YLwZUPsGp2VMuqa4ZI1y5Rhwd382/dseDKiwR3DKaHJyzKW1DvlTvPye4/mJeXZwqQkGelB2A7BAjQite+wwumXi3sHRUVFaYYSu23Riqw59h7kCsJPqhN595OwEpEwGpy0lFgcZfa6gWP2HxpaaksX77ceK4AQgAjPI53AarLWV3KeurBPU5VqEREJYv92iJsQhpRLxV1wa9YscKT8ADDhG2fc5WS7Jg+Vxv+OPVYQnuLwFWZ+d6fvVwu8yp6mSrFKF/rQv69O1Z40Iv1j3Fetm3yos2O2kwFrD59+pjKbthY2+bCBitseWHb4QVD8ju+Lx4DskpKSiQ7O7uJLdd2DyE8XE1sOvd2AlYiAtbKYJ3aNYldn9NkRHyusrJSrrjiCnMKwSLBAtSYe7wLUOP2+J6ANvWKqZfsm9/8pqlKAWRFWtkYjRdLS6CHDRvmSQURAautx984UjSmu7z0m8m+PlevVLQMWKm2VcrrD0yVQX1jCg8ORHpNOxYIIJnX7THA8qJgBl3bQ80ZjMZ7FaoaHHCFvCjYVi1Msu2vhvy88GBpKFGT5jUFBHuKe69xPw5n07m3E7ASDbCCnnSCdeTVCx3lukuXLjWLUcN5WCT2wok3RKheLHVLqydLc7fwGJDVpUuXaOL3UXmxkJN1zjnnMA+r7cCqwnGcLfGOvykZly0v/nayNJgmoi3ouYJeLpcjr8+UO64fJl0ykiVB57y1hjC26LuO48xzHCeH+Vexa8GCBc3NFIw590ptJmwobKnmVNkgpIdmO382Xvuu9lzzbKGbb77ZeLLQO0sP9m6bHuIQ3cimc28nYCUaYIWM0weDFlQLAq50wWm1HxYhYutehQjt1g22e1qrUG699Vbz86ZMmRJYeBF0BG6IFLBQoYPk0UWLFhF22gauro93kzetGCb2kA1/nioN26taNiwYaM9QIXtfrZK55T0lKcnpzIDlFkC5gtd29Fq8eLGxR0EqBJsDrGa9V5rPBNsJGwpbCpt61VVXBbxUdrJ6sGKkWIWDOX6eHsw1BAmhlUO/fv2CpqqE6JHVyIvFvZ2AlUiA1exJR4FFL2xUe6Brr/a3UuDRJnP28/HmX+n3Vs+VvcA1mR4/C41M4d7G69PeKmG0MtIQIW5jx45NqEaDnQSu/uYJXE3Ilo13TZGGN/yzBde1MFy9jPBglWy/f5oU9k4nVAXX9WwwGp0mTJgQS3J7s38HtZVIs4ANxSEZNlXzruxDrV0Nrp+PNwdLIQ7fT7837DmenzdvXiDRXaeDhGnRE+iLxb2dgNVuAMt9YaOkFicPeJC01FZj9F5WEdp9VLR3lt0rC14yvAY8h9eAkmK4uSPsk7UvkkHQekMF0Lhx4+LOw2CYsPXgKi01SSrGZ8v6PwGuZrRgtaC7e3u5HNlWLXfeMEzS05IJU6H1Nya4R95YNC8vr0lj0XjDg/BgIeUDtlPTO2BT7QiE2l27p5UXHizdLxSo9LCM5+BBw+tA6x+772KYHNt9BCwCViICVshESL2g1XuFCo8zzjij0UlD4+h2+a4XlSbu5nX4mXazUixIuJnxGGN2UFI8YMCAgNfNqzws7Y21ZMmSuFs1tIdEdz1xhxNgsSXkBVylpyZJ1cQe8uo906ThTTQRLRNZ0wpwBb1aLntfrpCTy3IYHozAkxXqOojk+msPHmGs+XhbNKB6sFu3btF4r8ICltpI2EzYTthQ2FLYVAUpPdgGs8FepH/o99OPNRcLgIfnMZJHqwp1D2pmVmEgTMi9nYCVaIDV7EwojYGjqy9OF16V6sYjlPhqczuFLoQuI5xVGLaa0PKmmNvy5cs7BGBhY1JvWn5+vlNYWBjYrOzP6cm7NeWV56p8fLZsvn+6NOye6evQ3lpwhdmDmytl51+nSQHDg5GqIpZrxb5W9drF9Qxp1W4ieIy9ACw93LmH1MdTPag28tRTTw0clO3Ui7a277Dr2Guw57jzsMKlfnBvJ2AlCmA1e9KxTwt4jIaiXvZCidfDZXcPxj1mZaFZXYTDoKNqOjp//vy4jCQMvxfNBqNpC4GfB+lJ34YoPK+bUYcJC/oHN2+9D54rfxPRNaWtA1fQhnI58lql/O/XRxjQIzxFlvju5XWv17wNX8E+11rXva6zeL7H6aef3qQ/X7z5V7CRsJWwmepJUk9VW9t228ajbYN7lE64yAT3dgJWIgFWQyQ9UjA64cILL/SsQtArF7MaB43dY9B0hIY9KsBCHkRbG9rmNhV709DO0e2l95ZX1YKlY7Nl0z3TTJJ5i8wWjGC4896XyuWsmbkMD0annNb2KNmer5aELi8OVpMnT/YcsCAMXIbNhO20q/gS4QCt1YXnn39+IEwYAWA1ELAIWO0GsGwhVq9hOS8aiXq1CLXTuxqGmTNnxj2bMFg14YABA+ICFgUhrzxTGv7Q59prhaK/z1XccFU+Lls2YfzN1uqW73MVqnpwY7nsvn+6DOiTQWiKTvPaOu/QXkPBDi3xHKzi+R74vwjj28OdvUhwh2ArFaY0f9aL/CovIxTYczS31t22gYBFwEp0wAoZq7fDbHiM5m82zCQCXNkJ9toq4uyzz440RBgRYKlhy8nJcUaMGBH36TnWkIcbqDpQxeCWeHOuqiblmLCgbLc8V60NWKgefLlCfnfzSNPYlNAUlb6bqN3X7bB6LMAV71pF9/bu3bsHqpoj8GBFBFiwkbCVsJl2sZLdFqetIxS612DvcY/OaS63lns7ASuRACtseBAlsijl1Ys+EeL0WuFiV7fg/tJLLw0MpY4HsNRzpQYNlYQzZsxo8YRXDVnYhp0d2kPD1YwpPWTbX6eL2K0YWhuu1vqqB99/qkROrepJYIqh43t76ciuB51IBrh7EaYvKytzMjIyGoFVmCT3iAAL+VewlTbIaHQiUQBLk+2rq6sbVYaHCRMSsAhYiQ9YekrAPRLcUaGnizARPFh2ea+d7L5y5UrJzc2NxKg3RAJY6pKHkTvzzDPjzseAF8xtmIOVp7NDe/PKSEuWmVNzZNv900W0WrC1wcoajdOwqVKe//UkyeuZ6g9jdF7F+DdtV7ML7RyuYC0j8BzWerx5l6eeemrAe6U2KQLACpv20bt3b2Mr7fSKRLDrtn3X14Omo4CqSCsJubcTsBIesOzTAi5sTFjHItQ+KYmyENW1rX250KCub9++cQOWnhgxKkcB68ILL4zb3f/UU0+ZnIqBAwcGEmDjzdPobE1EAVcnFfeUzX+dJvK2tmIobRu48ocHG16tkmf+Z7wMKcyQwt5pUuBX//z0TqNBfdPN7475izGESXPbc7d2XcdY01jbWONY61jz8Xzv888/PwBYetjzArAKCgqMrdTJGzoT0D2LsK2E14LeXHhd2HuwB6nnKswoNAIWAav9eLB06Cbi9bjgverk61USJLrK67gFzSWA8YgXsGy4AmzBuC1cuDAuY1lcXOxUV1cbo5tILRLak+cqOcmRmVN7yFuPFou8e7xpjdBqfa5ChQfhwdpQLu8/Nl1+d+twuXFpP7lpeX+59fIB8p2rBsl3rxkkt13dsbXq2sHy428MkaXz+0h+rzQDwVH+bcd1lNE4WNtY41jrWPPxfL9LL7200VSJCIY9RwRYhYWFpoLQDg0mSnjQPYv23HPPNXDlbnxNwCJgtVvA0lMC7gFYZ555pmnRoB6jRFiAahjsOYiQFx4s+8SIe0AWTpPxhghxuu2k42/irhbMTE+WmVN6yO7VgCu/5+qlNoQrt14pE9lVJfJ2taUZHV/vzhD5bJbs3VEpK87qazxYydGHCvt0tGtevdTxfI+LLrqoEVRF0GQ0IsCCjUSFnj1fUNs0JIJtt/sbLliwwKSpaB4WPVgErA4RIsRJARczLmzkYLmHgSbKCQevS5Per7jiCk9ysNygBcCKNwerE88WTIo3oR0ekbIJ2fIO4MqMv2nDnKsIcrKM1pUn5uvzuj3F1gr54PliuXBOnqQkx/T3fYPrJLjOPvvsSLxWUQMWbCQ8WOr1hw21D62JAFh4bbjHyBx4rwBZYeCKgEXAal+ApY9nz54dGOycKB4sTdDU/Cu8LlTGdO/e3bMkdw0RIlx44okn0ujHBlivxDVbMC1JKidky64Hi32tGDYkMFx1Nm2plD0vlsji0/JNP7IY/8a/4joJrrlz5wZSFSJsNhoRYHXr1k2WLVsW8Prr4Vk9R4kAWPp6sPdE0KKBgEXAal+AZZ8WSkpKGrVDSJQyXg0R4h6ghVAmQprxApa7oV+PHj2ciRMn0uhHD1cb4825mjU1R/4Jz9WO6sT2XHUmveyDqw+fL5ZF8/LigSvoEq6V4Jo6dWqTQc9eJLnDRiK3Se0pbCfyWRMlTKg9ufBaioqKIgUs9sEiYLWPRqNu6aDnRGnToOMd7JmEEHqmNDNxPeo+WHpDPkVH7UmVqJ4r0+dqcg957x+lIjurjyW0E7DaVvg7bK+Sfz1VLOeflCspyXE3Vh3B9RK6l1bfvn2jDRGG7YMFG4lO7mpLtUhIP04EwMI+A+gbNmxYNIDFTu4ErPYzKkcv6J49e8qiRYsSJjxoQ57mYmExYr5WBHH6iDu56w3zwGjwIwar4x3H2RnPptslPVnmlPSUdx4r8eVcbShrmyaiVOOKyfXlIq9XybtPFMvZJ3gCVx9xzTSvsWPHRpvkHhawYCNxaNYwnNrQRCli0miJpnzYRVcELAJWewKsfeFOOgpa6EeSKKW87pE9eF1Lly6NtIJQASvsHELNd0DJNY19RHB1oxezBU8p6yW7/l4k8k4CtGKgfHDl91y9/chUOWtWbrxhQdUZXDfhu7lrykKECe8RzSJEojuajWqLBs3DSoQcLLwGvBZUECpYRZB/tY+ARcBqF4BlnxS0PHbUqFGB0QpaTaizq9DCAYsCYUStSGmNBqN4DejPhdeDjr8RhgfFHx51Ih32vGjRok4Rjhg3bpwZCXTGGWc45557rnPxxRc7S5YscZYtW+asWLHC3C9fvtw8dstxnEfi3XDhEUFYcDf6XL13vMj6MsJVIgieqx1V8taj0+Ssmb0kM90TuLo92HUE4Rqzrzlcg7gWcU3i2qysrDTXarwD1NuDYHvUFkXgwYqogbSOQJs7d24gB0tteGscoPHz0CZCH+tYHOwdeB62HfcaHlS7bo/MIWARsBIdsCJajHpR5+XlyQUXXBDId7Kb02mSub1YWjpGj5+l/a8AdiNGjIi00qQhUsDS21VXXdXuDfXo0aNNqwlsXldccYXpTH/SSSeZRNphw4Y5ffr0MXlmOv4jMzPTNE7E6Vm/Bzx6weSF5wp9rk4syvGFBQFXidbnqtPmXJUZz9U/n5wuC07oJWneeK5eCnUt2dLrDtcgrkVck3p94lrFNYtrF9fwnDlzzDV9+eWXm2sc1zqu+fa+bmF7okhyjyi3Vm0kUiouv/zyQFsEQFZreKgAT4ApbbHj7iKP13PeeeeZkT7uSEq4QzP3dgJWIgFWs3lYOotQvVrTp083i0OrTrQPFR5joWi395ZeoOol05+F6kF9nWGGgUbVAws3GHW46duTUUZIE6d+GGdAFPI4kCzbtWtXs3Eh1OA21HgOvysGW7sNuhuuguRcedBENEfe1LDgxgqRl0oJN4lQLQi4eqZYLpibG2ufqyaeq3DXb7Brzb7ZBwD3tYrrGP8P1zGueVz7WANXX3216Ywe79D2tggR4vf1sheW2sjMzEw5/fTTG7VpaI0kd+wVGLumUQ8d14O9BT8f/QxRPaiv045MhLDvAZvOvZ2AlWiAtS9cDpYKye6AGRuq9NSjvahaY4HqYsQCxf2QIUMicSHHlOA+atSohB88ix5d11xzjfOVr3zFOe6448zpHvMT7bYT7o7Q+pxuSM2FScOEJ+JKaE9OdqRyUg9575ESkZ0zfOEoeq7aPudqra8Vwydry+TiU/K8yLn6CDlX0ZBCBNde4DrGvco+NNgz/ABlaLmCNYK1gjWDteMewJ5ogg3yupJQ29nA84+5hLDbWineGvZbU0z0wIzH2FPwGI2tETGxU1bUexUiDWQfAYuAlYiA1WyY0D5BaF7WmDFjzILUfCx1LesondZKglfImjVrVqPO817lX+kNeR+JZnCnTZtm8lPw2rBZuL1OoTYrN2iF+ppQngP3xuc4TkG8fa4qJmbLOw+jiWi1D65YKZgY3egBV2tKZcnp+V6EBd9yHKdbFMUSIa8527MVkjD8YBVJzhLWDtYQ1hLWFNZWoq13vLYIw4MRp37Yth3tbTQa0BpteOzcXUg7yuNz2FuQ7+vOB9bXG8KDFbDp3NsJWIkGWE1cym5QgWcISZF4nJWVJVVVVQZubrnllsDi0DLf1ggR6gno/PPPl65duzaKz4cJEUaVfwVDvXLlyoQwskjqve6665yZM2c6vXv3DoRHNCyiNzyvYUB0gYbcUBVqI1PAiuJ2dlxhwck95J3VJceaiDKhPTFaMWyvlE9eirtDu+pNwJXj4S0UYNmVv/YattcBPm+HFu1wOZ7H2po1a5ZZa4nSXBg2yB0OjScPS22kevx79OhhGo8CdlqrTQP2DfuQjr0EHizAHvYYhT/3kOcgh+hGKR/c2wlYiQhY+0KNyQlWJoveJHPmzAnADlzLAC7tp9IaZbxnn322jB49uglUhQGsqMKDQ4cOdQoLC9sUqq699lqnqqrK5E9FkejarIcqHGy5PVi298D1/38U6/ib49Gh/dESkTdm+HKu2OeqbbXG34rh9Sr58NkiuXSeJ2HBXXASRXudBvOi2tdgMx7VwP+PZ43Y3i2sPYQSR4wY0WZ2ADYItsirMKHactumoy8WEstb44CMnCv8HAAVpNM4TjzxRAN79uuMtD0DAYuAlaiA1eTEY1/UNrDYz6PnFAZxKlRpZZ+W37akVqxYYQwCXod6sEyDyi5dPAsP4mTbVvMHL7vsMmfBggXmNK3AE2pjieaE39z/s8MvUdw2Rj+4OUmqJvWQ1/9WLLJrps9jYndoX9sBtS7BG6Wu8XuudlbLB88Uy3knetLn6nXkozstcIsFoMJd38G+n53TlZeX55xzzjmmeKQtbAJsUZSDn5sNE9q2EsnuuB8+fLipKmwN75XmeukkDuRd9enTJ5KGos1GJLi3E7ASEbBSI21QZy8AlNECsrQbsPbH0kVkdwqG8DmcWCIp49U2DHiscXr8/4suusjAnRqFKBRYjLYxtb06+rwacJR9t+Yp9frrr3fGjBnjtJNb11jG38wt7Slb/jZd5L1ZIpsqfPk+8Jxs7CRKxDwz06G9Wj58qkjOObG3F32uUPiQ4XTQGyoTsVYxQqu17MNFF13UCCwVtuxiFpdtCxkmxKEZNtwNMgjN9evXz7TjUZurxUvwMEUanUAelVYGqkdMc6x0nq1GPPDcqaeeagqoImyz02xEgns7ASsRASuq2YSIjdtjdGbMmGFgCnF0LCAsSl1IdlUKFm0kjUhtrxi+180332wW5BlnnCEDBgxoNNAZRiKC1gwhw4N2FZ19wh0/fnyrnUzPO+88c0LWPJB2cjspmk23a5dkmV2cIx8+XSry4fFSv6VS6jeWSf1r5VL/asdUg1/1r5SJvIbE8YrEG1gNuHqjWj58plgWzu4tXTKSvQgLdnE68A35XLjl5uaaBPTW8nRPmDAhYKfUTuh9EM9cRIdmN9DAtg4cONB4lLSdgoKRVvtFMisWLXt05I3acj14QzfddJOx6cjn1bAgbHkUzaKD5tNybydgJSpgReXFwsJUsMGiHDt2rInh62LSBYVFpC0dIu0UjMWpfbbw9ZdddplUVlZKfn5+0NOYbSSacS+vtF3/apSC5SThhhNqS1cGoTlifn6+KR8P1psqwW/XRbPxHje4i3xtUX957H/Gyp1fHyo/uX6I/ORrHVg3DJE7rh9sdOf1eDxEfvv/hsvuB6b6PHbrEyChHX2uXq+ST9aUyIVze3sRFnyjo8OV29MNDxLW8Ny5c52zzz67RW3GDTfcEDSZ3y50cdmzleEmdcB+BoOa7OxsOf7442X58uWBA7PdezCSKkEcumH/dQSP3SD6nHPOMTm0mmjvtuOxHpi5txOwEhWwIoYsu9+ULlYsjv79+xsQuuSSS0ziOzxW2uFdTz+RLFD8P/x/LERUt6BsV6sY3e0Y3EAV4gTU6LSjxsg2Urb7fciQIcZotoSRRG4VEmf79evXKGeqDW+pMao8ms23Z3aqDCnMkOMGZcrAPukyqG9GhxZ+x4D6pkvf3DTp2ytNfnXTcNMCwST2t3Wfq9er5MArZXLJqXletGJ4x3GcXnFcT/GqTWELt/79+5u13VKpBUgjQFgyWMGK2hBXnlbQqIRtIzUCoHbV9iIhvxUQhIOzVvtF2sZB00Vg93UfQAPRxYsXS0VFhRQWFobN842lWIl7OwEr0QErbKjQ3dBTqz10gWLxlJaWmlj+kiVLzGKz86giqRLUkw6+jxum7BBlqBLkSBakfRLVbskwUCjR9to4ovQbzQ27d+/eyAjafX1wr+GHFoKnlS7tC6GGCCVUdDlod3//ODPXTzZUtE2ocK0/qX1HlRx+tVyWzu9jCg88+P0aWlGhrtuVQeQ5hGGNKtDY3iT1JKE4Bd6slhgSj4pGtR+wWfbPjjcq4a4wVHurfbI0IT2SSRvalR1gtmzZMtNSp6SkxKR4uH+e26MWYWiQgEXAaneAFfGixKIAaLlBxx5Zg5AeKlPmz59vgElnTkWa5A5hiLMmtIeCKhvwoqketEOFekM5tpfJqzh1IkFV2yy4vWYeeq+CgVQwYCLstJGOG9RF9r5Y4vNgvdwGVYVr/U1Ed1QbuFruHVwlqtxAFgy8POnLFazCDyB2/vnne+oNh22CjQrXqiKSasLm2iBoxADC9A7AUjRNSNWDBduPbvHozB6qVyGex8+LsHqw2VY73NsJWIkOWBH3UXGfQnBvNyVVIZaPpEatKIw0hq9Vh4C0UN6zCPqlNEmGtD1X9sdIWv3qV7/qiSFE8inyuAYPHhxw5+vPw+fCjaiJEqrcMEWgSTClJCfJ4jP6+MYBIQerrfpcvVEtB18pk2Vn5Hd0uIoUvKIGrlAtHbCuIV3/ut6RcoD8Ka9G8sBG5eTkNIGrEO0rgkYk1F4HO5jaIcTBgwcHCpYizaHV/oiw+TNnzmwCbnowd/dXbCbFI+I+htzbCVjtAbDCVhXaSe5uV6+dl4XFBBczFmgkLRq0CkW7/OJ+woQJTfKuImxC1+xwZ7uDM26VlZWe9bFCeCBYflco4xxFgrvbQ0WgagfK7poiq+8YK7Jzpsja0tb1Xr10rFrwi3UlctkZ+abZK/8uIYErYtgKd0iy1z2mMHjVRwtDoN05pbEOf7btqm1nAUNTpkwJtFVA8VEkUQht0QM7jpxcTaR323D3/hHGnkc0hYN7OwErIRRqJIq10adG07qhOaFDr8buI/FgITSoA0jx9QsXLoy0FUNU7RnsW69eveIGrAEDBpiQgHqoQjX0jNFTFTVUBet1E23ZdrDvo310uDFH2jfOkfHDs+TQunKRzVU+wGpNuEJYcFe1fLamRC6Y29vkgrXl+9FcqF83Yluh+jhF07cvyus1JtgKB1o6tgc2ArYiHlsDWwWb1ZxNizUPy44WIHdKR5OpTY6kzY7aeZ0V6z58x9jDMLU5qMWexr2dgJVwgIU2ASEWacyLMx7A0kHOGlK89NJLA11+vQAsd3M+uO7jTWxfvny5GRqrA5XjGdcRIvzXEO2GEm5jCeai1w1MFcUQbaqZ5PYl8/uI7PaHB19u5VYMu6pl77oyWTint3TNTPYEkOJRdHCaFPCWq6IFqEjXQ4SwFVMIUZPhNTVg1KhRzuWXXx6XzYHN0uKcULYtHhuOhs6o+lPAUpvcBoDVyIbbe5T9+xKwCFgJCVihkjStUOG+1gQsxPrt6e5o2VBUVOQZYLnnlg0bNizmRNTs7GyTxI65ZZGOqonQW9Vq4T9118N7ECzHrbmNjwAWXrnZKXLfD44TeWemyLrS1oOrdT64+nJ9mVx8Sp5065KcYJ692K4hzeNpZU9qxF6tZhLOG91gM2A7YENisT2wWbBdwdo1eAFYsLnajzDS/NkWAKx9zRUpuYuGuLcTsBImB8suN8Z9kNNP1F3evQAs5F7pQFD9P6hGiXTzj6ZFA244TcYCWOh3M3LkyEZQZXsDEwmsbMMWqRfB9h4ofOnfgFAVeXhw0sgs+ez5Yl+Ce2uEB00rhlKTc3X4tXJZfFq+J2FB24sUjyIJTeF6c3tRI/FANdcjz0OFBS3bTrhvsLN2ewfYkIULF8YEWLBdYdIPYgIs/A1gc22wirSTu4eAFTLvSt9Du+Erc7AIWAkjTezu1q1bkxEQXsbxYwUs9M3SxqRwT6OfFmYfeu3BMkP1unZ1li1bFpVxW7p0qankaQZKI8278hys3CGRUBuT5rzohmYbwXCG0C5y0OaE0YZ/OoPQHf3iU/NE3qoW2VTpq+Zrabh6qdTMFjy6pVJWnNU34aoFbVi3C2IiuX7s69K+dpvLHYwzRBhpblBqjOvf2JCePXsamxKNDVqxYkUjz3mInxWT7UZbhaVLlwZGm9k2uRUBK2TVoD1SDL0F9Tnu7QSshFBRUVHQi7WZqpiYvVixhAjt05LmZKGa0AvAsvtfqUHCPMBIjNqkSZOck046KeCpsgEryiahLeaxChd6CfU5AJO7S7+ClPv/tMBm1fG8V44jPbqlyK++NVzk/eN94cG1reG5qpK6LZWy8uy+0iU92dPryQuF8jbpx26PlxuegvXf0+8dKkerhcPZDdHkaLltrtoQ5FNhfBZsTKTjttzNToOkesTUbHTixImBxtBa0d3KHqyGcP0L3b8v9jTu7QSshBDCW1jI7ou2mdNWzF6sWABL5xDa/w9T17t06RKL8UsNVWKtUIQE9XB9as455xyT82BDqHueYajqzLbIsXIbMxhOHZSteVcKVRiLAQ9hv379ZMyYMTJ+/HiZPHmyTJ8+3XRgLisrC6i8vNwMacXIC3Tax8ezZ8+Wk08+OSA8jxFHaDYbxQDXDlk9+K8npou8OcNX0deSfa6Q0P5GtdRtqZDLz+4rmenxwwSKS+y/qxeaO3euucc1g2sH1wrK+fWasq81XHu4BnEt4prEtYlJEbm5uZKVldUonKjQhWvcDWCtdBiIKBm+uWbDeDx06NCwIUPYKtgsd6pHPG0aVHhfYWs1PAjI0khCJKPOPAKsfc3Zbff7iL0Mexr3dgJWQgiLFIsYTfAi6KUStiuw14Bl52LpPaoJe/bsGevpstHNzpXSJqBIOA1l0K699lpTFq0A5W7DEEFSa6smr+up3R4v1L17dwM8kyZNMs1fL7zwQvP3+N73vic///nP5a677pK//e1vsnr1ann00UflySeflGeffVaef/55eeGFF8z9c889Z4TH+NzTTz8t69atk7feekv27t0rhw4dkgMHDjTR2rVrzfd8+OGHzfd94oknYtYzjz1u9NQ/fB8/+uSTRo885dPqfzwmTzz5hDzx+Gp5evWD8sI/VssL998td9x0gyw+sVp+XDw8JkVdbZfkyKWn55tEc3mtomXCg2utPldv+nKuVpzVxxO4OuWUU4L+LePVwYMH5YsvvjDXDK4dXEO4lvQaw2O9xvRjXDOPPfaYPPLII/LAAw/In//8Z3PN4trFNYxrGZs5QAzXOK51BXv3WmjlZPiou8HDliD9oLmmx7BV7sOdu6Iw1shDTk6OsbWaB6thwlZOcg/b88pu5IrWF3hfuLcTsBIGsKAzzzzTmTx5chO3tZdhwmgBSxcomtXpiB11U8OA6inVXTLeTAJ3yMWqZdO4nz9/flBjhuaAiPNH8P7ENeMxlLs+mCequeGt+v7gpA+YwkaJSsw777xT/vrXv5rN68UXX5SXX35ZXnnlFdm0aZO89tpr8uqrr8rGjRtlw4YNYbV+/Xrztfge+PiDDz6Q1rvV+9QgRoelxkjqxKd6fO6oNEi91MtR82VHG+pFvv1v8k75INlb2idq/WlUTtSbbfesFPn9t0eK/HNmyyW3G68YmojOkP0bykxCuxc5V6tWrWrxvyKuGVw7eh3imork2oPw9bhm9brF/33ppZcMkN1///3yk5/8xFTA4drHGsBacE+YCDULz10QEmO1YtRhQ7ddQn7V4sWLQ3rT1R6FyQNdGc7DrWkBalfwfmmTZ7XBuNdqwlYArLBNRRVGsXdhD9P3hXs7ASuhAAs65ZRTnOnTpzdKGPQyTBiLBwvuaICVerDUVX3SSScFQgLBjEWIBdzE3RzMYweXu9sNv2DBgkau6Ag9fXF5rYIl7bp7VrnzofB+9OrVS4477jgzZBvv1W9+8xt55plnzAaEjQgbEzwGkIIRIEml4ETAaqpRXaIPc04emSXvP1ks8uZMX+J5S3ivNviaiO5bWyYXnpwXd7UgRqMAUlrjFitg4ev1a93XLj4Hbyke47qHsAawFrAmsDawRhAOtw9l7tywYLlcWk3bEmHDUPlZNkzZY7jGjh0bNL0jlj6G9u8OCFV7rYdatcGRNBn1CLCaHYmjexT2LOxdts3m3k7ASjjAgsaNG+eMHj06rhmFXgGW7bnS/6euariuARLugaRqJGIFLO2yDGOmQ5p1HAXCic0kkXrutYrUkwUhdwrJ/xdddJH86Ec/MiEUeKd0k4EUqrAJYcPBZubelPRrCVhN9db0vJjCg6jga9hRLbK50vv8K8DVel+fq30byuSik3tLdlZK3HD15ZdfttpfMVbA0usU/8+GLXwPFZ7DGsB1r5/HY3i5sEbuuOMOE1YcN26cZGdnN1lbdtJ9qIa8LeXNCtZIs6KiItBKBqkdsEnuvNkg/fcittdqS1E9CBsLW6upGpoPqza5rQFLD8PBigG4txOwEhKwoBNOOCGSXKKVLQ1YqBjEaQmgpYNGFbaw0MeOHdsoTGgDSIgFHHLgs/vUuGjRImfWrFnO1KlTm1ToRHGLK9cKxs4+Qdsl5jp5HlU+MIQ//vGPTW4KYEfhST1WKjwXaqOyNynbG0DAii88iOrBe743SmR3tS+Et7YFmoiawc3lctnp3vS5ai3PVbyA5T4cuD1a9kFBQ4l2GFyfw9cAthA6v+yyy8xBxZ0gb687eK+ChRljyM2KuK2LbX+mTZvmnHjiicZGBStMimbQs9tWqi3Fe6C2VlMzYIN1tiDuWwGwVobLV4ONDraHcW8nYCUsYB1//PGR5mG1eB8sbc2Axa0uan0eVUj2YrVzJJpZwCtDwZXdsK6goMAZNGhQIPE9gqrAUCFBzxNoUeGHKqvbbrvNJPkiKRgbxubNmwN5KLr5YNNZs2aN8WbhHh8rhNkeK/fGRcBqquOyog8PTh/TTXY/Os1AkOfJ7fCG7aySmtfKZfn8Pu0m58pLwHJfpzZs6aHCXgPwXNneLPx/PYwAvvA1f/rTn8zawhpDzla4kVItWWno9mjp+C3YJnjXI+y1tTJUw1h3KFR/R9hWDQ3aDZ81B6uVqgibBSxEGjA4m4BFwGpXgIUeLC1RSRjLLEJd5Dr8Wae043OXXHJJo2rCCI1fwO0cyqUerArHbuTXu3fvVgkJIuxnnyyRM4KB16ia0g1i27ZtsmXLlkYhQDzG5qKbBzYOfI0CGL4GG4k7f8WGMgUmApZP78QQHoSdv+rcAjm6qVxkq8fNRfG9dlTL0c1l/mrB+Df+0047Tdri5nUOll6XgCl8Da55XP+QrgvNzcJjhBABYHi8detW83X6Pf73f/9Xzj33XNNqxPaUo4VBa/TNys3NDWqD3D33grUsCBcetO2lnVOG1heLFi0KRAxs26uH21Ya9hzWy4e9ioBFwGpXgDV79uwWqSSMFrDsfiu6WNVVrZ4t9MOJcuE2CRPCKKlh0uRRO1xoe7b0Mbq+t3S+lVb2jBgxwhi83/72t2bDACjZp3BsEHgeGwM2CM0zwXMKXfr12ESwyeB7uMHK9gBorhYBy6e7jos+PIiZf/d9f6TIzkpfEvpar8KCvoT2o5srZKVHcDVv3jxpq1u8gBXq63GN20CFa1rzsTQJHj8P6waHEHvd6NfjedwjOR5rcOTIkV73cwsJWQpUsDnuMKDaJm3R0Ez/wrD2yJ3cj/AgKi/tw63b/rYCYIWtIMR7gL2KgEXAaleANW/evEg9WA0t3aYBLmn9Ws3FUu8WFjmaEtrNBd1dyCM5GdkeLE0sRVJpsOebKYdO9bq31dChQ81oILRUsEOACjQa2rBBRx9jY7AByv6cyg1W0SS3dzbAGhFD9eDE4Vmya/VUX3hwrVdNRAFXM6T2tQpZYZqIJnvS56otb/HmYLmvX/3/6om1cwvtBHiFL3fuoZ0gb3uBcX/fffeZPC0UArRAz6zUYONz3EnvClzBpkgEmXu4MpJDnD3qCjCk0QPYWw0N2ja5Fdo0NETiwXJXDxKwCFgJD1gYARNhnlGLAlYkHi4kePfo0aNJD5t4q1Ni6G8VVb6VPfPPbXAGDhxowhIPPvig6VWlSeru03s0INRS6gyA9ea02MKDly/oIzWvVohsq4q/ehD//+UKkZ3VcnBDmSz5Sr4nTUTb0nPlRR+slpR7jek6xJrE2kS4vm/fvkFbHNjgEkUn+YiS3720S7atxO+gzUUjAahWAKywNhrJ/gQsAhYBq4UAa8WKFTJs2LAmvaG8OB1FWSkY9Gchb8Nd5Rjq9SGfDKNDfvrTnwbypAAv6o3CxqNeq0iT0AlY8QPWH2KoHszKTJYH/3u0GbYsr8TZvX3NMbj68qUSWXRqnifVgm2Vc9VeAMuuyNXrXNeiFo387Gc/MwnhAJNQAGNDjNsetDBkRRQetF/r8OHDjU0lYFF8EwhYJkdg5syZjdzcXo1giBeugrnicbq1X2NmZqZ5DrkdN910kxkHou0V9F4TcQFdCliJsgl1BsCKpbno2KFZ8v4TRSI7qhq3VIi1iegb1fLZi8Wmz1VaSvxwdVsbVAu2N8DSRHi8Js3f0hxGXYPIeXzqqaeMLULbGKxnd2sVAFWUbR32eWifomoLg9FZ9uxXAhYBi+qkgIXvheoWdGXGzDGvhoi2RhsGVCEhTIjmhgsWLDBz1ZBsq8bcTmLXpHP1YGliOwGr5QHr0XG9YmoueuW5BVKDuYOvxVE9uNafc7WzWj5dWyLnz+ltEufjhavvrFpl3h4CVvPSNaavyZ58gI/hxbLDhw899JBZy6j+BazEWWm4L54RO7GkLcAWoemqVgwSsAhYVCcGLC0fvvLKK03eUnNz+jwME0YMV+7mhO6T7fjx4+UHP/hBo5OxeqsAW8HG2Njd1wlYLQ9Yo2PofZWVkSxP/3ysD64Q2lsbI1ytLTetGD5f55st6FVY8Ij/7SFgRRYm1DXnbmUC7xWasuI5Xa8IG/73f/+38Wa580J19FUzjZC9hKyowoPQoEGDzKxS7XlFwCJgUZ0csPT7lJaWNsptiCDRPZYwYVRtGOxybvu1AQaRXLx69WozHw3Gefv27YFmiPYYG61ocvenCtWVnYDlHWC9Oz0/+uR2Ex7sIvtfKBXZWB5fYvv2KjmwodwktHsBV6fO81ULErAiHyQdbN3p2kRVLw5D6LelXiw8h4/hzUJ15oABA5okv7ttQwsNiw4bHnTnhpWVlTVqxUDAImBRnTxEqF2GUXWHBnkRVuvEEiaMuseV7b3S52Bw8btrv6kdO3YY44zcK+3Jo7MCQ/WnSqQTfkcGrFh6XyUnJ8kVZ/eVo/BebYyx99XLZSZ369CrgKs+ku4BXM1DK4b6IwSsGK5vuzeW7dnSyl54svAYhyV8/PrrrwfWKeyUDVk6bSKKVIZYICs1Ug+73Vz0vPPOM7MHYVO9sM8ELAIWAaudJ7mjJwuMAsKE/fv3jzYPK9IwYcwNRO1S7fLycvnFL34R1PukFUv2DDV7ALMmt+v/ZZJ7ywNWLOHBrl2S5amfjRPZUiWyPkrAWnMs52r/hnJZOr+PpKd5AVcn+94LAlbU17Z6rexqQl2TuLcrfLV5LzzR9sgqTF7A2o/BexUrZEVtq2A7ER78xje+EXGfKwIWAYvqwIBlz8bSpqMxGK6VXsKV3YZBjQgS8M8880zTMBRGOJpO6YmujgpYMYUHk3zhwSOApVcrfZ6oaDu0v14tn68pkUtOzfPGczV6hMiRWgJWGwleLcDWww8/LKeffrpJfHcPkY4wnSEayFoZndc1WaqrqwPNRe3mzgQsAhbViQEL0oUMiEGeQ5QDWZsLE4ZNaIeHSn+efTLVCiL0tsLMxEcffTQw4kbnoxGwEhewYgkPpqYkyZUL+vp6X20ojw6u1peJvF4lHz1VZKoFvWjFcHxuljR875sErDYSwobwcKmnC7C1ePFi6datm7EZuHfnQ+H5MC0dwiW+R1U9iJ+H/KuzzjorYJO9yL8iYBGwqA4AWHZC5hVXXCF9+vSJ1gUf6lQYUbWg21DYHxcWFhqXO5JetXcO8jVw/8ILLxCwEhiwrunXNWqg6dEtRZ7++XgfYL0cBVwhV+v1KvnXP4rk3BN7G1CLF67m9EqT3TOGELDaUE8//bRZ7zhYIWwIyMK6R45TQUFBSBsSwQFxXxibFbFdBtihGz1SLGybSsCi+CZ0csByn7iQ7F5UVBRrz5lUl6Luc2XPQ0Sl4KpVq4xBRSI7DKyGBfE4kVotELCaqrh7WtThwYkju0rthjKRTZWRe682lonsrJL3ni6Wc2bnejJbEHD1WUUvAlYCeLCw/rX9CgpZkACPz33rW98yye/qubIPhTG0cLAVdW8+2Ezksdq2lCFCim8Ck9zNaVBPXfgY1YRRVujYXixb+6JNYldjOW7cOPmv//ovc3pF2wWAFU6xMKx4DA8WQ4SJC1ifl/aJGmrQRmElwoO7qkQ2VEReLbi1Ut59qkgWzvHGczW3ZxfZW9aLgJUAgsdK14dClhas4GP0wIOtUDuidiuKru/7gtithugOBknGZsJ2qm2+9tprmeROEbAIWD7Asls2XH311ZKXlxcrZO3zqyFS46SeK308adIkueOOO4wBRY8c7ZujhhWghc8lyrBmAlZT7Z4e/XDnXtmp8vc7R4vsnuFLVo8ErjZXyPvPFMlFc72Bq5N7dpH9xQMJWAkiDIVG2xUcprTrO34/eLA1Lwu2YsKECU1sSrBB0V7ZLftnwVbCZtrjcQBY9GBRfBMYIjTfTz1YaiSKi4tjASyJxUAFyvO7dpWJEyeaLs4ICWKTQJdnrRqEUd22bZt5XpuLErASE7D+GMNw5/HDs+TAmhKR7dXhR+MArrZVyicvlcjiU/MlJdkDz1WvNANXBKzEEdY41r3OLNQ2LLjX9YIGw/B2jxkzxswxjKOVQ0P0PduSpaSkpJHttA+rBCwCFtXJk9xvvPHGgDHQ74lqwhgBK2phfpeOmfjJT35iDKndlNBuSKjhQYUuAlZiAtaIKIc7A5AuPS1fZNcMkY1hRuP44WrPmhK57NQ8b8KCvdLk8/IcAlaCSUFK+2jBo60DpGELAF8Q7AE8WTruS21KSwuAhepBG4ZgU7UXFgGLgEV1YsCCKxvJmTAKeupC2HDFihWBpqPBKnKi6DsjXbp0afL/9KSp37tfv34GruC5QlgARlShqqOrowHWm9PyYqoe/NNtI0XemRHae2VaMZSLbK+Uj54rlsUewdWcnpkGrghY7U/4fTWVAN6uH/7wh+agZudjqc2xbVY03q1gtk7tFqoHUXkNW4wwoSa6a1SAgEXAojoxYOmYHHVvA7gAWNdcc43JhYq0tUK4qkB7jqAaN4Ws/Px8ExZEOBCGcteuXaYtQ0dpJNrZAOsPMYQHJ4/Mks+fKw4dHgRcYejz9ip574kiWXiSNzlXtwzsLntLCwhY7bjKUFs54PeG/UDlcU5OjrFRAC0bpnTMTjR9/pqzdbCRajP1HmCFe7ZpoPgmcNhzAKzw/bT6BQYCw5RtMPIqZGgbt969e5ufp2E/QJUmsHeWTaKjAdZxUY7HSU5yZOVZ/urBl0OMxtng63P17uPT5exZvSQlOb5rcHBmijwytqeBKwJW+xV+V9gMvYcXC2sJdg3J526bo9AV63Vj20AcENFZHrZSwUqjAji00oNF8U1gknvAk6WghY+Rl3XZZZcZ71IwIxXNKdA+QaJ82i6lRnM+9VZpd3b0uukoCeydDbDeiaF6MLdHqvz1h8eJvDWjGbiqlrcfn276XKXFOf5mSGaKfFCc73/NBKz2LHisdu7caSoMkYuFnlk6w3DJkiWB9AQcFNUORZPeEOpwCBuG8OCyZcsMXNl2FLlX6tEiYBGwqE7uwdI+WBoqxGPkEsBQoMeMGqTmchrC5S/Y1T1qqBYsWGDyrWAc4bXCxqCl15pXQcBqX4AVy3iciknd5eOninzhQTdgmZyrKnn3CXiucuOeLTg0M0U+DMAVAasjrB1t46IHNNgOpBug0nj+/PkByFLA0sNhJB55u42MuwXE+PHjAxAFu+k+rLKKkOKbQMAKGAd1c9ujHk466STTPiEYNEWTx6C5D/pxZWWlPPjggyYsCJCyKwfRigGnURhNAlb7AqyrC7tGWT3oyHUXFpqqQHklSPXg1ir555NFsnB2btxhwSFN4IqA1d4F+wGYwqFMQQvPwZMFLziGw9sD7G0bFAtgqTADcc6cOU1GjmmzURuMCFgELKoThwj1xGXPJFSDgTAhZhPai9nt0Yo0RIiQIB4fd9xx8otf/MIYQoQH0ccGGwMea6KqerIIWO0LsPLSohtTk5eTKnfffpwv/2p9eeNWDFsq5cPnik0T0Xj7XAWHKwJWR8jBsteQNiPFOB08BmT9+Mc/DhTsRDnEvonX3g4Pwja60ywQBdDmzezkTvFN6OSApeXE+j3thqN6IhsyZIiBIzVOmiQaCWBpkrz+X1T3oEeMNgyFgcQJFEYRXixtKgjoYoiwfQHWo+N6RQ0+JeO7yesPTxXZ6Q8PrtU+V1Xy2ctlctnp+XFXCw7ISJH3ivJD9OwiYLVnAaJgK7B+kMcJG4LnNRcLNgStX2DXYHtswIoEttxd4fF/YAthE9Xjr7YTldd4DKFlAwGL4pvAEGGzQi6WXU1oV+EEm/flzm9wG4GLL77YGEEksneWEGBnAazRUVYPwoZfdV5fqX21XGRzpa89A6oIt1bJJ2tLZdn8PnEntPfPSJF/hoQrAlZnaOOAXCx4wy+66KKQievwUAUDLvs5G7aQ29Ua9peARcAiYHVgwMIp7cILL5Tc3NxmJ9aHW+wwYBi/c99995lQIICCgNVxAAstD6KFn+5ZyfKX748S2VHlmz34sr+J6LPFsvi0/LjhamBYuCJgdXTBi4X3A56ue+65R4qKisKmOGiVdKiCHdjCRYsWtbjtJWARsKgODlgQqglHjx7dyFVu95IJZZDs59AV/s477zShQbjyFSq4CXQMwIq29xVUNLarvP7wNBMONHC1o1Lef6pILpgTf4d2VAv+KyxcEbA6urCudG3B9qChMfKn1DsVzGul9ixU1TSqBxEO9KLPFQGLgEV1YsDSuVqzZ8823iu7h1UwL5a9+NUgIby4ePHigNdKWzBwE+gYgBVL7yvoPy4pkIMbS0W2VorsqJYPn/Z3aI8zoX1YZop8VBwJXBGwOsMoHW1Aqq0c4H3SlAe7utl9UAwGMvj6U045xZP8KgIWAYuiB8tUxiB3CkmibkPkzlFwt2MwfY4qKuSRRx4JnCYhuO7pweoYgBVL7yuEB//x0zG+9gy7quWDZ4rlfA88V6GrBQlYnXVt4f3Qwx3uYYvKy8ubeK3ctsv2cGlqRI8ePUwDUzu5nYBFEbAIWDFXGWqFzKhRo5q4zN3ly26XO6DsRz/6kWnJgApBBSzNj+Am0P4BK5bwYPHYrqYzu7w9Uz59vkQuPDn+2YLDooYrAlZnyMHS90LH6aDIBjape/fuzeZewba5u7+jxQwqrHXuIAGLImARsOIGLPysE044odGUejdQub1ZWVlZct5555kEU4UHe9Ygk9zbP2DFEh5MwpDlJf3lyM4q2buxQhbNzZO0VvdcEbA606xCgJZtc2CTzjnnHNPlPVSxjhu4EFZE42U3+BCwKAIWASvmBa7diRcuXCjZ2dlNqgndOVc6GgcNSu+9915TNYgyaRh93MPgaXNRbgLtG7BiDQ/uuH+q1G6pkKVnxN+Kofk+VwSszp6DBVsDm2PbINgkVDRj1qo9xitY0rvmm/bs2dO0eoD3CrNamYNFEbAIWHEvcBgU7fKuTUeD9b6yx0jg/pvf/CaNfAcHrGhH48B7VT6pm3z6Yqlcc16BZKTFB1eF6SnGixYbXBGwOrvQ5889K1UT4N0NkwcPHuzpnEECFgGLYpJ7o5mFSFh3e6/cpz4s/LKyMjMHjEa8YwNWUfe0qIAIeVaoFLzktD7SJSO5jeGKgNXZBQ97aWlpsw1G1WOPxHidcGGPFSNgUQQsAlbMbRrsIdBwkSNvIdSYCSx6eLhuu+02UxpNI95xAWt32aCooSgjPUmG9cuQ9DjDgoMyvIArAlZnF4pvvv3tbzfxyrtzS2Hz0HBZPVeorG4NLxYBi4BFwOrgHiw9ren9gAEDmp06jxMhSqF1LhjVMQHrzRgAKzXFibtacHBmirwfc84VAYs6JjQfffjhhwNtGxSs7HxSMxVg4MBGHiud4UrAoghYBKy4Frie1PBzcXKrrKxsAlWat4D8q+9+97s03p0kRDg9yhBhvAJcfVDsFVwRsNjp3Tck+vbbbw/kYaFS2p0GAZsH2wcbaB84CVgUAYuAFVebBozKsasJ0XpBjZGe+PR+6tSp8txzzwUqdmjEOzZgXRVlknu8YUHvPFcELMoHWGgbA5s1efLkoKNyEB5EBTVsIOwfhMIfNhqlCFgErLgBS09ramBWrlwpI0aMaLLI0eX4pptuMnBlNxSlOi5g/TmGNg2xqH9Eg5sJWASs6PtkQeiTBdtlNx9V2zZy5Ei5/PLLA/bWfU/AoghYBKy4+mBpwjvc5FdffXUgTAjPlS70cePGmZOgDQtUxwast2OcQxitHhnbswXgioBFD9bGQJjwhRdeMNMqNP9KvfJVVVVmkgXsoFYRwg6yTQNFwCJgxSWEB9WLpf2wYGQwMBW5CvbAVHw9KgfRxI8erE40KqdLaovC1S0Du7UQXBGwOErH1+Edw+fheYdts4faw8ahelDb1GhfQAAWbCMBiyJgEbDi6n2liZ34WL1Zy5cvl379+gUW+qBBg+TPf/5zoFMyjBaNfOcArNVje7YYXM3pmdGCcEXAojaYGak4GOK9++Mf/2iaKev1Bxu3dOnSgN1TLxbbNFAELAKWJ32w7IUOw6KnODQT1de1YMECA1YwVrhXcKAB7/iABd08sFs7hCsCFkfpvBwYAA3POzxamFGoIULYOA0Pqv2zewMSsCgCFgErbi+WPlbDgntAFRr0oTXDHXfcYWZ+wbBjkKpCFtU5AAsCEHkFVze3aFiQgEU1HQiN9w6gdeedd5pB9RBsnN0LUD1YrTU9g4BFwCJgdaJZhHYOwooVK8yw1KKiInnyyScNJOAE+Pzzz5vSZ51cT3UOwPLCk4V8rtUtltBOwKKCJ7nDe6X26qmnnjLtZvr27WtsnOagarqETrVgFSFFwCJgxSU9sem9DjoFYAG0pk+fbu7tkmcYLBh4AlbnAyzNyYo28T0rOUn+Z3iPVgQrAhbls1lIcMfBEGtQWzYgLKi2Te2tPYfQzkclYFEELAJWzH2w7KoZPcHp/eLFi01yuxomGCmGBzs3YKnQwgF9stCM1N3xvW96spyRmymrhnSX5ybktgFYEbCoY4CljZHheUfCO5LdL7300kCelT0aR+0vG41SBCwClietGnBaQ/8r26gAvFatWmVCgjBUtnHHEFUa8M4NWG59WtJHdk7Lk1cn925DoCJgUU0bjer7hXvkYT377LNmYD1snO25Vy9Wa+VhEbAIWASsDp6DBXe5NtYDZOExgAvg9atf/cpUDsIoIVFUYQGP2QeLgJX4ImAxwX1do4pCDICGTfvlL39pAAu2Tg+YsIFf//rXjU1kDhZFwCJgxb3A3c1G9efD6Nx7773GMMG1DqPkNloUAYuARcBK9GHPmi+qbWbwPt5zzz2Btgxa3KOVhFr4Q8CiCFgELE/aNNhVNICub3/72/L0008HPFVaiYNcLPVm0YgTsAhYBKxEFmwVbBbeNwCWJrujmhA2DrbODg1qRTVDhBQBi4DlGWTh1Ab3OO5hdH76058GqgV13IQaKgIWAYuARcBqL4ClB0PYMH0PcQ8bh3Ag7B1sH+ygerTYaJQiYBGw4u7kru5x6Bvf+IYxNnjurrvuCnivdDQOjJR+TONNwCJgEbDaA2DZbWV0PeIxbJzmocL2aZjQriokYFEELAJWXItc8690Btd//ud/ymOPPdZoJI427cPHNPAELAIWAas95GDhvdK1Z0MWBBt3yy23NLJ9tk0kYFEELAKWJwtd8w/w8fe//32Tc6UGyjZWaqho5AlYBCwCVnuCLPuQqHmlt99+ewCm1HvVmodbAhYBi4DVgasIbZe4PsbsQRgiVA/aoKDtGfA8w4QELAIWASvR1x5slVYTKnDhXhsnw9bZxT6t0cGdgEXAojoBYOmYHDv3AI/vv/9+9rnqAIB1WOqMAkAFuLIA66j/6QaDYQ0+wKoXqbv9BnmzcnC7B6x9xYON9lT2Mjo6pdDo46oceeuEHHljxnCRW28x70qtIasGP3j63xQCVofXAw88YPJO7QMnQ4QUAYuA5QlguQecoprmkUce4axBAhYBi4DV4cOHyMPS/Ct7kgUBiyJgEbDiriK0fxaMDEZIYDyOVgxS7RewaqTeqAlg+SOHdSYc5sMrqT/qg4q6epFVX5XdFR0gRFgy0OjTyhyjhikFRp9V5Mg/j8+R3dVDRW69WeqkwcCmAlZDAsEVAatlO72/8MILgX5YsL2tVUFIwCJgUZ0EsPRnwsjceeedjUqZKQIWAYuA1ZG9WD/+8Y8Ds1iRMsFZhBQBi4DVIq0afvOb3wQa8dEAt2/AqpN6I0MPR/FxjZE/59187gg+0YB44RFffLC2TuS2jpHk/llZf6NPK7ONjk4tMNpfli0fVmfL21VDRb51szQoUR09apLdA8BFwOrwPbKQBP/rX/86MH8QgKXpEgQsioBFwIq70ag9hxAzughYBCwCFgGrs4zRufvuuxtBD6sIKQIWAcuzJHft5H7TTTfJ3//+90blzFT7BSwFKQ0R1vj/1QWeqpMjaErQcESkrlbkaJ1Iba3IbdfIO+UD2j1gfVpeaPRZZbbsLc+WI9MKjA6W5Mje8hx5t3KoyG03ozeF/81CwNT3ntQlUKMGAlbL5mE99NBDppO7XezDJHeKgEXAikuAKrjEkXuFx7feeqs8/vjjxvDYPbAoAhYBi4DV0aS9sLSju+3Jb408LAIWAYuA1cEbjWqSOyDrO9/5jjzzzDOydevWQGM+qj03GvXf/CHCw3LIqDbw1BE5UnfQFx4EYNX6Gm4e+d518mZlRwgRFhh9XpEt+8qy5WBRgdGBkl6yr6yX7KocKjX//f9McnvDUbRarTMiYHUO4f3cvHmzPPvss+ZwqXbRbtdAwKIIWASsmHOw1BWOk9sPf/hDee6554z3ioDVOQCr9sgBf/7VEZEjAK26zgdYh46I1DcEAKtWaglYnWRtaqsGjMyxR4bRg0URsAhYnrRp0HtU06xZs6bRkGeqnQNWfVPAOirHYodHaw76QoP+xqO19SKf//xW2TZzWLsHrM9LC42Q1A59XtrfaG9ZrtHm40fJgV/8AG+MeTtqTVuLo1LbUJNQw3IIWC3XogHvKQ6Tv/zlL03DUQ0R4p6ARRGwCFiehAlhXDA2QoehspN75wAsqatpBFhQ/V9+JNuPH97hAWvrCaNF7vq5r/eVH7BqTWVlLQGrE0g99cjFuvfee+Wb3/xmYHwYPVgUAYuA5ZkwIgfJnjA6BKwOBliBJPdDRg0aNqw76mvNcNTXf/RL8UmevkfWnTa+/Y/KKSmUA8WFJqkd+rBioNGeij5G60+bJPLEX/0tLEQOyFE4s0Qa/I1XCVidArCQh7V69WpTRa2V1QQsioBFwPKkVYNOkUcFIUfkdFLAOiyyTwFr05Oya1F1hwesty6ZJbLhKfP71zaIfNlw5BhgQQSsThEi3LRpkwGsG2+8MWAPCVgUAYuAFfcCt2dwYcgzjA4gi41GO16Se61JcD90DLp0uLH/85+KyB58/cdb5cCqZe0esPYX95eD0/vL4eJeRu9VDTb6sLLA6MiqFSL/3Gzig4cbRPaLyEHzfjX43iMCVqdYm7B3Dz/8sOmFpXDFPlgUAYuAFZe0Bxbyr/Bz0WQUBmfLli0ErM4CWApZ9SKfga3w9V/uFvnLbR0esOQvq0Q+220Aq9YPV1BDzRECVidZm/BeAbAefPBBA1gaHuSoHIqARcDyJESoM7gQItQkdxrgDgRYoRqRBplqXI8+WEeOSE1NjXx87Vdk94mjZFtZP9lbMURkYqHI2HyR8Xki43oH2iB8VlZopI08DxflGR0oyfUrz2i/UYHsLy5spAPFBUYHi/v4lWd0oLiP0b6SAiNNWocQ/ttf0sdoX2meabuAIc57qrrJBzO7Gu0t7ic1RQNk7/gecmhqnhwq6St7JvSUnadNlC03LhI5uF2O1O+R/VLr81zVWTpCwOoMXdzxngKwECLUbu52ZTUBiyJgEbAIWAQsTwALzx09elTq6uqMF+vtOaPlrVnD5YvywVI/sqdI0RCRCfkiE/u0C8A6MKVApGKg7JuQI7Xl/eRw+UDZfso4kb/9RKRmpxyVT+WAHCFgEbAIWBQBi4BFwCJgeQdYwSArcKv9RDbf8Z/y7Kxp8v6MMbKvoqd8PC1NPpqTLW9Xp8nesjypmdZfZOIwo/3FvgTy94/varSnKlv2VPaSj6tUuT5V5vnVxy/fx3sqc/3qZbS/NMdor4GnXv7n84xMA9EyfyJ7Uf9GwuuA3q3Mkn/N6C4ytofI2P5yuHSsrD+5WJ772Q0i9e9KrewzoUFETY1qTK8G2S8NRgQsAhYBiyJgEbAIWAQs7291n4nsXCPvLVkg71aMlAPVveWjqamy5+ScdgFY78/MNlLA+mLyMPn8yoUiu/4hIv8KCVgHxCcCFgGLgEURsAhYBCwClvd8deioL/t73XOy/oqF8soJo+TjmYXyWUlX2V/V08DSB1V95P2qgUZ7Kgrls4pc+bSqq3xe2dUXHvSH+XwqaFYa8tsfCCdaIUCjXCN838PFuXJkeq4cndpHGqZAhVI3ZaDUTRkqR6YMk8NTh8nhWTmyu8iRT04aKhuqxsiLK88V2bJBGhAURHPRBp9MOPDIsUarKgIWAYuARRGwCFgELAJWy/TQAmB9/qHIo3+SL5bMkd3Ts+XjaRnyZWVOwgPWvsos2TXNkbfK8mTf4tNFHr9LZN8eqZf9GD1IwCJgEbAoAhYBi4BFwGoLF5YPsI4cPSwNsk8+Xfu4rLluqbxx1lz5tGis1EwdJjKpQGRSL5+m9jKDlN88IU/enIXk9/6NpKNq3NIk+U/LGwvfH9pXPFg+Lesv71f3kX/OzJW3Z+UYvTMrW947Pls+mOGDPQ0dmu9XOlDeKx8o755RLE/ceJ68+9qD5ndAX1XTTfWgLyQIwPpcfDog9XIUVHmESe4ELAIWRcAiYBGwCFgtluQO6jgiDVIn9bJX5NBHIjvWyaFrlsi+8kkJD1ifnjBK5NpzRXY9KlL/ttTJ577U9XCAVev/3QlYBCwCFkXAImARsAhYXt8OS63Uwo2F0XyHa/3DkI/I55++LbufvVeeXb5QNs8plw+njJYD04fJ4eKhcmBSXzk0IU+OTusnXxbnmxBfIERY1Fv2T8+VQ0W9TIgP97YO+LW/2KcPqgrlfTQFLc+Tz0rzTXgQ/+/otF5SN7WnSHG+1EzMlS+m5MmeimHyzoyR8tqM42Tb3Emy+aLZIo/cLbJ7p/iGANVJbb1/hHOtbzSQmB6rNVIjB4x8xFV3rFUDAYuARcCiCFgELAIWAcvr24GGQwHA8jl2fIBlXEBfvCGy/kmR735D6k6slL2TB0lNyTCRiuEixQPlyJQC+XxqL/liWq58Od3X0+pQSb7pbwWYOji9ZxPt9+vLIp/+VdHXABYqDb8o72sAC19XMylbDk/sLrWTc6R+Wl+prRgkn1QOl92Vw+SDBVUi3/93kZfuE9n9msj+LwKAVXPU17jeANYhAhYBi4BFEbAIWAQsAlZb5WAd8Wd81/s+qG04LDVyxAhwUle3X97f9apsuuun8ti/nS8Pz5ssGytHyL9mDJc9MwfLJ1UD5YOKAvm4vEA+LUdrBV97hS+K8+TLsvxG2lfuE2AKOjgNiex5Pk0rkNop/aR2yiA5XDRC9pVPkA+qpsu6iinyyEnl8uRVF8u2P90pn7y5Rg7Le3JY9h9rt+D/PRr8lYO+JHaAY41IPb5iv1Gt1PiAkjlYBCwCFkXAImARsAhYLZ3kLrVHA4BVU39IDsghEz48WP+lNDRgtuE+kYPvibzzssjqX4jctFSOLCiT/SePlr2zhsn75X3l/eI8+ag4zwDWvspCOVjZz6oO9Al9tSAAGFRXViD1JX0NYB2alCcHJ/SRmskD5Wj5GDlyQrHUnz1P5KbrRB76s8juV0T2vytS/5HUyvvyRcMnBq72wlF1yP971BOwKAIWAYuARcAiYBGw2vp20OcC+lDqzRDofYZQ6kW+qBfZU+9zD9X5csa/kCPypeyTQ/KJHJIP5XD9Lql99m7Z+9D/ye7frpJXfnCDPH/LUnniugtk9RVnyENL58kjK78ijy8/psdW+PTIivlGDy07SR69Yp488rVz5NHvLJHHf3aDvHDfD+S1538v219bLTWH3pX62s9E6vaL1BwSqbXgqNbHhwgLonKwwaRd1RkdMaHAWjFJWTW+UGGNCXzWG8nRIz4RsAhYBCyKgEXAImARsDy/7fNBFuDqI2mQz02czQ9Yn0sAsPb6AeugyWX6TGplj9TJ2yL73vDlan2xQ+SjzSL/ellk94siO58S2fYPka2Pi2y2tEX1hE/bV4vsfEzk3WdE9qwT+XKzSN0uEXxv+UDq6z4QafjS56ICENUcETnc0Aiw6nz8FACsgyaLrMZHYQQsAhYBiyJgEbAIWASs1r7VmEBgja+lw1GRg3UiaO5eozngDTVGJhfLJIv7Pm/A7EsfeO071hHBBzsN/gamR1zDlYOpBpn1Dcc+PmrlhdUeaxAa+Jz/rsYvOVAvcrDB/A6H5Us5JHulzvjbagxUaTcG0xtLv3e9mPytwyZsSMAiYBGwKAIWAYuARcDy+OYDk0NSV1cvdnsowzYNfsA6eigAWIH2UX7A+rJxy6ljgNVgAU1zOuICMff/qfV/Y6v1ep0bsA75fo8a2S818qUcNeBUIw1H6wlYBCwCFkXAImARsAhYvHXWGwGLgEXAImARsAhYFAGLNwIWAYuARcCiCFgELAIWbwQsAhYBiyJgEbAIWAQs3ghYXFsELAIWAYuARcAiYBGweCNgEbAIWAQsioBFA07A4o2ARcAiYFEELAIWAYuAxRsBiyJgEbAIWAQsAhYBizfeCFgELAIWAYuARcBKTOH1wlBCeJxIrw3GWzdFfAxDvmfPHrNpNjQ0UFRY4fbxxx8Hrm9cQ1ifCuxchwQsAhYBi4BFwGoRo66bDeR+3fh8WwqGWx+vW7fOvL4PP/wwAFi88RbJ7f333w9c43pN2ddWW8ntqbXXYXuALAIWRcAiYBGwwniI8HphLF977TUjDcklAmAp6KnH4aOPPiIx8BbVDVBuhwgTBbB0jem60/ClrksCFgGLgEURsNqxByvYiVqNPO7bUngt6rnSzQj5NHb4hzfeQt1wjdTX1xsPlp3Pp9dUW8vtNW7Ow0XAImARsCgCVjtMcsfrxaazdu1ac4/fYdOmTW1+wsepXjdF9TooYPHGWyQ3BSzbc4VrXj21bSldY/baa0+2g4BFEbAIWASsEFqzZk0gbAJjj00HxjJREm3xOrDx2GFMu4oQmydFhZKdg6XrUg8TWjiRCIntWHNYe1iDCi1YmwQsAhYBiyJgtVPA2rZtmzGSzz//vHntDz74oNxzzz3yhz/8QX7961/Lb3/72zbXL3/5S/nNb34jv/vd74z+/ve/G+iiqEgEUHn44YfNtfP73//eXFO/+tWvEuLaxhrDWsOaw9rDGsRaxJrE2iRgEbAIWBQBq50CFjacb33rW3LuuefK1KlTZeDAgZKfny+9evWSnJwc6dmzZ5sKryM7O1t69+5t1L17d8nNzZV+/fqZj/Py8igqpHCNFBYWmuuoW7dugWumR48e5rm2vr6xxvA6sOaw9rAGsRaxJrE2CVgELAIWRcBqI8BCSOGFF14wPw9GThPBNcSHsANOxPjc1q1b5cUXX5TnnnvOnOBPO+00s+FkZWU1eg9TUlIkmve8WWX5leJIuuNItl9dHXycKk5yqjipqeKk+eWkSoaTKnlOspH5nJFzTCmOOMkuJdlKPSavfg+qfUqvv1RHUh1HuvuV6SRLipMmTkqaOGlp4qRn+JSUJqlOmvR0Uo0C119Ksk+p/ustxX3N4ecl+5VmKbLXacMAHmNN4iCBNQoP7rPPPmvWLrxamzdvNo9xrzllWn2oNgA2YcuWLQQsAhYBi4BFwIonhwP5JDBwEB7b1X/4GGCF52Ck7777bjnrrLMkLc1n/DMyMpoAVQSGiYBFEbA8AiysN/eaw5rMzMw0j7FWzzzzTLN2cVjS0L6dEG/nlUGtlWNGwKIIWASsDgtYMKRq6Nx9ffREi/tnnnlGbrrpJhkwYEDAaEdzqo5d2ZJi1E3SjboYpToZkoQNLCnZt1mlOeKk+6WPU7ERphll+MEr3Uk2wmYJpfiV5BehgnJff1CS001SjboaJTkZBuadZD806bWX0fg6zHQyjDLMNZhmDgVQqrkGkz27/kKtNTyfnp5uHmPt3nzzzeagpAUfoXrVac8vAhYBi4BFwCJgeWDkNCRoNzHE6/jHP/4hF198ccBTpffwXun7lpycbETAoghYrQ9YtifLXnfqxdK1mZqaKosWLZInnniiUW84HSOFeyT2t1YFMAGLImARsDosYGn3dQ0J4Oeiakr76zz55JNyyimnBIwNDDUAy/44WIjCK6WazSjVFzoBTFlhvRQTqvGFC+3QTboJs2i4MNnoGFj5vl+KX0lOsl++DS7FJQJG51aKgSD/wSHJaXL9pYe9/hTsFazc158qtuvPve7wsR523HlZ+jHW77x588za1kMVcrK0f52mDDBESMAiYBGwCFhxhgj15Aqo0hysHTt2yNNPP20qkjSJvUuXLoGTMEKEXbt2beK1CpUTQsCiCFjeA5YbpNzCmlWPM74OH+MxKiKxthH63759e6BRKWBLvVn4mIBFwCJgEbAIWHE0CtVwoBpXVBchGRavDSBlQ5SekKNNuo19g/NvNClO41CMPwTYOEkdIRskHncRJ7WbTxoyTHNcie4KbP7E4iQCFhXk+kvyKRCGdivZlaRursEMcVK7+JQW5PozRRbJx2Rdf27Qiif/KhyYIVwIW4e1jsMVbA7uFXxao1EpAYsiYBGwOixgafXgSy+9FKgqhJFFG4Y+ffo0giqchG240sehwhIELIqA1fKAZa9BOw8Lsit89WN7jaLH1//93/81yr1UT5Z6tglYBCwCFgGLgBUjYGm1EIwqDB5Cg+Xl5WE9Va2jNElDknBypgmxaMgPCeppTpIkWxsTnsvwh2p6OY7kOdamlnYMxvB/0pIdSUsKspElWeCVEL8/1ZZKMq0SUk2YMN1ce450cZIlzX+9paccu4YQLsxyHOnhONLbcSTfsYAq5RiMZaQcu/aaJLfrdadtHVr498Mar6ioMH2vECaE97otCmwIWBQBi4DVIasI9WdpPtaqVaukf//+CbLJpZl+Qyn+HJbuyZmSndLFwFWq0/jUn57ky8lSwIIyc1KOQRbgKi2Mp4qARTVSagCwMg3g+yAe116PrIxG1xCuvW4WYPW2PK+pWY6kZ/oAK6W56tVWBiyooKBAbr/99kZtGbTIhYBFwCJgEbAIWHHAlVYMaYL77NmzW6wqMFoZj1RyuuRkoEVDmiQ5XcVJyhYntZc4GXnidC8QJ2eQONn9xeneT5ysAnEyC8XJ7C9Oaj9xUrLFSe7mk5NhYK27kyE5TppJTs7yK11ByyQyp/qaR6alETA6uUwSe3KKZCanmwaijtNFnOTu4qTl+q6/bvni9MC1VyhOtwJxuuj1h2uvQJxktHnoaoTWDvgeualdpWdSapPrzwdYjq8xabpfrfR7zp0716QJqN2BJ0t75BGwCFgELAIWAStGwNLQIPTAAw+YWWuJssEBrjLMBpQsWU4XSUvqcQyw+o2W1All0mf2WTLhoiukdMUNMmPZ9VJx/pUyZtY5UjhmpqT3HiRORk8DWKkpXU24EZVeXU1H+BQCFtWsMv3XRqoJC6ZLaiquvR7idCsUp2CUZE2pkAFzF8jki6+Q8hXXy4wlX5Wyc1bIqIrTpc+wUumWPzQAWGnJXSUzqYtk+a8/QFZbA5amAcCLdd999xlboMnurCIkYBGwCFgELA89WejWnlg5MI6kpiSJ0zVLnOz/z955QMdZnGt4tq+K5d5xt2TJ6t223DCmmG4SeguEAKGGmpuEQEghvTdSLpDkQBIuNZgACSF0XFRWXa6QRuhusqxi+73nnX+/1a+1ysparVby6Jz37GplWytr5ptnvjoWasoMqLLj4Lj5S5j623XIf2ULcgLvIrduFxbUf4TUpp1YsH0v5m3bhel172DJb17EvJt/CLX8Aqgp+VCjZkGNOsaCLu1RUKGwjy8ULnSaUTlGna0ZGOZL8kONHgM1cz7USWuR/OUfIPWxl1C4fgcKaz9EQeNea/3Vf4jUzbswu+EDTK74F/J/sg5Tr7gbquA0qHELoZKOgUqaCuVN0eFvaXgrCiXMxzBEKCLccP4gPVdy6TKAZQDLAJYBLANYA0hy5/eSBoNnnHFGxKNwYuJB8Hl0UrryeqDmL8C8q6/HWY8/g4sqtuL4yrewPPBflDTt1gdcesPOEGCl7tiDuVt34hNvvI1bX/knLn98Exbd/n24C4+HSpgC5U5BYuI4A1hGvSppVKLlVfJ74CouQcEX7sa5z76ECwI7cFL1v1EWeBslDbuQ37BHr78FjTuRvm0v0nc0I3Xrblz84lu49e/bcNFDLyH98s9DzSmwQovuZHi8SXEBWOLFYvNRadkiDUgNYBnAMoBlAMsA1gAMHL8Xcy7Y2bmgoCA0UiMuDrmEyVATM6FOvxRF9z+FE2v+i0UNu5FRsxu5DUBuNVBcBZSVA0srgCWVh1BS1YaCwF5k1uzBzLeA0dX7MK9mN07c1oxVf63EqGs/CzU/Cyo5GcrnDiUe+205Mf6gDGQc5aK3ad4ijL36czjhuXKcsm03MqvewzGb3kNmE7AwAORXAks2WeuvrBJYVH0QRTX7kV3XglnbgamNHchuasGqmvew8LdPQa29CGrKTKjkJCi/M7T+vDbQ98aoTYi0V6Hy8vJ041E7ZBnAMoBlAMsAlgGsIxTzLNhQsK6uDo8//jhSU1Pj64CbOA8Zn/wcLnviJVxW/hZWVfwThdUfIKexBdl1QF4NUFgBLN4YPOCqoAGrsLoZeY37MaGhHXP+BWRuaUPRhn/grE078KlXqlB25z1wZGQYwDLqXQuKUfqFH+CqF6pw9vqtWLRhB4o3NyPvzUOYF+hAbj1QGOgEfAJWSVUHCgL7kNvQihlboZVeuxvLKv6DcyrfxLlPvYB5V14HNXnSkAOWvUfWvHnzsG7dutBEh1jYIANYRgawDGCNaA+WdHF/6KGHQs1FoyZpsqjGaHlVkm63IL2BvJLgG/ycpe1TOWDXNw9qwRlQP/0r5r76HkqaDiG3ej8K6tq1sqv2Ia+mtU/NbPoQ83fsxYrKVixZ34Ky8g4sDRzC9Ip34f3r61DFp0ONy8YENRETOMDX6dDvg/bP5bKFbJw9KNRkMjx3zBrBYyBliEWA9rm7gIuVtO6xelwF16c72N5jrHJirJoMNWURVPFFGPOnJqS+8SEK6zv0euK64/rj55GswTlbPsLszR9iSfUBlFYAeeXAkgYg+6V3kfDtB6HSl0N5JiNFJWiwT5BQocfaD0c8BLqHddkbYE2YMAEPP/xwqMGo8WAZwDKAZQDLANYwBqwkgaxk6/Mpun9QAtSUIsz/7P1YsGEnSjdDH2oZm3Yjv7ZNK6uyOXTo9QVYc7ftxrLylhBgragFMrbux5yGf2Dlfc9ATS/BZDUFk/h9HQqJY7wasBwOA1gjHrDYH82vkOjtBKxj1Fyo6WUou+81ZFbs1euMgC+AxUeuwUgAa/723RqwFgc6UFIOZL7RjpIaYFXDISx/cQuyb/0W1IQ0JOr2IQ79HpNkSoHfZQDLAJaRASwDWAawelAQRKweQFYfILccbO5OAEvUQ3Nd1nibMXMw9dZv4oRX/oFFW6ABi4cZJbC1sHyPfuzrgMuv3ovC2n3IrmtFZk0LFlZbh2Jx/T6U1e/Eydt3Yty3fgmVsxLKPRUpKgmjlaPz/TkilIGZ+K0CDMphA6wQIHutr/k5m4/rklV+mcuR+vUHcGrDHhQ1HOjivcoJtIQAix7Vvtbfwqa9mF/zIYpqO7CkHijY2IGi8oNY0gQs2bILS1+vxeTb7oYaNwPKlQy/8lihaWfQqxvDEKEBLANYBrAMYPUXsHYbwIpzwEq0AIsNGAlYU065CBf+eRPOrHhfexAErghUBCwebASsSDxYBTXNWjn1bVpZtfu19yu3aidKq99H6cZtuKThbeR+5stQ4xZowEqRESd+A1gjHbCcCVYOlFVN6ocaOxclt9yDa8r/g6Wv/zMEVnrNVO8PeVAjCU9TWVv2acDKD7RqwFoUgAas/KoWZFf8CyfVvIkLnn0V004/XwPWWHeKBiyX32G9RwNY8QxYuw1gGcAygGUAa+gAK3i4dY4YCYbOHEGISWKlIAGLswYnQh17Jgqfr8KipndQWLcrlHfFQ43eA4oHHl+nd6GvA25R1QGUVLQjq74FWZvbsHBbKxZs3ofSqmYsrm7B7IaPkPmPFhRUvQV15a1wqplwO0eHRus4VO8yEBPfkqIFabvh1TMFbaFrByvpWDE7DiopDerK21BW/iaKtryH3NoPQl5Srj+7N0tgq6/1V9gA5FS3I4uer6r9KKncj0WBNmQ3tmJ+027M3b4L8956G2V/fh2q7BQoNRkeV0pw1qYBLANYRgawDGAZwDpSwEqwPFjMyxrjmoW87/4apzW8i+L6/yA38EEoodgeouHnfJ1ehb4OuLIaoLSyAwtrm5HR0KLhiloU2KcBa/6WPZjb9CGWb/0AK/74DHLST7Y6bzsNYB0tgKX7nqlxmJCzBsc9+SKWV/0TeQ1vo6BhZwju7Z4rCRNGAvhZVa3IrzuI/PoO7cUqrmhBaVWrBqz0bfswe+tHmLPj3zg78BbKvv5zuJLmwqES9VxNtwEsA1hGBrAMYBnA6jlE6NPqTC62IMsdDBlqkEnxQCWOx8QLb0Vh3W6kV+9C1tYWpNU3dxue4cEmeVh9HXA5jUB2A0vnW1FUuQeZtR8hq24ncmr268NvZlUb8v4BzArsQc7mD5HxvQegpqVbcwsd3sOAKnxI9GGgZUKHcTcJwJKV1O7VQ8MVXMHCBRenBLAAIyUTxT9+Bgvqd2F+wy5kvtmCuQ0fhryllHhQdejZBv69Alb5AeRXAwVcsw1tWFTTjKLKXVhYuRfz69owafsBHPMvYE79LpxQ+Q5GX3Y7VOIxGONOgU8uIo4j/7kNYBnAMoBlNFiApQxgxTdgOX0uKJ+CP6MA59//LJZsbUVWfTPSG/cgZ/uBUDKxHGiELeZlCWj1dcClVbUjs47NH9tRWr0P2fW7kNu4B/n17Tp0s6AJSN8MzKtr0YB15tNvYNbHL9eA5VBuA1gjHLA8HpcGrLmnX4u1j9ei4K0OzKn9EBnbm5G2ZXeX1iASKpTnXId9rb/ieiAvAGRU7EVWYC+W1LWgtHovsqtbkLH5EKa+BQ1ZaVv24dS6j3D6A0/DM78EPlYVOv0GsOIfsJQBLANYRzNgXWMAq2fJ92JzwQcffBCTJk2K1LhE2KYhAcqfrMOBboeC18kGng4kq1FIVClwqWQo70SM+fYPkF/5JhbUAVmbgZwN+1Fc3R5xMnGPZfKN0OLzxVXNWFaxS0t/vRooCgAFlWwECWQ0tKJk8zuY98g6qBlFUM5xcLlcneGmxMTQweV1uroHLQNY8SW/leeXpDxIVl4kexM15PuDPaeUIwnqmBIUPvA3lNa2hdYLu7AX1LcOeP1x0gClP69tRl7dLhTW7NJhQvbFyq0EcuqBYxqAY5r2oTTwFtK+8hMoNR2KuYAaBB1aDlenRyt8lFU0Qth2wKJdMIDVpw28xgCWASwDWAawhhawKLeCx6lCs/8SVVIIsOZllSH7D49iUf3bSK+3AKugoiNmgJWzEchqtACrsOE/WPTSBqSd+kko1/jQnDaKsGUAa/gCVlLQg+W2d+p3jcL8U6/ESU/XoCjQotfKgi3Awuq9yK/bP+iAlUPIagBmNgGztrZiWcPbWP2bP2H63OVQjpSuaykIWroiMmx/GsAygGUAy8gA1tEGWD4Cls8CLI+90aMPTjUeyj0TRVd+HVO3bsfct1qRVntIh1SWc/TN+rYBH3CZ9W1Ib2hDalOL1uoNzVrLN3ZgcTlQHAAyNwHF9FpU70d27Yco2b4TOT9/BmreMii3C8oVlE6GtpL0XQ639WgAK84BywmV4NKtN0YFQ9T8PTmVFRqk92rRj59A3o42pNW0Y2ENULQZKNqwF0uq2qIGWAXVVsuQ3Lo9WmXlrXqNl70CrNoIzGkC5mwGsrbuwtKqf2DGDd+B8s+Gcju7rCeXxx1aV3bvak+hbANYBrAMYBkNNmAdMoA1RIDlT7QAy8sB0hZc+XUJuh8ONQ6jphbi/G8/gtT/vouZ25o1YOVUHsKKTbEBrJJqILsCKKwHMtlvq/ZDLH5rD854tgnuEz4BxQPN5YLT7w8BFg9n6dRuAGsYAJbfiTHKEQIsj1tpQFZqLCavOB/nr6vWuVcLajuQHjiIgkagtLwFZYH2QQesZa8BK9dbgDV3C5Ba9y5O3PIBTvrFM1BT86FcVmhQwoNOt8t6HhzUbABryADrkAEsA1gGsPrZzd0AVnQBy6F7DDn1zdsRPOAS9Zw1J1TSZPjOvwmrnvsHct46hNSGVmQ1HUBubRtKaw6hqKpjwAecNBpN3dyM1KZW5Na26rYNS8ot5dS1a2XV7tNhoUX1rSir2odF5bvg/s46qFHMH3NDJbF1gxtK5750erIOC8kYwIqzJPdEKJUAr8sCDicrB/UomhSoCZmY9+UHsGLDLixoPKCTztOrGTruQFmgFYsrWwa8/goDbVp5tS1auXXNWoXVrXooNBuPllQCeQ1AfiO9qR9iVeM+LN3wH6iL/6fTc+XzdvVihe3RnoowDGANKmC5DWAZwDKA1Y9KQgNYgwNYbq8nBFh+VxCwJs5ByTcewGmvfoCMrW2YX78f2ZsPIofVV4EDKKxsH3TAymT7h8aDyAjs0ZBV1tSB0k27NWDlPfsWJsyfZwGWz2cBltdrAZbDFQwTGsCKZ7kcyV0Ayx1sIKsBK3MVznisXAPW3Jr9yN4OZNZ1ILuyFctq2lGyaW9MAKtw0wHk1kMrq/wjlAU+wgm1OzHn+w/Dl5Ro5VxJaNAAVrwA1m4DWAawDGAZwBpSwEoKNnp0O/y6TJ6J7pQO3axcgpmv1iC3Zh+WMR9l/UGkbd6F1KadSG1qw7yGgScZF9bstFRtHWoztxzUyqjv0LCVHdiJosYWpNd+iOymPVgeaENZeRsyqg8hqw4oPfNUK0zo9QRByx9sWukK5WHZPVlHOmzXaHA0WY3FBJViNbT10xMUnPE3ehoSLv0frKhqRm5lC7JqDuh+aZlb9iOtfg9KGlqRW7V7wOuPhRUUqxIpAa3M+lakN7Ri3pZ2zKhrRlFNG5ZusELYK1/bhcwt+zDx1TcxNy31sAR3hgkNYBnAMjKAFQ+A1a9EdwNY0QUs6aTt0n2lPEj0We0amHiceOHZyKn7J3Kqm7GiHFi+iRV/H2HBlt3I2EbYah90wMqt2a0BK7NhF3K3NKNk/W6sCBwMAdYFt9xohQkZogkDrE64MoAVr5qoRluA5bcAy5MQBKxpqcj+yq81YHGEDcNzaVWtyNraioymfRqw8gJ7Bh2wUrcdwJymVpTUdaBs/T6cWn0Ax76+G2n1u5BatxPLjl15WJhQcrAMYA0pYF0T6eFjAMsA1rADrJNPPrm/gNVjHpZfJzBbSaMrV64MbbibbroJN998c2ijE7wovsavEYgMYPUup8MHpTxweq2DLdnBJHcn1IxUzLj3D1hevgeLK9tQVHVQixBEGEpr2qM10ANuoMp5ugaq4HgoV4KeDUdYHO0KwpRTwk3BsStutqDwabnNKJ34yMEKJocnBsc1WWHcFKhjj0fhM5VYtaEVyzZZ4WLm/GXV79FiOwWtIV5/ad9/BGrC/GCD3mAvOQmxU07bOnQ4kchLjPKYNg1B0V7TVtPG8rnYdv7bfE3sOF9fvnx5qDIzvM/YkSa484NnlQEsA1gjGbB6THS3lzpT06ZNw8UXXxza6J/73Oe6bMbPfOYz+rUvfvGL+jUDWJEBlsNjAVaSCgJWTgly/vhc3ANW2ctvQp16aRfAGuWw5VsZwIpvBb0//mD/Naf+nY2GuuASrHhlS9wD1qLfvACVWtwFsHSI3QBWROJl+I477tA2m7ZbYIv/9uc//3n9eOedd2qbP2XKlF7PhiNJcDeAZQBrWALWWWed1V/A6jUPS7xYVHp6Oi688EK92WWTcoNS3KCEIX6Nzw1g9ZFkHAwNaghxSejCA3Xqx7H8lTpdqVVSeRCFVdAqqGnRymho1hrqA+64wEcYe+s3ofwp+ufxBdtMHJbUHvz5vMqnZeAmviT91/TvyjsR6q6vYlXgHQ1XLHpgwnlhoEOPaaIKavZoDfX6O/75LVCrPgbltOZiemQIdHB4dReQVE74lUfrSELUIxGwaKP5b9K+8rnYcdp0fp3PCVe0+d2dBQPNv+LH2rVrDWAZwBpegPXJT35SP0YjTMjQoNvt7jKXa9asWbjiiiu6hAe5GQlBBCJu0GjlaI1oD5byWoDl6gQsj/Ih+cobcGr1P+MesI6v2YWcHz4ElTzuMMByOZwGsOJc0ivKZwesxKmY9qsHcFz1u3EPWB/b+A4mXHwDlMsXnCBgAKu/OVa01RRtOL1WEhLkv3/55Zdj9uzZXf4fGB7sxf71KzxoP6sMYBnAGjaAdeutt6p+fnQbJgyPtSckJISeL1y4EFdddZUGK0LQ9ddfH4IsuQ0ZwOpdbuXRckg4jY++8Rh/z3exuv49FFS3oSBwUI+tyZORIjWtyK6zNOQhwuo9yHnsDahj0qFcnlCoxqVHrng6k4ld1s8nP28obGMgZ0jlUY7Q78yj8+bcUNMykfrnv6K0+v1OsGeD0cDBUDJ6YbWloV5/J9TuxpQv/AAqeRKU09nZzysYeg+tvyBQcUi07wjX30gELAIVQ4NyQaYNl9dp2+2eK5+v68Uo/PMjCQ/yg2eVASwDWMMKsC666CLl8XgGHCb06r5G6rDqEYq339zcXHzqU5/SG5IgRAgSwDJJ7pEBFj06dsDyjJ6OjF//Diur3457wFpctQvL/tYAb84SDVgeG2BZMoAVz3LbJICVlLUMRa9tREngvbgHLIaoc3/0e6jxM7oAlsedaAArAtnTOghZ/DeZk0WbnpOTc1iulf15D4DVr/AgzyieVQawDGANK8CaNGmSmjt3bn+9WD2GCem5skOFfQxFfn4+rrzySg1Z3KSSJBmtMuKRDVhu+B3+zkPA64ealYOFz7yAopr3kV0DLRkpImClwau6bcgPuMLafSgs/wDJx58D5U3WicVWmDMhGA60hZ4cNsByB8OGBnKGPPfKpxzW+iNweJIxcfV5yKvdgvy6vaH1ZwF+RwiwigJtWkO9/koDu5D92CaoeXlQbuuiwp/F70nR8zzD159XX2iObP2N1BChFCjxOeHq6quvRkFBQaeNsqWHELDsUYyBhAf5MWfOHH1WGcAygDWsAIs69thjjyRMuLu7MKEABT1aEjbkDYagRZWUlOCGG24IbVwaAkmUNIDVO2AlOBM6AcufCG9aMUpf3YTC6veGBWCVVO3ElLWXdwEsvzMZPuU3gBXnYsVqosPdBbBmn/FJFDXuQGHDvmEBWEv+2gS1sFQDlgp6rBK8ow1gRSCpFpRL8Y033ojFixdrkKKNkwiG3e7z9R4qCHf3NzzIM6qn88uc7Qaw4hqwrrnmGuVyuZTb7e6SVKhJyu2OyvBn8WbxVlNUVKQ3KI0A4/oSLpT+WPK8v8ZhZAOWUysUyvCOQsrys5BV3YiCxn1dAavmoG7ASLFkPhqzCAc8LLp2Pwq2HMLCG++C8qXoZqNOBxP3ffqA8wUTqA1gxa8Hyx9sBKtcbqiESci//mvI3vpPZDXsR2YttPKqDyKvpq0zRBg4qBUPgJ9b/j48K0+Hcidbcz31nvIFFUx6dw48RD0cActehCT2V8KBDA/SY8W8K35O211cXByCqn7auB69V90VW3m9XuV0OtV1111nAMsA1vAErGnTpmkXbEJCgl7Ufr9fA1c0R+fYbzIpKSm6ESk3Km9FfKTEk2VvYsfnkSbBH22ANfH485FbtwX5Dc3DBrByb/0qVOJYDVgO3WfIANawBKykKSi5+VvI2favYQNYBVUfIemEjxvA6kb2S610Zeffk56FhCtCFp8vXboUSRzaHpYCEqH69F7xTEpKStLPExMT1axZs9TMmTMNYBnAGp6ARd100016QQtk9XSj6MaLFRFkSbK7AAc36KpVq0K9sQhafJRYP1+XBqSRtnEY0cOeCVZO6X/lhPKMw5SzrkbWln/oA66ACcaSZFzdhrSmFq14CdFwpE7eNqD4zu9DjZ5szSV0MpTgC0JW1wMuFKIJtqUwkDP0Se4eAWCPD2rMTCy542fI2fEhFja0a7gi4OuhzNWEq2YtDVzVQw9YubUtyK9vxfgzL9fhTTYTdStXCKRCF5dgmxABr6OlTYP9UivtGCS5nf+W5MyuXr061N+KOVf2vKsI4apX75W94IreK37ceOONvZ5d5mw3gBX3gMUbwsSJE0OAJQu+D8hyRxoqlHi8vdpw9OjROPHEE0NQJeLnBC7Z2JE2Ih3pgOV2OYKVdxZgzb3oZuTt+A8y61viHrAWNhxA7lZg+dfvhRo/3QIs3X/IANZwqiIMAdb4OTjua/cj982PhgVg5dTsQ/HmA5h54fUhwPIoNzzKawAr2EiUtpZ/j7ZX7KmINpVwlZycfBhcRWjjJDQYce6Vz+dTU6ZM6dV7ZQDLANawACx7Tyy6ZeUmEa1QYXiyo2zO8ePHa8gSN7U0IKUrur/J7yMZsKzE4s7WBso7AalX3oHsN99FekMbSiugxUaPJVWtmL+5WUsfeHEAWNkNB5G3GVjz3QegJs6A8rqtXkpOrzUCSHWdSxgqkzfDnuNjFqH99+NLhBqfilO+8zDyt+9GVkO7leAegF57JYFmZNfvsVR7UGuo119W7X4UbjmE1MtvtQBLd3N3BuHKba0xgrzX2mfS6NYVDCUeDUnu4r2i7bW30uHra9aswZgxY0JFS3bPVYRerIhCg/I4atSoXntfGcAygDXsAIs68cQTuyz6CAAr4lChPV6fmJgYek4YOeuss3QLB0moFK+W5GEZwLJu1yHA8oxHxjVfQub2/yKjsT3uASun8ZCGrNN/9CDUhGMMYA13wBo3H2f+8HHkbds1LACLFbX5TQew8KrPdQEs6cN2tAOW5FzJZA3aYHqyaJPXrl2rf6buRuD0Mcy5z9Bg+FnDhHb5OO644yI6s8zZbgBr2ABWRkaGTniXCkL7gh9oqJBeLIEsu0eLEMKNOm/ePH1TYvM6bnYaCWlGetQDVjDZ2xUCrAnIuPYrSN/yDhY2daBsI7Q48Lkk0IK5W/ZoxUubhvzGg8iqacWZP/kj1ISpUN7gkF2Gmxy2ZOJgiCYEWAZu4mrYs4YQfyLU6Hk468dPIXfLR8iub9ftGdholCObFlftQW4dwWsXMusOag31+sura9PKvPoLUJ4kPazaqYeNO7VCa89rSQDLq9xaIx2wCFa0mzK4mWB1yimnYP78+YeNP7M3l7anfAwkNChwxbAgP+bPn69yc3MNYBnAGlmARV155ZW6ckM+ogFZ3VWbcOPKBpU+WXyNYUOWAXNQNN3VJkTYFbCs6rrxGrDSmt4eNoC1MNCCtT99GGr8lE7AYsNUA1jDD7BS5mrAytn8IXIaOoYFYOXU7A8BFgtGDGB19WDR1p5//vm6jQ5/Bl567YVJPc0W7MWLFXHelf2MmT59urr88ssjPq/M2W4Aa1gBFnXttdeqsWPHHhYmZAuHXsKH7iPpjyUerfDNy4RKzrg67rjjtFeLACUJmPaWDvKchoR/5u6778a6deu0YSPw0PgMe8Ci4fepUENEh3MSytZ+HhnV+5C/+aCVUFzbrMMzFA87HnqZDXu0hr5M3gohHfej30GNZohJhjorJAQHP/vl52T4UCXAoRI62zcYDamSlKPz98Pf3ZipOP6nT6CgFlpl5W1aRYEWXbGX2gCtoupdWoNXHRiZsjcDC2o7kHn+TVDuRCTpn8k2YNwTlMutiy5GqWSt4ZLkHggE9PejrXvyySfxpS99KWQbJfwnw5kZEeDnMhuWtpU2lrZWkth7y5/tZ78rd3hfq9Bh4XaHzhB55JnDs6c/Z5U52w1gDTvAom6++WY1ZsyYwzaGlNP24Nk6Ysjqzg0tLR1otNgF/uKLLw5NdJe+LfZqF97C7rrrLjz77LPa4FAbNmwYcYCl1ASUnna7Bqwc5sDEOWDlV1uAtfy790GlJECNMYA1nJRg//2MVVCjJmH59/6I/JpDwwKwFjYcQnrdASw4+3ooh68rYHmGP2DRe8VH2h96sO68885QHyu7d1/sJm0obSltqnirwiMOA7BdfXqueH4IVMnZwrOGZ05/zylzthvAGpaARd1+++0hyJLKQjtYseIwGpDF0KAMh+bz8JCiPZQ4c+ZMnHzyybjuuutCtzJJhqdB4c2MRobAwxvdiPFgeeyANQZ5J1yPvMAuXYKeVd+ixQOOEsAKlcsPdZJxDZBTCyy5+8dQLHBIsEKCLtX5M3lDZfJMPE7QMknu8dNo1CvrMEVBJU7E6i/8EpmNHbpNA0PTVEF10GMUbHxbULNHa/D7XPWuzNpWZNW1YebpV+j+awlBaLQAy9XZDoRgoTxIUklaR9ImZKg8WJIOQe+9vTmzNA4lWNFm0nbOmjUrZGNpW+32lh6rI/Ra9QhX9gR2e68rqRbkGcOz5kjOKHO2G8AatoAlnix+JCcnh0pp7ZBlDxt2A1kRNSLtqSOwvXeWJMMTwPj6uHHj9A3svPPO04ZDxjswjPj8889rz5XkJYwUwPI5OgErbeknkVP50bABrLx6IOe2r1uA5ZeO2QawhtOwZ+3lSbIAa/Fnvo/szQeHBWARrhbW7MeE1ReEACtxhAHWG2+8oe0d808JWAJZ7MJ+zjnn6LzWsWPHavtJO0q7KvZJLrg9XX772UjU3V0Su5wb4WcHPz8Sz5UBLANYIwKwqBtuuKFL7JyvScWHPA4UsuwhwvDN3lMiJUGLeQOpqakoLS3Fsccei3PPPVcbGQGrWBi4mLRpCAKJRwNHEqYWrEXpKztQUN+M9IZWrcJqS/HS4DF0ADYe0MnQCz5xqzXsOQhODp3I7u5s9KjlhE+Pz/F1hm4M5AyprLEyrs5EcN9YrDzvDqRv/wgLtrSiMNChRZChSisPagn4D/X6K6prQe76d5BUsgbK5bGFnp1wOMMBwg2/8mkdyfobCsCSVAiCFtMjCFRsDEqoSktL021x7JdYu13qzrYe4QicHsOC0sBa4Iqfy2W9tzmDBrAMYB0VgEWdc845Pbp4I2xGeqivTu/SIbgvMJGv2ye5i+bMmaMNnD3xcyQBltVROxkJc49F5jM1KG7aH/eAldd0EBnVLZhw2mW6issA1nDr5O6y+kHZACv7+E9j/ub3hgVglTa2Yd7z26AWLAkBlje41tRhfa6GH2DR1kkO1h/+8AfMnj27S5jPXgHY3QVWogJSzW1vqRNBSDCiJqLdNa++5JJLBnwumbPdANaIACxq7dq1+jHCBqQRe7N6AxHZ6AJhEia0/x12F6b4fOLEidrI0MAReiQBdFgDFhseujydgOXyQY3LQPED67C0YQ/SGtu0pC1Dbq0lOfjiwYOwcP2/kFy8BsqR0BkSdPgsOTtHsvh0ArJHS+dqJRjAGXq5LYVCZj5kpZ+G2TV1yNzcrAeM6yHjwbYMKze2aXHKABWtEGCkf56hSrtW1DUj88G/QU2aq0PQVosGymp0K/tKGqr6lFtL2jbEO2BR69ev16D10EMPhRqD0lYmJCR0sbNyiY0kkV3CiUfitQr/sKeSELZOP/30qJxJ5mw3gDViAIs6+eST9SaRiecR9skSyOrTmyVQ1V3rhp6GSNtBbPr06XjiiSc07BB6YtELKxaA5fHYZva5/VD+Wcj82cPDArAKa/dh/svboTKWHQ5YTr8BrOEEWG4LsGZOW4Fp5ZXDArCW1+7FnF89BZU8BcrdOTnAxbU3AgCL34OAVVNTg8ceewzTpk3r4sESD1UkEYQIPFd2r1VEcCWVghIqXLNmTdTOI3O2G8AaUYCVkpKiN0h3U9DtsMXcrB7ys44oNytSTZkyRRsZGp1YhAdjAVhO5dINEZl/ZYUIGa4ZhVnX3YEzy/+tw4PzqltQHDiAgoo25DZwNEg7sja0oIQ9qAY7x6p6Pwrq2rX4PLtqX+eYnEALltXsQuoDf4IaNV17DUJtGVxJUM5EC7CCP1uiBiy3lgGs+AEsp8sX+j0lKA/Gu2Zg5h/+gJKGt7GwugNZtQe1MgLtWLZxH1ZWtCK96SBS2ek9ykns4V8vqT+ArE17UNpwEIU1bcgu34v8wH79WFrbgdPKP8BkNhn1p3RCokOFho1LTpYAllu5tYYTYNFTLyHCqVOnDtZa6NFrRYhifq49Vzc8pYQfxx9/vH7NAJYBLANYPWju3Llq+fLl+rlAFTeUbCp7+4YeWjkMGmiNRMCSjtNuyVUiYLmSkXz+p7Hmte1Y2NSOBfXtWFwH5Je3YmH1XuQ1tiGvoh3FNbEBrC59r+g9q+/QwMXPCVijv/VrqKSphwOWI8EA1jAALAfnRjo6AWu0mgrfD3+oAYtglVMP5DawcvUQlm9q0Upr6IgJYBGmciqaNWDxeV5Vi4YuPhZXt+GE1/4D99lXWwUWEuZkmNCRYAArCknsEs2we6kIUXIe8Jzg89LSUjVp0qSonkXmbDeANeIAi+JmWbRo0WFVIuLVijB86I5Gc9KjAbBcDndn24KgPEVLcdZjryC7rkXP+ltWB5RUtCM18B6ym/agkA0+Kwc/2Z1ARciit8oOV3zOr5+68S2kXHC1PtA8ytFZxeUaBeVI6vIzuTR8ubWO5IAzGoxROW7d3kAFc5fYpDNF+TDmwk/ghPImDVgEq/w6oLgWWFS9G8WVH+nmnmzyOdiARbhiKLC0/gByK5p1ocfixkPIr2pBQWA/1j76Ohy5KzrH/gRHMtELzKa2fuXUwH8YYLklJHrUApa9r1Wf8wTtSe1yDkjuVVFRkcrKyor6OWTOdgNYIxKwqGXLlqns7OwQTHXnIj6CJPhDBrAOByyPq9OD4AjewNX0eSj7+SPIqt2HjKp9WBw4qJVe+yGyGndrwMopH/wcLAKVeLIIVRRhS4Br1YsNUEtO0iEZybMygDW8AUt7GMtWYtkrVRquGCbMZs5f9SENWCVVO5FRfxBZTRh0wKKnqqi2HUU1bSHA4vO8yn36ccnPHoeakm7tRwNY/akOjDiJPXzih1y2KZ4RS5YsGZQzyJztBrBGLGBRxx13nA4Zys2FIUG756ofSfBRGbUzEgEr1PAvCCF+r4KbYTVPAnI/81WU1u1HYdV+LNrQgqUV7Vi4+QMsaHhXN3vMDRwadMASb5V4rAhWkodV1HAAq/73Caipc0JgpROK9c+SaMnuWXDbDjgDN/EhJkhTIQAOhninzMBJ//sk8huB7NoOFJa3oqiiDVmN7yO76YOQV2uwAEuS2Jl3VRgEKnqsigKtyK/Ypx8X1R1A7rVfg3ImI1kajPpkraVowPfp1iCdkO/Wie+eYTMqJ8qAdai/YBXuyZKIBj/mz5+vz4jBOn/M2W4Aa0QDFsWS2wULFhwGVPaNFivIGqmA5QoecFSivxOwEk6+BHkVu/RBQsBavHG/BqzUuv9qwCqsG/wcLPFUSc6VeLIk8X367d+ESpmkO2gLYDl15WBCUAaw4lqEe1aXOR0hwNKgkjwWc27/FnLrD2qVBg6guLJdA1bO5g81YGVHoYq1L8Ci94q5V/ReldR1aLDSF466A8jesBsJx1+qAStJ3rc/uNacyQawogRX9jYMcgakp6erU045ZVDPHnO2G8CKC0WzcqOnHlllZWWh8KC4i/sZKrR/HBFkjUjAopF3BsMbToVR3mCIzeOGmlmKyf9XjWWBDqwob8eSN/Yhe/sHSG/6LzJrDiE/BlWE9FbZQ4PiuSJopb7xIdTq83RCe0owvES76PJ2A1i+oIKA1Tl70WhoPVgOve6cbpcOofF34ndY/djGLb8Q89d/iJzqdiyrBhZXdGDe5reRtu1dPQw6u7J98AGrpk3nW1GLWElYtV9XD5bUtCPl4RqoKUXwuPwYrZSWLpxgA1Fnki4W8SpnsG1IGGB124h0xAKWwFX/b8S2ikHJxVq6dGmob+Jgid/PnO0GsOJC48aNC40oGCxlZGSok046KRR/72d4sKcO8Aaw5CYd7Oie7AkCVoIfKmEu1LeeQMmGZqyqOoiy9S3Ie2snsra9rwErq/JATABLwoRZlc0arAhY6Rt3YeIz26EWlGnAGm0DLG+CAaxho+C6c3nchwGWmr0ME57djgUb92rAWlTejjmN/9aAVVCLmACWTDAgaDHRPa+8GYvrD+owofrOOijfPCT6R3UPWO5RBrA6KwWP6DZsnzFIu882PqmpqYMOVzzTzNluACtuQoTsYTXYkEXddtttatasWV3cxfYqk/BkyGh6sUYiYCWpZC19MCRZIQ4muifqkEcSEvJPxoVP1mBZYLeuJkxrOIgFjYeQ29Smh0Hz8Cmp6kBpZQeWlHegbNNBrSXl1kiTwoA1Wie7tk1XJMqQ6Ny6XVpztu7BnC0tSN3cjMz6YO+hqg4s2witjC3A9PoOzN5xCDO3t2H1xl04543dOO2Ft+G/8jsGUIb9sOdkLRmVIzlYLg0kSZj+qZtxxvrtWFj3EbLqOjTYL9oC5L6xC2W1B0IAVFLVqj1cZXoNAkvKgdIKoKgKKAgAuTUd1t+vb7XUYK3DghpLebX0jrYhtbEDqQ1ASaUlDjfPrjiIeW8dwoytu1FY+R5OLX8Xq56qhSq7NKb/V8MUsHr1XtlttN1224c484M2n7Z/sM8XnmE8y0yI0ABW3OVgycIcbLEk96qrrlKTJ0/uEp60u5UjGLnTby/W0QhYako+Cr7xR6yqb9GQNL+uQwNWdsP+mADW/PpDmLsNmL65DbN2tGPl6x/gvA17seT/aqGWX2EgZYQDllq6BmXrNiCnaQ/S2eCT/dhqCT/7tQYbsAoqgZzKQ5i9vUMDVnHgA5xR9QGmf+cRqNmrDWBFwXtFW21P97B7kmjjaesHow1DT82uTQ6WAay4BCxxrcbCkyVhwxtuuEGX6rIhXThU2aGrFy/WUQ1YLuXT0qEal+rSLJGtD5R7KsacejXOf2kHjq3ai/T6fchs7EAOK6jqDyKjoTmoFi05wDIauoqvZdcF81oCrSitasGSyhYs39ihNX9zM+Zv2YWshp0oqN2pD72iqg4sLgeWVlmHKg/JzMC/sfTNf6Pglu9D+WYZSBn2gOXTCq0/t00cd5Q0A3lf+BHOrvovcss/RGrDfizcAhRWHkBx4BDSmvZopTc2a2jKrG8JKrgO69u0MuvbNOQTogoDbSipssRxT6xSnL+5BfO37EFe3S4tHTJkWLLCUn7VIT2WqazhHSzbWI2CpZ+AUhMNYPWta/oa1hwOW7TltOm07bTxsThLeGaxUan9wm7OdgNYcVdFyAUavlBjoQsvvFCdeeaZavTo0V1czQawBg5Yat4K5N37tAaszKZWLGxoR1ZNuy6hH2zAIlwVvn4ApZuBzMr9yG94D+mbAlBl50K5phtIGemA5ZsKtep8rHq+DkXVezC3thk5O4DM15v1dIFYANbiSqvnW0lDqwascfc/hORJSwxgRQGw7OFB2m7acNryWJ4dPZ1Z5mw3gBWXbRrEkxWrkGF4+PDGG2/Uz3uYV2gAq0sVl1MrMVhm7gpra6Dc7Cc1GZNOuxxnP1WOVTXvobi2BQurDuhWDVbYrwVZ9c1aAlw88ERWOMYKwRQF2lBa2YYlFW1Ytukglm+A1uLKFhTW7ET65ne1Cmr26D+3eCNQ8gaQ1wBk1u7CmtodSPvcXdZgXYfLQMqwByxLrvBiBHewCalKgsM5E/m3fh3nr9+G7KZ3kdPYirSKdmTVApkNe7ooo9FSelB8nlXfElp/Gq4qD+pwIr2jeg3XACWBFpRU70Rh7fuWqps1fGVWATk1VkL98vpmnPXMBkw4+ePBhqjKANYAAYs2mraaNjtWYcDwkCDPqu4cAuZsN4AV132wYhkutCs3N1dNnTo16u0ajkrA4ow1x2SoWUXI/e5DKNv0LyxubEdOLZBVfWjQAav4dWB1PZBR1YbcxmYU/m091JKVemaiAayjA7CUmgpVfBKOfeJVFO7YiQWB3SjeBqRXHYgJYOXVAUX1QHH5+8j8wW+hZmUYwIpiewbaatrsWJ8TPJt6gisDWAawhkWj0WnTpsV843CW4ZgxYyJpRuo+6gHLY8kCLKdujOhm+XiwfN6hB9e6dE+fCcd+HCf+7zqs3fiubrrIA0iS2vWBVdGhk42pokCLVkmgWauoulmHBq3y9w7kVQdDM00HtcrKW7UYNmT4kOFBJiXP2NKOtH8B2dUf4IQ/b8SK82+Fco7SSdC6IaqBlGEtGSHj0nJCuUXW+vMHxxsp91ikX3gDznmuEkvK/4Ost4C5DW26uIKSkF/4uiutskSAKqxuQUFNC3LZ8qOuTc85LAhYxRjLylu1yipatFhowfU5+c02THmrHYsadmP5r59GUc6ZVug8UVkygNUXYPWa4E4bTVtNmx3rc6Kvs8mc7Qaw4h6w6IKNdT4Wx+uMHz8+0n5YBrB6ASz+GZ8vQQOWSpqJtDt+jBP+vkOPDcmvbBt0wJr7JjChejcKG/dg4S8fg5qUr70aBrCODsBKUA4LsBwpUJMXouy+p7Cy5n1Mr9qDtC0HBx2wJu1oxbgtzcirfBfHfP7HUOoYC7BSDGBFA7D4QVtNmx3rvKu+UljM2W4Aa1iMyuFijiVkMZY/UgArEAhg/fr1+vsRsKZNmxZ6P06nMwohws6kdocehOzRkrCN7orulKT3JKiJWVh8569wYe37KNn4DgqqgNxyIJehlICVq1JQdQCl7FdUdQBLKlq1Squs5PbcWisZPrWpBbO2tuCYbXsxY3sz5m4mdAHHvmZpZtMhzNrainlb3kPe9n/gtF89jqmZx8GtUpDgTLAG57oMoIyURqNWwYW76ygZaULqsuDfr1IwreBUnHH/X5C75d/IbdyDzAC08uotZVa2Iae8DaWBdpQFOrBk036tRRX7UFy1T7cWYSXs7C17tQj+bBw6p6kdM2rbsWojsOINIL2yFVkN+5FW/zaK3n4bBXd9H2psKnwqGck6+T42gKXnhAafc+8Tcgg7GzZsiIkNihVg5eXlxRSuIjmPzNluAGvYzCI0gHVk4vcRY/r73/8eEydOjOocwr4ASw45pzsIWN4ZUCsuwrxfPYXVTS3IqwBKaoHCWguyOMJkcQM0YBVtau0TsGbu2Ie5/2xD2nYgp+qghqsTNkL3vjqmaR/Stn+IWeUBeD52lW7LkKDG607sBCynwwDK0QBYPOv8OudpLNSoBfCecxNmbaxD/uZmnT9FsGJOYAYnC9QewuJGoKzuEErL94c8o8zxoxdL1t+crc1anLVJwFqwA5jbBBy7AVhdDuTUHcLCun3Ie3MX1GOPQa06C8o9RQNWIt+fLzh3MFaePodDe68JOfRgEXoMYB05YJlZhAawRtyw51hB1kgCLAkD0KgyPDB69OjoeK7CQjQaspxu+JQoODLHZYUQOUw5QY/2SIZyTYbvxDOx6o/PIq/yfeSzPL5uN1JrWDLfgrm1+zA3sA+5TUBugB4tqlUrq3YvFtbvxbzNu7UWbN2DBY07kc+mkYGDeohvZs0BZNbsQX7tWzj9Ty8j84ob4XaNhUN54FScWeeEw5sQTII2kDIiAMthDeJOCiq0JulBHaWCo2jc2oOpkuZg8nU3ofTF9ciofA+ZTS26mGJ+436kbW3HnPpWzKluRX4TdAiwqOqgDjkT8NlclEUXbMlApe7Yi5mNH2B23X6k1rdjAedeBtpRGtiFU1/fjpMfeBJjVp0C5U7SY5YcwX0xWvkwSo+8ic3/Eweyjx07Fv/3f/+nbQ/tAm2CAazBgSsDWAawhh1gSeXGYFcWjjQPFg0p9eijj2rA4m2WBjdmgBUcAE05ecC5JkMdkwp17pWY8/dtyK3bowFrXmAXMrd3IHPbIaTVtSG74WCfgDWr9j1kb9+HpZstT1hGoF0DFg9CAtaom+6GmpGuwc6pvBqufB4/lMsL5fQYQDkaACtBYYJyaMDyqjFQrqlQaZlQd96DtE3/Rd72Dizc3IJZNXuQseMgFu6AnjggOVa9Ada8bbsxd+suZGwHMjYfQmr1fp0jWFz5EZb+uQLqjE9ATZ6tAcvp8g0JYHGv81I1ZswYbX9oC5g6YABrcM8dc7YbwBp2gGVPMGRzNwNYfRs4MaRPPPGEfg9Ry7/ScnZRCLiCw2kdTitU6FdBL5aL4RsPFHNDkpLgWXMOltz3KC4v34IzKrZhWeU/kFf/LtLqPrSajNZbyersws6Dq6C6zUo0rtujlV2zB4VNrTjh1Q+x4m//0n22TtnxDk74w9PI/NQt8CcxqdhjhYqC7yFRDl+/Aaxhr+A6c+mhyM4QyMsadPgd+nftcyr4HC795xzKC8V1OGkKZlzzeRz/2Eu4pOItHL9+G0or/4X8xp1Ir9+rvVGZdVYbBoKWVnD95dVao3Jmb96nddJru3HCa+/g5Or/4vTGf+DYX/wOE49fGxzl44TTpeDxOuBRctlwI4HvIwb/R7LXuff/9Kc/abiiYmV/hjNg8Yw50kIrc7YbwBqWgDXYswtHEmCxglC0bt06ZGdnR9mARw5YScoBt/477hBgqfGzoU69EGk/uA+rXqzCCY3voaDxfQ1YOVsP9glYhCtCFgHrjIq9OK72fcx44i9Q518JNWYmlBoDp8uv34vPa/OsJXgtyDKQMqIBS/+OfUqvO8rDtUfg9idCJSZDTUyFuvgzKPjNOqwpfwurt+5Cbv2HmF+9EzlbgKxgflZh9SFLNe0orN2P/Lp9yKnfh9Qd7RqwTlnfjDMqd2PZq1sw7lcPQp24FmrU1BBgyftMcDv0XvAF8xVjkXslz7OysvDMM89ouBLwMYA1sEpBA1gGsEYsYAlkRTtkONIASxJaX3jhBaxZs6Zb43vkB5zlkfLrKi1bk1Fv1+G7IbAJhnRSWDbuUBinvEjhITQpFVmfuAFn/OFZnLpxMxYF/oOcmo+Q1dCGrHor+ZgHXHF1OxZVtWNRYL8WE+FZZr+q9iMc+2I1Sj//XUzIXAblSrFyrLxBD4ZSGOP3Bsv5FcaNtp4bSBnucmuF1pejq1hsMS4hOdRORCVa62G+sjROJcDlmIwp2auw4n++g/PWbcIp5f/Eoqr39ABn5vTpAdHVQFEAWFQJXd26KNCmxfW3tPIgznjtfZzx2xdRcMlnoaanWd7RJDf8PqsJ74SgBPhi1QfLvse591988UUNO3LpMoDVexPRgfwb5mw3gDXsAcve9Z2N36IBWyMJsCgauNraWrz++uu45JJLQiGDqORhRQBYKc7OA5BtG9w+C7AsOTVgKdc4y+O07DR4v/pjzH++Ggsr3+sTsHjYLXzpI3h//ieoc6+GOiYXyjPZqlgkYAWrHH3S9dulkOB1aLjyuQ2gjHTASnZ59e9dJXPws9eCLJfCXGVpgu70Pt6amTk1G+q0KzDxZ48g9/V/IDuwt0/AynujGQueewcJdz0IVXo21Kg0KN84C7C8lieNgDWV+18uGNwbo2MDWLLX2a7h0ksvxRtvvKFtAeFqJPXBigZg8ezgGTJQsDKAZQBrxAGWQBbhaObMmQawwhqNUjU1NfjJT34Cr9fbJQFWnns8nqglv0d+w7YUGtSrq74SkJCRjpknnIATP/9FnPPDn+Kyh/4Plz7yJ1z8xLM497Fncdz9DyP32z/DmjNOQ3pOFrzJiUHvmMMa3yOHbA9J+aFQptFRLfFoOtxBDxfX3/gUjC8tRs4F5+OUu7+CC37+S1zxx8dw2WPrcPGjf8Y5Dz+NVfc+iOyv/ADLVizH9BnHhNab0+2Cw+Xsc90NxvojTNn7Xtn3Mvc89z5tQKy8V8MJsGbMmKHtfrTgygCWAawRB1i8gaSmphrAChMbjdLAvfbaazoHY+HChV2aEPIxHKxorKPZzqEvwHLq8I0byu+E8ruhkpOgmJA/biLU3DSovGKooiVQpSugSo+Fyl4ENTsTDp+ns5JMAEvgyukwgGXUeyNOh61fmwBWAvMDE6DGjdWJ8Co1HaqgFKq4DKp4OVTRCqiMEqjp6fAnJoTWnMvjhsfnDYG9PTw3WIDFfWuHKn5Pfk6g4nPZw9zzzz77rPZi0xbQJpgQYad4ZvDsiGa6iTnbDWCNKMCSjTLQ6sKRmOTOxNaXX34ZdXV1uPrqq7vAE58LYNEoy8EQ1YakPSjBlqOVoJOUHfAqt24a6eJIEa0kOJ0pcDrGQjnHQjnG6OR1LQErjwtOvxfK7epMsI/Ak2Ag4+hWom39JSqXFVJkp3Udeuxcf8oxSq89rkG9DmX92cKRjjDPaRfwGSTAsu9VeS5tGex/hnuee/+VV17RtsDkYB1eLTjQi7kBLANYIx6w6OIdaHXhSAMstmlg7gW/L/MvODInPT292zwse5gwFuHCUQ5XlyR4r370wKO88DmS4HImWgecVopNPODGarDqyYPFcI0BLKPelKQcofXn13BvdYQnYFlrz9/j+nM6xmuvldMG9aG153TGxIMlIBUeHrR/jXude56ARbtD75Vp03B4sVQ0w4MGsAxgjUjAikZV4UgLEfL7MTRAuKKxo4H9zGc+ow0ygSq8L5Y9MXbwy+zdITkdXrhcHHXi0mEbr+qsQqSSg5IE+THdJDVrL4I9TGgAyyiCJHkWajic3mCrEavdiDsE/J3rL0VJV3iFscoWiraBFfdUT97faK8/2b/2y5A8Z5iQe/imm24KhQQJWbxsSTd3A1id6SXRbvtjznYDWAawjoIkd84itDcc5ePTTz+N5cuXd0mC7e55TACLHdVdXg1YjmAzSAEsO2QlhQEW5aAHwevRUt14EgxgGUUEWEE5XR543T543R74nW4NWXbAGmUDrNE2wOouub07yBqs9dfT/uUe516XvU+7Y59PagDLAJYBLANYBrAGKBnwSkPH788QwY9//GPdfFAOA7n5+ny+2B1wHFkjY2s0bEkpuwPK7+rsX+SxJSH7OttAHAZU0njS5er25zCAZdQlSdyfBOX26TFPWi5bRas7bN2Fr0NvZ4FIdwUhMfEAh0GV/X0wsZ173H6xIljxkTbAeLAMYBnAMoBlAGuAPbAaGhpCXZvtCa4MGd5zzz2YPn16n7fiWHiw9KMAlqtzUHQIqOyAJa/Zw4HBvKvucq8MYBn1GqL2+CzZASsMprp87rcew5PJY93qRPZoeGEK9/TXv/71UFsGaTbMx3CbYADLAJYBLANYMdso0QYsMXoErJ/+9Kf6Bkm4YS6EdFWWHAmZExarURbUl770JcyfP7/bxNnBbtUQ3uldwoLSnyh8JMphANbPodQGsIzsCl93MlIn1B8rbPTTYetwqNtMdOMlS0tLw9133x2zIhr7UHm51PGRto02rr6+Xts09uGaNGlSf2ahxgywmOAe7Ykg5mw3gGUAKwaAJTdaTrP/n//5Hzz00EN6ZAUTTtmbSjxLYpxi1WVZDCPDBt/4xjeQm5urw2p24zfYYQ4DWEYGsAYOV9yz3Lvcw9zLscqxsnvKJddT0hBo2+hBo62jzbv99tuRkpLSnwplA1gGsMx/ggGsyEqpR40ahcsvvxx33XUXHnjgAV3ZRyMoITv7LVA+j9UNtKmpCU899RTOPPPMUO5SeGUhwxF2wyi9dwYkp+oiJ8N8eig0xXYNlnxs26Dl1/KrRK2+/n3+W70pKj+D0bBVCNRdnWvQHVx/Pr3uLPmVNyh/UNb66+960iFtm/r882EXtZ4qFBMTE3HWWWfpge6NjY0x7XMl34e2S8KQ0h6Gvffuu+8+3HnnnXpUTxIHvBvAMjKAZQAr2jlYY8eOxRVXXIFbbrlFh+XuvfdebYAkP8IOVgJasfBg8Xu++uqr2p3PRoQ/+tGPcMIJJ2DChAnacHdnDLs7AI4sByaszULQY+AK9iNyB+VVnqB8Wj6VoHWknivjwTJSSnXtoSYFEsH159XrzlInbPmCstZfv9dTH1Wu/engzr05btw4vVcZfqPHiKkG3MsCOLG4oIVfDCW9ge/jZz/7mb5Q3nzzzbjsssswevTo/jQxNoBlAMv8JxjAiiwHa/z48fj0pz+tXeU0OJ/97Gfxne98R4+vkQGsBBwaKLrW6XKPxQ2UhpDfj7kSNNA0lnTrM9Rw2mmnIScnB8nJyV0SeeVnkjytI1WXhHV7IrHbGZQbDqcbTpHDaufgCsnZLw30/RqNLOlkdZGsQ7e1/th2gWvP5bDLWned6zCydab/rW7U5/tTnb215HOG2fLy8nDGGWfgm9/8Jv7+979ryKFHnHuYtoSwFYs0A17KaDtoM2hHCFb8nDbte9/7nrZ1vFDS1l111VX6kmkAy8gAlgGsqOZg0aDw9vapT30qZHRuu+023fDz29/+Nh5//PFQh+VYea8k94vGmYaSgMfqInHzM2zI98IZZr/4xS/wxS9+URvJc845B6eeeipOOumkAWvlaSdoHXuqpVWnWFp98klBnYwTTzoZJ4lOPFVrTUgn9UvReM9GI0fLTj8hJFmHq0+21t+Ja07Sa2/NiXZZ665zHUa2zvS/1Y36en9r1qzRe+3cc8/Ve4978Je//CWee+45vXe3bt0aCsnJJY0XM36NuVCxSjGgnZAZh7RltGlscEobRxGw6L1nmoS9JYwBLCMDWAawopaD9clPfjJkdL7whS9ow3PjjTdqN/rDDz8c8lrZw4aDnZwq4QTeeAW0JElVKhuZkC8G9KWXXgol50vZ95Gq5nVL1UEF3rBUsWG91qaNljZsel3rjXJLr1e8prVpw8Z+aaDv12hkqWJD55rrqvValestbdrYdf29WvmaVqTrbMOm7tXX++Meo2eIe06qjglS0tfOvg9lHJYUzMQiB0uKZATsaMOY/kCbRtv2+c9/Xl8oae8YIjQ5WEYGsAxgRQ2w7K5werA4dJWGhx6sz33uc/o5jQ9DhkwEZfI7DSoNaSzaNPB7EJ5knA4NtzQklHYRfC5tJCSRNVrhh7r1lmqDqtlgqWrTRq2KckubKtZrbai0tL7qDa2KTeX9UiybuxrFv6o2da65rtqoFdhoqaK86/p7PfCGVqTrbFNF94qkQTBlb9/C/SgXMPmc9kLaIuh9VVcXE8CSCxhTG+6//359Ubz11ls1VAlY0bbxkd57XjJ763RvAMvIAJYBrCNKcidgsYrQbnzEfS5hQ9742H2ZIQCG68SjJcbU3qQ0Vn2yjIyMjk5pL1/Q5sijeLv5NVYs/uUvf9FJ9rRdkvpAe0bQkucUbZ+0aYi3RqMGsAxgGcAagYBFLxZzFSh5naFDQhZzGSTZnd4le4UOFctcLSMjo6PQwxcMRQpo0QbRFvFzhippo2iraLPEftGW0WtF22YAy8gAlgGsIQUs3vp422MTUr4m+QscdcG+NpJ7QYPHUB1vkbFIYDUyMjKS0KSkCdD2ELLYN4+jtmjLbrjhhpA9oy2j6NEygGVkAMsA1pABlrRrkGRQu1udz5kwysRRgSp735lY5FgYGRkd3SFCe0hQurTTJjHfSkKCFO2V2DJeFu3hQgNYRgawDGDFHLAkNEjDJDc/yckifF1//fW6NFuS32V4q3iyzCFgZGQ0mFWCds8VbRCT2WmTaJukx1W4/RLbZgDLyACWAawhDxGKJ4vic/vnDBnyRsj+Ny+88EKossgcAEZGRrHIwyJo/e1vf9P98GiLaJNow8RTJaBlz8GSlAcDWEYGsAxgDQlg0Z3OWx8NlHiyxGDRQFHyGr/OMTZs/Cl9Z8wBYGRkNNh98mhzaHuk2llsU3eAJTmlJsndnO0GsAxgDSlg8SYoOQzs6s7bn91w8TUBL36Nr33rW9/Ck08+abxYRkZGg57g/qc//Ul3Zic0iWeK9oi2yf457ZPYK4rPDWAZGcAaQYAVjY0yd+5cNXr0aP08WoDFbu40LuxmLJU2Ala9SUKI4sGS2yEh68EHHwwNa5YWDtIA1N7R2cjIyKi38J80DZXCGT7Se/W73/1OVzPb0xZol8Qe9WW/pFiHEEbbRxsYYRf3iAFrzJgxasaMGQO+mPPsMIBlAMsAVi+i92qggMXNyk0bTQ8WAYtdjD/xiU/0C7DCk0dp2FgSTcP1la98RRvAl19+OdS5mS0dpOuzjNEwMjIy6k60ESycEXsh80jZmf03v/mNtjG0NfS0S9jPXu3cH8Ci7aMNjDZg0YM1bdq0IY98GMAygDXiAcvj8WgN5N/gZp0wYUKkgLU7EmPBsRCcw3XJJZeEchMikcAVn9NIiRdLmpPy37r33nt18jurfHgjJWQxP8uEEI2MjPoKAdJTZe+v9+KLL+qCGtob8VyJN11sl3jVIwUsXg5p+2gDZTZrBNodCWBNmTJlwN4nnhkmRGgAywBWDMSbDCErmoBF+f1+XHTRRV2qayIBLHvOllTu2GcY8s98//vfx1//+tdQrywaTNOM1MjIqDfJAHdCFmHr+eefxw9/+MOQbZHkdZmbKhc++8UvUsC68MILkZCQEMkMwn4B1syZMwd8qR4MmbPdAJYBrB40Z86cqAOWx+PB+eefH4KjSHMYBKho8Oi1EsMm3ZLlNvmNb3wDTzzxhDaUHGNhQoRGRkZ9hQgJWfRecewNbYjkedK2iL2hxGsuqQtix/qyX/J43nnnwev1Rh2w5s+fH5XiKANYBrAMYMVos6Snp0cdsJh7cM4554Q8UpEAlrjn5SYot0q7h4sAxkdW7Xzta1/Do48+Guq6bA4RIyOj3jxYTClgZ/avfvWrIaASm2KX2B1pxxCpB0ue0/b1I/8qYsBi1fdAw4PRTnA3gGUAa8QCFkN8A3UZ5+TkRB2weHP7+Mc/3qV0ORLAkjCgtGuQvysN/+w9aPhn77zzTp38TsNpDhEjI6OeRBvBKRF33HFHl/5WkucpoUGxPfYqwkhzsOQiSNvXD+9VxIBVWFg44PNi0qRJBrAMYBnAikTcLAPdMPn5+VEHLOpjH/tYvwBLBqbaG5Hab5NiDCXPQb52991346c//ak5RIyMjHrUz372Mz1TUHpWib2hHfnCF74QqlwWT7rYIvtInEgBi7avP7YyUsBatGjRgAHLeLAMYBnA6keIcKCAtXLlShXhR8SA5Xa7sWrVqlA1YCQGaqD6+c9/jnXr1nXpiyX9spjcKvPG+Ln0wJHhrvJ1IyOj+JTsUdm/MgxePmeqgPTGk3mC/DptAi9gg21/5CJJT9hxxx3XJUQYgTdrdyQG+MQTT4y7JqMGsAxgjWjAGuiNZM2aNZEC1jWRAhbLk5cvX94lzDfYBo63ze9973t46qmnQvAk4y9kcLSIrR34NTt0mUPMyCh+JZcl2b+UfT/LHpcqQT5nZ/bvfve7EYX4oiXaPNq+frRoQNC29vpBW/2xj33MAJYBLKPhBFjnnntu1AGLWrRoURe3+WAbtuuuu04b0m9+85s6kZVVQ+KhotGVLs5irO0dnQ1gGRnFP2AJQIXvWfFCS38r5lv98Y9/xD333KNDfmxYHCvAoq0rLS3tbw5Wn4DlcrnUlVdeaQDLAJbRcAKsq6++elAAKy8vL5SwHgvAkmHSzLFg8vtvf/tbvP766xqyxPgKUPE13nLt4UIjI6PhMZBZxt4IcEkSuzQfZuELbYB0ZWeOVSxChHxkwnxOTk4IsCIErWsiMcCf/exnDWAZwDIaToB1++23Rw2w7MZkwYIF2tjEIv/K7p6XwdFf/OIX8etf/zrU+V08WRJaoIGW8KDxYBkZxb8HK9ybJaFCacPwt7/9Db/61a90paAks0uz41jYHhm1k5qaGrKFEYYKIwKs66+/3gCWASyjWAEWWzQMdK7Udddd1x/AOtRX/yt5PmPGDO2aj7RR30AlfbMk54twR+PK5PfnnntOw5TMLhQDLXBlAMvIaHgAlj2h3b6f//KXv+hKQdoCwhX3vsxClaahsQAspiocc8wx3drEXuYQRgRYF1xwwYABazA6wZuz3QCWAawedOmllyq32x11wJo4cSI+/elPh/pYxcJFL5Al1Ys0rAwPfPvb39bVRAwZysBXCQ2KZ8scYkZG8R0elEeK4UDuZeZasrDlW9/6lgYq8VzZZwnG4oIngEWbR9sXbcBKTExUy5YtM4BlAMtoOAEWK1PoNo6wF1bEgDVmzBhcddVVMXPTh4/WsRs9e/K7PR+LcCXPzSFmZBS/krC+QBafcy9zT3/961/vEhKUPR9uDwYbsPhIm0fb10/A6vOGO2HCBJWammoAywCW0XACrIyMjFAvre5Kg22v99ls1G5MOOyUIyOkQ3Ks8rB6CyGy0SCT35kIy9svDbQ8p+GW/Cx6uHhDlnYOfG4OOSOjwROBSfYb95+Mv7LvSXqguWc5f5SP3Mtf+tKXujQHHSqJp542j7bP3hMwkiajTqezS8Wg/XPa4LS0tLgZr2YAywDWUQNYA90w/Pvz5s0Lh6kj6uZuT3LnwOczzjgjZkmmkZRP85HJ78zLev7559HQ0KDh6uWXX+5SmSRGna8ZuDIyio1kv9n3IPckX3vllVf0Xq2rq9P5Vmweyr0cq0bGkYi2jjaPts/eEzASwLLb3nBbTNgqLi6O+vlhAMsAlgGsPgArGi7fkpKS0MbmZu4BtHoFrHBDQthiR2MZaxMPHiyZO0ZDyIRYQpaAFW/HNPLivbInvpsQopFR7JLYBaxkIoOE9bkv//rXv+InP/lJKMcyHsBKLnB8T7R5fdnGnsbkhNtd2mLxZJ166qkGsAxgGcUSsKLl8j355JN7vD1F2qrB7goXg1JSUhI3BlDc+PaBrszLevLJJ1FfXx9q4SCQJTkelKkyNDKKTYhQ9lu4J4t78rHHHtN7lmkHolj12YtUxcXFIRsoHv0+woTX9Oa5ks+vuuqqIU8nMYBlAOuoA6xoDO+87LLLBtwLy25EJBcrPT095DEaasMnJdtijJkUy/fGCsNHHnkkFAqkgac3i4ZdemWZA9DIKDZJ7BQvO8yNlAsPX/vDH/6g4Yp7lt5osSncz/FgX/geaFPY/0/s4ZEAlj33yv5x8803D/icGIxBzwawDGCNaMBigvpAN84tt9wSSZJ7r60a7Anu8nz69Om4+uqr48IAMjwYXlkkJdzM5aABZ54Hczx4g6aBl7CEGQZtZDS4kk7s4snic3qWmR/50EMP6c7stCOEK0r2b7x4r3iBo62bOnXqYYDVS4jwsBYN9rCg2GCv16vOO++8IT8nDGAZwDoqPVgD3TgXXnih8vl8unol/DYVBlg9tmqwGxExLCxXvuSSS2Iy7Lkv2cu47Umx0oiQo3buu+8+DVnSvFA6RZs+WUZGg9/nSvYb9x6rCLkX//d//1fvTfvAZgErsSvxUEVIu3LxxRdj1KhRh4UII2nRYLezdjvM0N748eNVVlbWgGw8w4ODUUFoAMsA1ogHrIHG1pcsWaKSk5P1Tcl+k+JG7wawdvdUQRhuUKRVQzzcMmkA+T7k9itwZX9O8PrRj36kR25I6wZ6r0wloZHR4IqXGu41ybdiAQr3olyG7Jc0ybuScGE8XOD4HmjrvF5vrzaxJ8CyN3u2A5bf71czZswYcDET4WowemAZwDKANaIBi5smGq7fOXPmdHFN2zd8pL2w7GFCKVW2VxKGg5a4+e2306ESO77TYPO9fPe739XdoaV0PHxYtDQotSfomkPSyKj3JHb7cxlXJblX9osM9x73oFT90oMVDykGAlICdHabxhDhsccee5hH3w5ckVQQhk/V4KWXVd7x2P/KAJYBrBEPWOL+Hei/sWjRoi45Vz0AVq+J7nbAEgPDqhq7MYqnih+7OKRV5pcRCL/xjW/g0Ucf1SELhiteffXVUG8sPspt28wyNDKKrA2DQJXsHdlL3FviweKe497jHiRY2cffDDVg2W2XPQdMgKugoOCwoh97T6weAKuLjbV7r+TzM8880wCWASyjoQKsaGyeiy66qAtYhedj9RewRHPmzNHwYjdMdkNlvxEOdZ8seW+8NVN33303fv/734cgS6qb5HAwYGVk1H/QErDiXuKe4t7i8wcffFB3ZidQ2fOq4uFSJjAVLrFhHGzPAfdysRSwirSCMNzW2i+7n/3sZ+O2RYMBLANYBrAiEMuAJamyu5tUJJWE4fkG/Hz06NH41Kc+1SNIxQtg0XtlLwGn8aSh//KXv6wTbQWsJCFXIEuqnszhaWTUs6TticCVFI4IaP3qV7/SFxpexmRgu1QMyuDmoW4k2hNc0dt2xRVXIDk5+TDPVR+zCA+rIOwOsC655JIhz9M1gGUAy4QIB6Czzz5bQ5WAVTcJ7hENfbZXE/I5Dc7ZZ58davAZDzDVkweL71GaF4YPi/7hD38YGq/DWzjDGnyUGWnmEDUy6lncI1KdK3uHe4l7intLWqbYk9olXB8vswa7uxjKe2aCO+1dOFj1kuR+2JBnu82VR16eCwsLDWAZwDIaKsCKRquGuXPnqsmTJ4cS3XtpehdRortU0FArVqzo0WMVL3lZksQqBjM8kZVf/8EPfoCnn35aHw6sMrQnvptD1Mio90aiktDOvcM9xL3EPWUvcrFDi1QLxhtgdfceV65c2SNY9dAH6zDAsnut5NE+JzYeWzQYwDKAdVR4sKJRSZifn6/Cp7r3MDrnmp48V2JgxFXO16Wjuz0pNLwaZ6gNKI2lPUQon/M933HHHaHPv/rVr+Lxxx8PJe1K3x5ziBoZ9Z57JXuF4h7iXuKe4t7iHpOqQX4uIUL5PF5Hbsl7lg7u3bVn6AGwdocDVni+K23x6tWro5JCMlgtGgxgGcA6KnKwouEC5mYO78fSgyfrmp48V+FJnvyc3Y2ZBMqcJhqk8BtgPBhNGkmGJGTkhZSH8zVJ0hdvFvOymJDLqifexk0OlpFR3zlY3CvcM9w73EN27/X111+v9x73HPce9yD3XniT0XjIwbJfDvleadsmTZrUpYIwQsBSvQEWoYjFR/FcQWgAywDWiAcsqRQZ6L9x2223dVc12K9E9/AkdxoXinlYNKBimPjIWysNazz0uYnk1sr3T2PP98zxOr/5zW/w0ksv6bAHE3UlJ0tCh9LzJx76ZLFSyz7vTd6TjAGS3l7So8iu8L9nFH1Jg015Lr8HJoPL78H+uxKvqYyViYcQoL0/nFQLys/D5y+++CLuv/9+ve/l0iIzQuN9/0sumOSFCXTRDqxdu7avju0RVRCGhwp5wb388ssNYBnAMhpqwIqGB+vcc89VSUlJIS+WvB7e/K6vPKxwVzkBa/Xq1SFQES+WeIfioUooEg8XDarcqmXI7C9+8YtQ53dp42AvRedr8QBYMkS3O+Dr6YC2H+Th0GUUXdlbfwisSMWqfT3Zm90KgMVLo1t7da3MF+RrnO/JZPZ77703BFRs7MvnEmIbDhcseyK+eLNoC+wNRo8UsAhT4Y2ex44dq/Ly8qIyr9YAlgEsA1gD3EQD9WIxj2vWrFmhjW6vKDwSwLKDVmZmpnb701DJeAu70RoON1jJyZKwxTXXXKMPiZ/85Cd47rnnQv2y5LChR4KKhxCiwJ54GaRMXrwm4jGxe7N4UIoXwmhwZf9dCPTK70PWlHiDpOWBwFi8wBXfP9+3rHcJnz/77LO6UpB75brrrgtdVOyhwHjf//ZQodgtKY7JyMjoL1x1m+AeDljZ2dlR8V5NmzbNAJYBLANY8TAtfcWKFd3OxOohTBixUZk4cSKuvPLKUJiNwCKerHht3WCXhDGlCan0zhJjy+7TTNzlwceDRjwL9gMnHqq4JPwksMX3yjDna6+9ph///ve/61DOyy+/rD83io34/87/c/7fy/+/PKcniI/iGbJ7reKlitXuuZKLBtcW98Q999yj94x4rfkocGXfW/EOVmKzxIPFx6uuugoTJkwYMGB193HBBRdEJXVkMFs0GMAygHXUhAijsZGuv/76Lk3vesnHiigPS+Tz+fDxj388lNguxoqQMhxurlJdKGENSpLipSEiE3d/97vf6Z4/vL1LE8V4qjKUnB17XhUPwVWrVmHp0qVYtGgRFi9ejLKyMv0oWrJkidEgiv/v9v9zec6vcZ7nE0880cXbJeAeLx4swhTXOvPECFd8fOihh/SeYBqA7B+5YEl4TTxZw8EGCFjJxYqPH/vYx+D3+/sLWLt7Aix7esa11147qGeGASwDWAawYpzofumll3bbqqG//bC6CxPy0JCGnhIWlK7pw+EGK+/T3v9GbrJ8nTdyJr0+8MADeOWVV/RBI4Ns42UWnAzVtSdSM1k/ISGht6aIRkOoxMREDe7iEbUPIY8XcLfnitH7xjV11113hcLqss+lp5VcTuKlz1WkfbDsFdB87wTjHqoEI5pBaG/JYH8cM2ZMVPKvBrM9gwEsA1gGsI4gD+uYY47psXT4SAGLmj17Nq699toQnEh4cDgAlty0eRuXUIf9cLD/LLyZM6H3hRde6FL9FQ+J7uLBkp5E9Dzcd999eqSRvbWGvdScLTikGtRocGQv55f/fyn5Hzt2rK6+kxwtyXeKlwpCezUqk9l//vOf6yR2+2XEPu9TKvGkHcpw8GJL7qjki/FzVhNPnz79SC4m1/QVHiwuLo5aE2oDWAawDGBFqR9WNCBr8eLFepP7fL6+2jb0Kw8rJSVFzyUUMLGXOw8HD1Z4J3oJdchtVl4TCGNi7zPPPIPa2tq48DAIWPGR4Ry+zvdGj1tSUpLxYMWh+DvhvuHviGFngRkClrR2iAfA4nv785//rDuzcx9wD9j3Rvj8PrsHeLiEB/kz8fIkoMj8K3p+o9WiwT5FIxr5V4Srwa4gNIBlAOuoAqxo5GHdcsstXXIBevlw9ycPi7dxhgkZRounQc/RzNOSHA3x0H3ve9/DI488EprDJhVgckjGygthz9WxtwHg96Z3ZMyYMd02jDWKrez/7wK89GARsASmwltnxCIPS+Cc74FrV7yh4gXlGudaF3AaTuG/SEdpSRNU/ox8zhFgR/A77jPBPTk5Wd1www1RiWgYD5YBLANYcRYmvPjii3U/LIGrXqoJ+xUmJGCxpDkcREaCAZabuiS/8jlvvHz9a1/7mu5ezbws9gSimAjPHK1YJcAbwDKAFY08Pq5Zrl1Zx1zTXNtc4+LlsSeC23MUh7PkZ5L2DAxvZmdnH8nvuNsEd3veK2fClpaWxs15YADLAJYBrCh27eW/wSGj4sXqYehzv8OEPDx4WFx00UVdOqOPFA+WwKLMMpQmihS9dgJZ0h9Ieh3FArIMYBnAikaRhHiyuIYFrri2ZZ1LGwPJqxopFyg7KNJ2XXzxxUfSnqHXCkK50BYVFQ0buDKAZQDrqAKsaDQcpdauXRvJyJx+t2vgocHJ85LoOlyS3I8EsqQMXUIMrKpiU1IeTFLBJ2EXA1hG8QxYEs6WJrRcw1zLXNNySZIpByMNruRnkb3MR7bOkEKEfuYu9pjgLhfZa665JiqX5FiEBw1gGcA6qgCLXXuj2Q8rMTGxL8CKeGyOPJ8/f34XozUSvFhya5dqo/CxGnzkUFj+2aeffjoUHpS2CQawjOI9B4trVcKEXMNcy1zT9jUunluZ1iDe3JGQg8XKSP6cfJ6ent7XMOcjqiAkGJ1zzjnDJsHdAJYBrKMuRBgNDxZ7sIwePVr5/f6oAhYfR40ahcsuuyzUfHAk5WHJYSIVhiJ7PspTTz3VpWlkLDq9G8AygDXQBrX24eVcw/a8Q/talwuTfT+MFA8WfzaGB8eNG9ft5TGCBPduAUvyXJmaEY00D54BJkRoAMsAVpzmYVGrV69WEX5c098DhANSpSP6SLnhymETfrDIrZ4G+o477sC6deu6zPyLRZ8sA1gGsAba58o+r5JrmGtZoCN8vdvD/yPFQy3FOayElp5x0a4gPPfcc4dF93YDWAawjlrAitZwz9tuuy2SVg0Rt2vg4S2HBqsJabjYrG84DXvtrRGhAGM4dIXPXeTtnweVzJSLxQFpAMsA1kDXj32GJddw+MD2cJiS/TASWrHIoGr+LHPnzu1i06KR4M4Pr9cblfYM0RqbZgDLAJYBrB42WDQSHLOyskLNRnuaTxisNOwzTMjDQowRH71er55NaPf42Pti2cOGI8FAS/iEIVEBrFgfkAawDGANtJJQnnMNy8VoJIT47U2Pw38e8UzzOWcP0nbZO+334/caAiza0PBeg1OnTo2K3ab9j1V40ACWAayjDrCiGSYsKysLGQB5jYZBcgYEuiIJE9rzsHiQc46XvVVDd92eR4oBN4BlZAAr/qt/7bbHfumTeYqlpaWh0VFHmuBus5ldAOu0004bNuNxDGAZwDqqAStaLmJ2dQ8PE9pvX7by4ojChHaDNHHiRB0itCfHdpcgOxJyOAxgGRnAiu8cSvsw53CvOb/OEKG991U/w4OhBHeGAu22k6I9/fSnPx2V5PZopYgYwDKAZQBrkG8x7Chsh7VeKmAiqiYMN0qnnHJKqL1Bd8niI6VPlgEsIwNY8Z9Hafeay4VP9i1tVfhkiiPJv7I3bpYUjJkzZ0YFjGirY9WewQCWAayjOkQYrTj88uX/396ZPktVXX24oxiR8TJeAgKXQQRERAUFAS8yyGBUBhkUEIMyXcYgQyqDxlhJVaZKmVSqkg9WohkdkjJWmWgqDhlN8iGDmnzIf8E/wHnrt+tdp9Y9nNN9uvt03x6ernqqp+vl2n32Ps9Ze+217k7mXIWbfn9iwqhYdDQZWu/r64uTSH1j2E7rVYhgAYLVXnLl5yE9njlz5qDvqNoE96uvvnpYsnK7pVoU0dy5mdXbESwEq6sFq8g8rLNnz8Zi5fsS+gT4SjWxkrViLI9B94888sigsLyvqUOSO4KFYCFYzRAsP06tSKqhOcp2QdsYqaWCu58/7cJUxZwRLAQL2kywisrDmj17dmnu3LlXJGX6aFY9NbEWL14cmqf6UgbJyQ7BQrAQLASrkYLly0yYWOk19VjUHFWDVMX5V1ddddVARtS/0MbOzSzPgGAhWF0vWEUNuM2bN8dClWwCnRCtqnoTXnvttdHIkSOjY8eORadPn44nN9u500nNYhEsQLBaW7BUTNSXbdAmnMOHD4c5SuUZaqjeHpYHr7nmmmFesOwiVQnvhw4dKmy+b3b+FYKFYHWtYBXJwYMHY5GySSJ5JVZN65wkq1evjiNVPhdLE14nFCIdasHSyVn/jlXktgryev35558P7YtqPHlAA/DfwdixY4MES4ZV6FPf44cffhi9//774XtsRi/LThcsNam2Su1WHNjeW7VqVb3f50BatF/LhT09PaX+/v62PjdwbkewulawiuxJtXDhwkFbjItonWNMnTo1euyxx8KkreVCm7ztihLBqv/kqH9HPeXspKznH3zwQTh56yTuNyDYCd4eQ+NJK8qrz1/RxRdeeCE0Wbb+lfrerPlyM+SqGyJYNtfYHKSxqjlJc1MdcjWo/6DPwdK8rA1EReXbFpVzi2AhWAhWFYJVVMmGEydODFoOLNNCp6Yo1rp168LkdurUqdDnzHIgyMEqZonQY33lFMHS8pOWQIgctSaKLkqwJMUWidS9tVrSPYJVzBKhxqfmHs1B+v/TnFTn9zeoPY4XLNtAVFRZHgQLwUKwhoAia2Lpd/mlQb9cmBCsqqNY6vF15MiROA/Llgr1GMEqJgdL/56iWP51CdaYMWNCXR9FT3wekO2cgsaizzz5udu9IlgvvvhiLFT6/kx2EKziWuXY0qDNN5qL5syZU/fyYFqJG8nQlClTCpubm129HcFCsBCsgncTCrVz8JOFvyJLWSa8XE3OiU4wFsXSzh1dVdo9glVMBEtREOXu2Os6Ob/88stBbrUUMmXKlOgTn/hENHny5PDYXoPGos/cPvfe3t74c9f93Llzo1dffTVe3jVBtlw6BKsYNNfYvf7f1q9fP6gtTo3Lg8PS8lX1+MCBA229exDBQrAQrILX5x977LHUUHe9y4RWFXnWrFmhJYUlt3fKTsJWECydmCVYluiuf1v3b7/9dvTaa68F0RKvvPJK9POf/zw81on9pZdeCq9B47DPXZ+1Pnt97vZ9vP7669G77747aLOCCZZJMoJV//jUnKPxqXvNQZqLaqjYnro86Hu3WuRfO7OLuoAequVBBAvBYhdhwSHkZcuWhfuMMg01RbEsyfe6666LNmzYEF9F0uy5uJOjxEqCZaJlJ2nL6dHPWJ6PPVZitT2GxmH5cD43zh4rod2OFZMqe9ysEg3dEMGyBHfNPZqDNBcVldyeLHGzbt26llyhQLAQLASrBopsAHru3LlB4e6ikt2vueaacD99+vTo+PHjcfSqE3YSDrVgWeRKJ27bfaZ7kyuLhJhMmXz5iAk0/jvy9cn02PKuJFl6bHjBMulCsOpv9qx7zT2ag4qKXiVvmi+PHDnSkhfPCBaChWAN8UBUOHratGnl8q+qjmJZEb/hw4eH+zVr1oTdPJIrJZ7aBGjVlpWXZf0LLXcCwQJAsLLyq6z9TbKBvOYTWxr83Oc+F/X39w+ai2qQrEHRq+Rt/vz5LdcODcFCsBCsFgolDwwMxOHuMhGsmko2aELTFeShQ4fiHT0SKSv+Z13u26lPIYIFCNbQN3O2CzS7SPM9UPX48ccfj66//vp6IleZ0SurIXjx4sWOiV4hWAgWgtWAq51FixaVent7SzlvuUo22NZ0WypcuXJlPIn7/oTJjve+6jKCBYBgJbGaeopS2cVZcnxqHlmxYsWgOajo6FVfX19h6RpFtkJDsBAsBKuA7bxF9qratWtXpehV7iiWJbmbZInx48dHTzzxRLyb0CZHi2b55qwIFgCCVS6CZZErP3/YnKJxefDgwbgnp5eravsOZuVe6fbkk092THI7goVgIVgpye5Ftc7RNuOZM2dWE8W6XKlMQ/KK8c477xwUpbLK7j6Xoh0kC8ECBGvox18y3cCeS7SWLVuWuummiihWWblS9KrIC9xWWB5EsBAsBKuBYWVFsXLeykax0qpY6zW1cNm9e3cQE0tqt8nS51UgWAAIVqUoluVw2li0OWXXrl2DyjL4SHrOQqO2NJgpWIcPHy50NaIVEtwRLAQLwWrglc+OHTtKEydOLCSKlRXVmj9/fmhboYlRE6KF9i1JFcECQLDytMPxFds/+9nPhjlFc4vmmCpkquro1Q033FBaunRpoYLVKucTzu0IFoLVwNDyvffeW0gUS1x77bWDeuDZ423btkXHjh2Lrzj9LqB2qJOFYAGCNbR1rmzHoJV+kWBpTtHckhaxsrmoXrnSTR0wWnXDEoKFYCFYLSxZa9asKY0aNWpQXaxrr7023I8ePbquKJahvmxKeLcJXTWyfKgfwQJAsCrtItScobnD/maVZdDcUkTFdl982Uoy6DZ9+vRCCz23SnI7goVgIVhNGqSWi+Xb5vhJpp66WJZwumTJkriFzpkzZ8IVKJXcARCsvONPc4bmDmuJc+utt8bJ7EUsDaZdZKpmYCvP3QgWgoVgNaBkQ5FhZvXWGjduXPi9yf5b9eZiecl66KGHwhWoJkkL8yNYAAhWpSVC/b1aItTc8YUvfCHauXNnNcuAZeUqq1yNcq8WLFhQqFy1Uv4VgoVgIVhllgmLHKwHDhyIJxbJW4VcrIFqJjPLi1CHe+VNqKXFqVOnwj2CBYBgVRp/uhg7efJknHs1e/bsK3YMVilXA2n9WHVhadEr9W0t8qK4VUozIFgIFoLV5JINqu4+adKkeLKxnASfm1DrUqES3m0iVLVlS3C3PCwECwDBKjf+fKK7VWz3m2lqyLsaliZY9nju3LmFzq/6Xa2U3I5gIVgIVpN3o6hSsb/5JcN6lwpNsFQbS+H9Z599Njp9+nRb9CNEsADBGtoSDZorNGeo5pXmkDqiV5n1rnwO1pkzZzp25yCChWAhWEMkbMo5MLGqIFg1NYLW/bx586LDhw+zixAAwcq9i1BzhuaOGvsMVizJYNH6VatWdXRiO4KFYCFYQ1QX6/z583FuV4Vk95oT3hXWX7p0KUnuAAhWrvGnsXf77bdfsSRYRXHRS1mNnP0cp5I1p0+fbuk5GsFCsBCsNi3ZIFasWBHnIyhs7nMUJF82IV111VW5E94VzvdXnWPGjInWr18fPf3003HTViW9a5eQnuuxlXVAsAA6V7A0rjTWNeY19jUH6LHlXj3zzDPR2rVro1GjRsVSJSRbeXKwrr766pB3pbksWX7G5jJ7fdOmTYXPz622cxDBQrAQrCp2pxQtWfv37w8J7yZZCp1rAvI5CjY5fexjH6u4VOhzJVSuwSbFuXPnRnv37g2lGwYGBuIt2JpUrVaWtcZAsAA6U7B8fTyNfc0Benz8+PEwN+zbty+aM2dOLFe+9lWOpcIgV/9/MXhFvpWP1Pf29obOFt0SvUKwECwEKwdFdnk3Hn744UETkCYkv6Mwsbuw7FKhD+N7wVIdm5tuuilMsEKlGzS5KvFdSa1PPfUUggXQBYKlcW+bXvRYc4GiWXpv4cKF0fDhw1OlKkcEK+RdWekFi8Kn1b4qemlQOa2tnH+FYCFYCFbOgVz0LpW77rqrNG/evNTEK0WzEgnwFaNYWRPhddddF8L/mlg16WtilchYc1e7R7AAOlOwrOm77jXGNAdY31LNDboQS8u9yrGLME5qtwtCRap8zpWlQGhzT9Ey1OpyhWAhWAjWEG4DVtkG3duE5JcIbcJyV4JlJctHsSyHwp739PSEKu/Ku9BVrCZdPT5x4kRL7DJEsADBaqxgaazbphfNARr/Kucybty4+AItGbmqsDwY9xn0F4M+cjV8+PAwpymx/Yknnih8abBVSzMgWAgWgtUiktXf359a4T1jd2HqUmFyIvQ5FHYVOn369NC81aq76wSgJQJ2EQJ0/i5CLQXaxZTmAM0FmhOSOZw5JWtQMVEfvUqrebV169aW392NYCFYCFaH9Si0RtDqKG9XfzZJZdTIGpYmWbbjJy3p3T9WQ+ijR4+GSVZLhq1SIwvBAgSrsePLqrTrueYAzQXJLhBpF2sZy4Sp9a7sAlHCZZEs9RtUOkTRF7qtvHMQwUKwEKwWSnhX+NySRJM7CZPbnrOWChW18pOjHtsyocmXnt9zzz1x2QZNuK1yAkCwAMFq3Piyps4a+5oDbG5IphbkyMG6Qq7sYtAuDu1eS4RF9htst+gVgoVgIVgt0lR0yZIlQaYyehPWXYBUiayW9K58LGuPIamxK1tNxL6PodXOQrAAWlewNG7sosmi0nYBpb/D6mDpb9m2bVvcCufjH/94rX0Gr7iZZPkLxC1btjQkTaNdolcIFoKFYLXIFdSOHTtKI0aMuCJqlRLBylwqLIeuSC3CNXny5JDgqu3ampg18ere5ErPNTHbrkMEC6B1BevkyZMhgd0uhiwybTmWuldJlh07dkTjx4+/Ik+z1ibO5XqqTpkypbRmzZq2yINFsBAsBKvDi4/aUqHuFVpPSxattVehiZUmVVsGmDVrVnTw4MEwMVs9HD3WiUGRLU3QzSpEimABglVfArvJlQqIWtTKujbosZLaZ8yYEedVWfSqCtEq22fQ3zR/XbhwoeujVwgWgoVgtVgNFjVCTSk0WpdkaUK1PCw9NsmaP39+qPCelB3L1bDdhggWQOsKli3pS7QsIm3RaKGk9gULFqQmsueodZVbriyStW7duraacxEsBAvB6hLJ2rlzZ2nChAnhKjCtGnKt+VjKvUqWcdD9bbfdFh07dizuTWb1ctRCQxO25WchWACtKVj6N6z1ldCSoVVs1wWUdgxaxMoLleVl1pp3lRQrzVfXX3996b777mvIikG7Ra8QLAQLwWqxCu/i4sWLpSpuufKxsq5UNfGuWLEiLAt+8YtfjHOxrE5Ws04QCBYgWLWh8aqxqn/THmssK39y+fLlIWKV1ukhRxuczLwrf/PR9lOnTjVk53Y7Rq8QLAQLwWrRLcMKs/vCo/UsFfrdQmmFA7WrqL+/P0iW5V1Z9KoZrXQQLECw6ttFqHGqKJblUuqxxvSIESMGlWCQVPnIle9BWE/elTboaKMOS4MIFoKFYBU6+KdOnVr4773zzjtDAdKcuVgVJcvnYaW12Bk1alS0YcOGQQUJtUzYjGrvCBYgWLWjMSqpUh6WCdemTZui0aNHD4pWlWunVY9cab6aPXt2Q2oEtrNcIVgIFoLVwlGs3bt3B8FKk6wM8RrIu7MwjQkTJoSJ2S8RWm6WJcyaDPnnCBYgWI0TrErjzyJWVtNu8+bNYSwni4dWwaVk3lVW6RgVSB45cmRDEtsbtVsbwUKwEKw2o1EJmGoIbVufk5NbSr/CYbUUIfVLh2r+qhpZ1hjWXx3rsSZ1e8+umBEsQLAaG8GysaaxpzFohUVtSd9ES0WErYGzL8tST70ru5jTHKeyMbb5xuYia1pP9ArBQrAQrIZNBo0qgrd58+bMgn4pOw1rKkLqn6sQqSo+K3qlydzysaxKtE3utkUcwQIEq3GCZWPMl0+xaJWNTcnV1q1bw9jNs7mlmqR2EywfNbeiyIqyt9t8imAhWAgWS4Uxapja19c3SKiSfb+KiGSplIMlxPf29ka7d+8eVAfLamQJq7VTRMNoBAsQrPJJ7Fad3Y8///6uXbtiudIY9mVZ6q3UnlWWQe29GhG574SlQQQLwUKw2iisffDgwVJPT0/IdzCxqlAna1g1+Vh+QjbJmjRpUmivYS11tO1bV9OKbNl2cJYIARq/RGjlUyyqrLGo1zQ2NUY1VpM7hquUrMykdt9NwgRo4sSJpf7+/ra6UEWwECwEi6XCTNSZ3i8TZkSvapKsrK3bU6dODXkdSqJVbR1rwWFLF0W00kGwAMEq3wrHlgktmV1jUY81NjVG08ZuzkKiFXcM2oWcLRFqfjt69GjD5s9OiV4hWAgWgtVmV2D3339/ady4cXl6FVYtWcrX8L3JfHPoBx54IF4OVLV3awhdRBQLwQIEq3z0Sr/POi3YsqDGpC0L+nGrx1XkXuUux6Db2LFjQzS9kcWbO+lcwLkdwUKw2iiHQL9bNbKqaKWTq3yD6uT4OlnJmlnKyVIJB03uzzzzTNyegxwsgMbnYGms6Xdp7Ok1jUWNST9Wk+M3R6X2S5Xa4FgESxdyimDde++9DZs3G1FHC8FCsKDDBKuRZRss6f3GG28clHBqW6gtlG/hfNWpqbdGll0Na/v3li1b4u3iluju+xXqZGDSZQm5CBYgWNn4n7WNI7q3XYM2Piz3UXWuxo4dm9mZodpaV5Zq4HcJKpJkz61EzB133NGweU2/t9OiVwgWgoVgtWGvQqGGqrZUaGLla2TVGsmqFOWaOHFitHbt2nBFbcnvOhFYBXjli+i5ThpWLwvBAgSr/PFv7W40niznyi5U1MLqqaeeCu+tWbMmFBHVRU+NRUQzI1dpOZ12gaZdzHfddVdbXpAiWAgWgtWBg0uThsLejZKs48ePh3wv3Wx3oYmW3k/ZaVhzIVLlddiSg1pwaKI/fvx4XEXaCpDadnJLgvfRLQQLEKzy/QStebPJlV3IHD58OFq5cmXU09NTa42rsuUYTHC8ZNmcMm3atIblXenf7aRdgwgWgoVgdVDS+8WLF0PRPy9SXqxSkuBrlizfv0xbwJcvXx4dO3YsXrqwFh46OVjNHiJYgGCVP/5t7FiLKo0DW17X44GBgeiOO+6ISzBoWbBIucqqc6WbouSf/vSn23LXNYKFYEEXCFajJxBFsixyZRWWbZLM2GVYlWT52jqa3C2SNWbMmOjmm2+OTp48GZYxbHnQrsDzVnlHsKCbBcsXDvU5jRpP2jV44403xr0F/cVOjiT2XHKVbH3jo+Hnz59v21xVBAvBgi4QrGbUd9m/f/8VuwotObVM+YbckpWczH00a/78+dH27dvjIqR2srBkXQQLEKzyrXCscK9kS0uCGkeqcTVv3ry8OwLrjlwp38pyrnTfSLnq1KR2BAvBQrCGMB+rkVGyDRs2hH/H8ihy1sjKJVnKwfKRrOSkP2vWrCBZimTppGInCwQLEKx8uwhtzGgMaSz19fVd0Ss0Wasuh3hVvSyoSNa+ffsaOld1UjFRBAvBQrA6fFehsXr16jBJqq1OVoPoaiXL53vosX/u80G0dVxbyK0IabJnGoIFCFZ6IVEtB1rulWpcWRkGq8aeHHdFRq6sxpVdkB04cKChF5rTp0/v+KVBBAvBQrA6rJWO0OSlHmFZW7A1kSZbXzjJqrmEg03+inLdeuutIfndtpb7E42WQ/xuKatQjWBBpwqWXyr3x78ltltPQY2ZJUuWxBGqOsow+FIMw7JKMPjXbC5Q+ZdGb/jplugVgoVgIVgdVoTUCpEuX778ioKBruhonJ/l8rQKkSyhHYbKHdm9e3fomWaNau1q3SJcOvH4QooIFnSiYFldK7uYsIsOKyb69NNPR7t27YpuuOGGMHZ8fmMRcmVRbLuws8cmVva+UgzafcMPgoVgQZcLlrWFaORkc/vtt4eWOsmdQpUKC9YjWcoH8ScG5ZBY5fe02lhEsKDbIli69xEs3WtZ3fKtcuZVVV1E1Fdpt7nA5grdNm7cWJo9e3ZDLyo7ud4VgoVgIVgtlo/V6AlHgnXbbbfFTVqTBQSzxKtayUpr12GypfdWr14dCiWqj5pONkri1YlGhUktTwvBgk4VLOtsoOenTp0Kj7/0pS+FMaGxoTGSVXahylY4FSu0jxo1Kn48evTocH/33XeHqHejlwa7LXqFYCFYCFaHNoU2Fi1aFFpcJJcGLaE1I4plS4aXqoleZTWPVk6JSjns2bMnnFy0BV3LJhItXc0jWNDpESwd60LHvt575JFHwpgwgUpGf2uIZF3KSma3+lY25n2qwPr16xt+oac5rluS2hEsBAvB6qIipBbJ8pKVvIKtsMPwUjVV35MnBe2C8s2itRyiK3pFr3zdLAQLOlWwPv/5z8fFd5V/pWVzKxwqqbKdgjWK1eVycuXHejJavXbt2rApphkbe7p1fufcjmAhWB2e9C5mzJgRlgKSywRF1MpK1ulJLmvohOF3Rt1yyy2h/Yd2TqlSNYIFnSxYWhaUZB05ciR0PrAlQV9Xzi8J+vFToTRDrjIMPv9KoqUxr5yrZohPt0auECwEC8FqsfINjZ6MtFyonUKWe6XlwRx1smrqX1iu+rRenzZtWvTJT36SOljQ8YKlSO19990XTZkyJVOc0nKwKkSycsmVpQH4C6ktW7aUpk6d2vbpDwgWggUIVks1PtVOIdW60QRoV7ZesnyNrER0q+YyDskIlz0eP358dNNNN4Urey0b6ir/V7/6VfThhx8GsfrXv/4VTlj/+Mc/wvO///3vg8TLnnOCh0ai40/HmrDXdPzp2Pvggw/C+3Yc/vvf/47eeOONuOG5alstWLAg6unpySzcW28ZhrTCob5Cux/TO3fubLj4dFOldgQLwUKw2kyymvHvPPTQQ3ECrJ5rUta9T4D1SwtFFyQ1Ro0aFU2fPj164IEHwknp9ddfD2KlE5hOVjqp/fnPf44jWX/729/Ca//85z/D+zq5IQHQ6OiUjjXh5UrH4R//+Mfo/fffDxcFel/Hpy4SFMHasWNHNHXq1GjkyJFXLANadKqGelepcpWUKj9+dS8+9alPddQchmAhWIBg1VQvphnJ7ydOnBg0Odu9/gYTLduBVG/ye1arHS9ay5cvj5577rk4WqCTmERKJy9FCvT8r3/9a3jPogZ6jgRAI5FA2bGo53b8mXT95z//if7yl7+En9P73//+90M3AxUNTTv+vWAVkcxuO4FHjBhxRYN3a6p87ty5ppWe6fa8KwQLwUKw2qAxdDMmqgsXLgSx8onvaTVzisrLsqt2S+bVCWf48OHxzyg36+TJkyEKIKnSCesPf/hDEClFtj766KNwolOkwC8jAjQKi6SaaOm4tNdMrP773/9Gb731VvT4449Hvb294ViWYOn41nFvFxY2BmrYKVg238ouiPxOQQmXokmnTp3qqDkLwUKwAMEqJJLVjHD7yZMnQ9Krvxq2pcOcye+XKuVg2c6prMRebVW3XVXacaiebGqz8+677wahsjwYndAkV3pN+LwYgEbgI6aSKS1Z6zXJvWRLz7W8vWjRokHHsd8NmBQqHfsSrhxLhJfyJrPbkqBFnfv6+kqHDh1qypIgkSsEC8FCsIhkZbBv376QAO8lS5GtlDysmpYM0woppp18RowYEZ+gJk2aFHZf/fCHP4zee++9sBRj0SuTrj/96U9IADQURVB1rFluoO51LL7zzjvR888/H23cuHHQDkEfkS130VFBrnLVt0oWE7XbLbfc0vDGzc3qSIFgIViAYLX9dmcVI122bNmgq+EcdbKqWjK0E4uVcbDn5U42ShTev39/9LOf/SyOWEmyLPkYCYBGYsvQdszpsY7FvXv3RpMnT85sZ2P13yxSVUXUKncJBr8saBdGK1asKC1YsAC5QrAQLECwWqkDvSJm27dvD2JXhVyVXTJMLpVUOsFkFWGcM2dOaLHz61//Opz0FMWiThY0Y4lQYqUolmpcqeWNjsXk8anoa1Z5kqylwpQNH5eqkavkJpVHH320aXMSOVcIFoKFYHWMZDVzMjtz5kycOOtFyy9FlMnRqnmXYaWG0jppqRq2Wu385je/CSc9RRasXIPPl5F82WM7QVruFvWzugcdBybiOgZ83SrbHeh3rgoTeOX86fGbb74ZSi8oz8qOSetOUBC5lgQVpfLL9jYGVaH94sWLTYuqK2cTuUKwECwEi2rvNXL8+PHSzJkz4+3eVUa06q6ZlRYB8ye31atXB9FSjoxPOrYdXkK5MhIww2oY2YnWtt5DZxcK9aKtY8AfE5ZbpWNBx4s913sSLPURXLly5aDk9RrKLNSdyJ68oLHxqNzJw4cPNzVtoZlRdQQLwQIEq2lLeM2c3DZt2lRasmRJ2PKdtmupwk7DYUVEs/xSi05yXri0LLNs2bJQBV5RBp0QVdLBTqqWN6OTp06cVhXeyxYS0vmCZZX/LaopCbdIpkm27RDUz2j3qnplLl68eNDSn449v3xdQ6HQrKhVWbny9a38Tl/lW61bt465EcFCsADBasd6M/r3du3aFcuUJvtmR7OSBUqToqWdWyruqIjW7373u1Cc1Kpt28nVIhY6mdpSIQLSHZXY/fdt0U1bOpSQ62dUY+3tt98OS4EqE+ILhSpi6o83Kz3S6KhVMnplXRc0Bvfs2dP0SBLLgggWgoVg0VKnAZw9e7bU29sbT/SKYPnWOjkkq6ZolhUkTYtsqe6QCZftTJw3b1509OjR6OWXX45Fyy8T+eiWlheRkM5G7WysvZKV9/C5eIpsvvTSS6FvoI4dS0aXtNvOvxrKLNQdtbKbJMrflP+kHMlmLwkiVwgWgoVgdVXie7PzslRbR1vArVJ0Dbeqo1n+BCfZUmTBxCptl5ZOjFrWUZPdPXv2RD/5yU9CVMtOrloGEjqx/u9//0NCOhx9x/qu7Xu35WIdEz/96U+jffv2BbGyiutZyet2XPn3q5SsqncI+mVBLQkuX748LNs380JOQkfOFYKFYCFYXSlZzepd6Dlw4EBYqrDGsnWI1uVaG0X79iMSrrRIg96bOHFitGXLluhb3/pWWALSydUS4RXdQEK6I4JleVc6BnQs6JiYMGFCpixZVfbkcrQdV1Ukul+uVaysDY7G98DAwJB0kyByhWAhWAhW1+dlNXvZ8MiRI6Vp06aV6rj5aFamaCUjBl6k0k5ySdGynxk5cmTI0zp79mz0y1/+Mt6Wj4R0Ry2rX/ziF6GOmo4BS1zXsZHW0iZLniRbVUSwLtcTtbLbwoULSzt37hySCzfmVwQLwUKw4P/D+c2WLG0R15JFVmNoRbls15PP3Ur0T8slWrXiT5qWO6Pq8A899FD0jW98I/rtb38bN5P2Fbv13Jr7Wr5OMpfLN56210zaLIna1+hK+7lu2MVn5RGsHlXyM/Kv+5/3fSdtidcX/1RUyn9X9t3pO9PP6Lv92te+Fu3YsSO0sym4vEIusfI7bZPjQY/9c71veY09PT1NFyvkCsFCsBAsaKHkd/Hkk0+GXA0vT375UCcOv/NQJ5WUnYiF1c5KEyyrEG8RLt2PHTs2lHk4dOhQ9IMf/CD0NrQlRNvebw2mbTdaUgDseXKnovWv8zJhEuH/+24p9Jn8//etaEyc7PPz1dNVPsE/95+33jNpNQnTd6j+lfpOly5dGo0ZMyaONNkx0EDRSo1YJY/35IVGspfgnDlzQoS4G4oaI1iAYCFY9C6swNKlS0v9/f3hb7CTh0+Ez5CqrN2GA0VFs9IS4tNOsOPHjw/FS8+fPx96zVl+lk7oVsDUtvXrdT23SEnyJO/rbSWriXebYNnn4yNX/jOxCGByd5+V17DcKS9U+ty1Q9TETLtBtZnh3Llz4Tv0uVXlvvOszRI1Rq0G8uwO1Njw48AuRDQ+FL26//77Q2S4m+YOBAsQLASL/oU5o1lTpkyJa/fY35Ks66MTjb+Kb7Ro+ROt8m58I95kKYhJkyZF9957b8jX+vGPfxza8ljVb53wbWlK0S1bQjT5EhZxsdfTBCsZyen0WlQ+8ufrUJlQ6TX7/Ox1fbZWp0qfvaGfVU/KF154IXryySfDd6XvzOftCcvZ888bsByYW6z8OLBxajd1TTh48OCQ7khm7kSwECwEC3JOmkMlWirlsGPHjtLIkSMHXanrCt1HuKqon1XX0qEtDeU5wdrPWMkH5e4oKnLq1Knoe9/7XvTGG28EsbIojJakFFmxaJfvdWiRrWTOkZeObsnBSn4G9v/vPw+fZ6XPVJ+t/XcqsaBmy/oO9F2ofY2kSt+RXwau9B1LuPxScQFLgbkS2HXMK0qVPP4lNmp1o40qQzFHaGkfuUKwECwEC2qcQIcqp0L9DBcvXjyoIKl/XIdoXa4mYpVcHtJJ2KIawt5XJKtche7Ro0dHN910U/Twww9HX//618PONGswbZEtk4Zk30OfoO2Xzbql4bL9f/v+gMkE+OTnqJ9/9dVXQ6L67t27o4ULF4bvICuHStJk359FKm3nX9ru0iojWpdrEatkUrvdlMSuulaPPvrokLbeIt8KwUKwECyoI7diKCdRRbMkWhMnToyXRnSisSv6RpV3yIpO5WnWawKm6IhfWvL/nfJ3lLe1atWq6JFHHom+/OUvR6+88kr0+9//PpYFLWf5JUOLxnSbZNkGAPtcTEIVpfI9IvXZ6TPUZ6nPVJ9tT09PavFPq+Qv8n6n+rkalgnrKrdgOVY2HnTr6+srXbx4cUgjR0M9LyBYgGAhWB3VKHooliF8FfiNGzfGJ5wq+xnWLFrJMg1pNbbyRjOssGkySVonbu1InDFjRnTHHXdEe/fuDZLw4osvRu+9915Y6vI74bq12bL1gdTnoCW/d955J3xG+qz0memz02eoz9IiUb65cp4Cnxa5su8zKWd6vVK9qyLrWPlIrTZ9bNu2rbR69equKkyMYAGChWBRlLQJnDhxonTzzTenNrT1pR2SifFpzW8TolV4iYdqliG9oOm5Wvoo+qLGwRs3bowGBgZC3S21Z3nrrbdC9MbX17IWLnlzuCxC5ncuJpPmk6UNPH7ZMpl0b+9bmQn7+3wpBSuxkMyhsiU++9t0r/9XbRTQTj99BsePHw+fyeLFi4NMKVLoP7ukyDaZS+54GpZ27NlOQBMnv9RtDZmT9eBWrFhReuyxx4Zs3EmsWBJEsBAsBAs6fMeQJvsLFy6E/DDLy8rKx9LJKW0XYpF5WkUJlpcCW2ZM9kmcPHlytGjRomj9+vXRzp07o2effTZ67rnnQmkIiZdFu3yukiRFZQk++uijeNeiLb15mfIyZPhdjGkkJS0pan5pT/+2/gb7O5I1rFQuQbv7fvSjH0Xf/OY3o6eeeiraunVr1N/fH914442hbZH187PPyj8eQsHKzK+yGm5Zx2eyhlVy1+DcuXNL58+fb4kaeUSuECwEC8GCLikoqPyshx9+OAiXncz0N/k+h0nBqlDeIW358FKzJCtNCixxPikNvrGwlholH3Pnzg3LZPfff390+PDh6MKFCyHB+zvf+U4onqkWP6pOLpGxelxWusBHjbwk+fclRVbTy173USuLQNnPmMhp16SW8958883otddeC6Urvvvd74a/7TOf+Ux09OjR6MEHH4yWL18eGif39vaGCJ5F8rxEpcloJVltcLQq9zKgHXv+GPbC76NXs2bNCrmHQ30xo3GEWCFYCBaCBUMw+bZCW4x169aFtiATJky4olZQuWXCHEnyTY1q1SIHVqspmQOm36H8I0W9VI1c0jJ79uywrLZixYpo3bp10ebNm8OOxgMHDgTJUU2op59+OvrqV78aGhpLzL797W+HewmRx97TY/3sV77ylRBxUqFVLWfqd2rnnpoir127NoifIm+SwGnTpoWlvawm22m1xdJkNBm5apJYVbUbsNwxmJZLOG7cuNLevXtLd95555CPK5o1I1gIFjAYh3gSbpU6OEoAvueee0qjR48OCcGKFmgJxnY8JYWqykT5ZK7W5SJb8SRFoZwsWPTKJ3CblOTd6WY/75fV7HdaaQK9ryU5NbpWeQOJmtBjvab39LMmQ1bWwNcMy1ugM0uq7LW032GfUaXPq2Cpqipp3R9jPvdK97Y8qOc6Zh988MHSXXfd1TJts+gpiGAhWMBgZEIehCIAEi2f9O6LNRZwK0y2KomB5MLkJUtA8uyAzLN7rghBqVZ2sgTKInDJGlV5C3zWUKeqMKnKEq3k8ajbpEmTSg888EDYJcsFEyBYCBaCBZmS1UqT8549e0qrVq0qzZgxY9BSTbmk42bLlslItXLjc7CSUpHM16o2ypO2BFevmPnfWZTIpdW3qlMYC5Wqcs2Zb7jhhtL69etDxwKi0YBgIVgIFrTljqN9+/aVNmzYUBo7dmypwbeaZCuPAGXlWhW5PDkU5Pn/sSXMrEhX3gT4ZkqVr77u5V4Fc7du3RqaMrMzGBAsBAvBgrasmZVWrFRRLf1daQnIaQnJaTk0dcjW5aEWGoi/h5r6AfpIVJ7lZjterr/++tITTzwxZEVCs8SK2lYIFoIFCBblHApjyZIlpWPHjpVmzpwZlmts67w/cablbyVPnL4vYhW7EZteZwuhSo1S5ZKqtObiSRG3hHV/jNkGi3nz5oU6VqrZRgssQLAQLAQLCl8ybMUrZf09KliqprlpsmTLO0n5Gj58eBFLiUS4WlCo8iasW2QqLaKp42rNmjWl06dPt2xpFeQKwUKwAMHqsGhWqxYtVJ7W9u3bS1OmTImjWr4FT1qJB/2/FJi7lRQuoly1yVThQqXvXt918hhIPleU6vHHHw912WjcDggWgoVgwZDkfbTq36cCj2fOnCndcsstpZEjR17R1kTRq0rFIwsUrizputzlMtWw6FSaXPllYkU6fdRKzxUBPXv2bLxbtRVbW9GkGcFCsADBIprVMuzfvz/s+NKWen/CtXybJt/SpCtNvC53gESVE6lhzfzQLbE9uRS4ePHi0oEDB0qbNm1q+U4LiBWChWABgtWlrXZa/QSgyIQiFCr1oCVEH71ogduwMvLlBawVJCxNoLKW95ouU1lJ7nbr6+sr7d69u3T06NGWjsLaBQyV2BEsBIsPAcFCtMLJoB1OCLfffnvp3LlzpZUrV8ZNplv8NiyHhCVFrCgGMmgpiSp3U6V15VQpYV2RzHYojYJYIViAYCFY0Nb9zxYtWhR2Iaoit5r0VmouXUsF8LSK4L6sRFpFev9zBQlZLeT+f8z6bPxGA9/Hr1HLs/bv6RjcvHlzEOnZs2e3Tc05wXIgggUIFgAAAACCBQAAAIBgAQAAACBYAAAAAIBgAQAAACBYAAAAAAgWAAAAACBYAAAAAAgWAAAAAIIFAAAAAAgWAAAAAIIFAAAAgGABAAAAAIIFAAAAgGABAAAAIFgAAAAACBYAAAAAIFgAAAAACBYAAAAAggUAAAAACBYAAAAAggUAAACAYAEAAAAAggUAAACAYAEAAAAgWAAAAADAhwAAAACAYAEAAAAgWAAAAAAIFgAAAAAgWAAAAAAIFgAAAACCBQAAAAAIFgAAAACCBQAAAIBgAQAAAACCBQAAAIBgAQAAACBYAAAAAAgWAAAAACBYAAAAAAgWAAAAAIIFAAAAAAgWAAAAAIIFAAAAgGABAAAAAIIFAAAAgGABAAAAIFgAAAAAgGABAAAAIFgAAAAACBYAAAAAggUAAAAACBYAAAAAggUAAACAYAEAAAAAggUAAACAYAEAAAAgWAAAAACAYAEAAAAgWAAAAAAIFgAAAAAgWAAAAAAIFgAAAACCBQAAAIBgAQAAAACCBQAAAIBgAQAAACBYAAAAAIBgAQAAACBYAAAAAAgWAAAAACBYAAAAAAgWAAAAAIIFAAAAAAgWAAAAAIIFAAAAgGABAAAAIFgAAAAAUAf/ByG3ZGcAJpB0AAAAAElFTkSuQmCC;" vertex="1" parent="1">
          <mxGeometry x="369.71" y="440.71" width="51.42" height="51.42" as="geometry" />
        </mxCell>
        <mxCell id="3UcTS02MajumEh321Bra-28" value="SUAVE" style="text;html=1;align=center;verticalAlign=middle;resizable=0;points=[];autosize=1;strokeColor=none;fillColor=none;fontSize=27;fontStyle=1" vertex="1" parent="1">
          <mxGeometry x="426.71000000000004" y="440.71" width="110" height="50" as="geometry" />
        </mxCell>
        <mxCell id="3UcTS02MajumEh321Bra-29" value="Sequencer" style="text;html=1;align=center;verticalAlign=middle;resizable=0;points=[];autosize=1;strokeColor=none;fillColor=none;fontSize=27;fontStyle=1" vertex="1" parent="1">
          <mxGeometry y="409.99999999999994" width="160" height="50" as="geometry" />
        </mxCell>
      </root>
    </mxGraphModel>
  </diagram>
</mxfile>
